<?xml version="1.0" encoding="UTF-8"?>
<!-- Generator: CustomSymbols v2.6.4.43 by @serious_bret https://bretlester.com/app_content/CustomSymbols/ -->
<!-- Guides: Left/Right 0.3/0.3 Cap/Base 0.3/0.3 -->
<!-- Settings: RefScale 1.0 Min/Max Stroke Scales 0.5/2.21 -->
<!DOCTYPE svg
PUBLIC "-//W3C//DTD SVG 1.1//EN"
       "http://www.w3.org/Graphics/SVG/1.1/DTD/svg11.dtd">
<svg version="1.1" xmlns="http://www.w3.org/2000/svg" xmlns:xlink="http://www.w3.org/1999/xlink" width="3300" height="2200">
<![CDATA[<?xml version="1.0" encoding="utf-8"?>
<!-- Generator: Adobe Illustrator 24.0.1, SVG Export Plug-In . SVG Version: 6.00 Build 0)  -->
<svg version="1.1" id="Layer_2_1_" xmlns="http://www.w3.org/2000/svg" xmlns:xlink="http://www.w3.org/1999/xlink" x="0px" y="0px"
	 viewBox="0 0 400 400" style="enable-background:new 0 0 400 400;" xml:space="preserve">
<style type="text/css">
	.st0{fill:#FFFFFF;}
	.st1{fill:#E03A3E;}
</style>
<g id="Layer_2_2_">
	<path class="st0" d="M312.9,93.7c-28.8-30.8-70.7-48.4-115-48.4c-3.8,0-7.6,0.1-11.3,0.5c-71.5,4.8-106,55.7-109.6,61.3
		c-5.4,6.7-50.7,68-20.3,152.6l0.6,1.8C57.6,262.4,87.2,353,193,353l0,0c5.6,0,11.5-0.3,17.4-0.8c79.1-6.9,137.8-65.3,142.8-141.9
		C356.3,166.2,342,124.8,312.9,93.7"/>
	<path class="st1" d="M305.4,100.6c-29.7-31.7-73.5-48-118.3-44.9C116,60.5,84.4,113.4,84.4,113.4s56.4,17.1,64.1,19.5
		c5.4,1.6,40.4,10.4,56.3,19c3.3,1.8,6.5,5.5,9.7,8.8c2.4,2.5,4.6,4.9,6.9,6.8c4.2,3.4,8.2,6.3,12.2,9.2
		c9.7,7.1,18.2,13.1,22.2,22.4c3.4,8,3.5,16.4,0.5,24.1c-2.7,6.7-8,12.8-14.4,17c0.7-3.4,1.5-8.3-3.1-11.3
		c-2.1-1.3-12.6-3.8-19.7-4.6c-3.4-0.3-41.5-2.1-94.3,26.4c15.8-21.2,27.2-24.7,27.2-24.7c-0.5-2.5-85.5,31.9-85.5,31.9
		s29.4,94.1,142.8,84.1c73.9-6.5,128.9-60.6,133.7-132.7C345.8,168.2,332.4,129.5,305.4,100.6 M281.8,233.8
		c10.7-23.6,5.4-49.2-12.8-69.5c-5-5.6-11.3-9.5-17.3-13.1c-3.9-2.4-8-4.9-11.6-7.9c-1.7-1.4-3.1-3.3-4.6-5.2
		c-1.8-2.5-3.9-5.4-6.9-7.4c-16.7-12.2-36.5-16.5-55.9-22.2c-9.2-2.7-18.1-4.7-26.5-7.7c10.5-7.2,23.8-12,38.4-13.3
		c4.6-0.5,9.1-0.7,13.7-0.7c43.1,0,80.5,21.6,100.5,58c19.9,36.3,18.7,80.4-3.4,115.2c-22.7,35.7-62.9,54.6-108.4,50.8
		c-27.2-2.2-56.3-16.6-65.2-32c5.5-3.4,55.2-29.7,89.3-19.1c9.7,0-5.8,23.7-5.8,23.7S261.6,278.4,281.8,233.8"/>
	<path class="st1" d="M197.7,162.3c-18.2,0.7-35.1-21.3-49.1-6.8c2.7,0.7,8.3-1.4,9.1,1.1C150.5,185,197.3,192.4,197.7,162.3"/>
</g>
</svg>
]]>
 <g id="Notes">
  <rect height="2200" id="artboard" style="fill:white;opacity:1" width="3300" x="0" y="0"/>
  <line id="" style="fill:none;stroke:black;opacity:1;stroke-width:0.5;" x1="263" x2="3036" y1="292" y2="292"/>
  <text id="reftext1" style="stroke:none;fill:black;font-family:-apple-system,&quot;SF Pro Display&quot;,&quot;SF Pro Text&quot;,Helvetica,sans-serif;font-weight:bold;" transform="matrix(1 0 0 1 263 322)">Weight/Scale Variations</text>
  <text id="reftext2" style="stroke:none;fill:black;font-family:-apple-system,&quot;SF Pro Display&quot;,&quot;SF Pro Text&quot;,Helvetica,sans-serif;text-anchor:middle;" transform="matrix(1 0 0 1 559.711 322)">Ultralight</text>
  <text style="stroke:none;fill:black;font-family:-apple-system,&quot;SF Pro Display&quot;,&quot;SF Pro Text&quot;,Helvetica,sans-serif;text-anchor:middle;" transform="matrix(1 0 0 1 856.422 322)">Thin</text>
  <text style="stroke:none;fill:black;font-family:-apple-system,&quot;SF Pro Display&quot;,&quot;SF Pro Text&quot;,Helvetica,sans-serif;text-anchor:middle;" transform="matrix(1 0 0 1 1153.13 322)">Light</text>
  <text style="stroke:none;fill:black;font-family:-apple-system,&quot;SF Pro Display&quot;,&quot;SF Pro Text&quot;,Helvetica,sans-serif;text-anchor:middle;" transform="matrix(1 0 0 1 1449.84 322)">Regular</text>
  <text style="stroke:none;fill:black;font-family:-apple-system,&quot;SF Pro Display&quot;,&quot;SF Pro Text&quot;,Helvetica,sans-serif;text-anchor:middle;" transform="matrix(1 0 0 1 1746.56 322)">Medium</text>
  <text style="stroke:none;fill:black;font-family:-apple-system,&quot;SF Pro Display&quot;,&quot;SF Pro Text&quot;,Helvetica,sans-serif;text-anchor:middle;" transform="matrix(1 0 0 1 2043.27 322)">Semibold</text>
  <text style="stroke:none;fill:black;font-family:-apple-system,&quot;SF Pro Display&quot;,&quot;SF Pro Text&quot;,Helvetica,sans-serif;text-anchor:middle;" transform="matrix(1 0 0 1 2339.98 322)">Bold</text>
  <text style="stroke:none;fill:black;font-family:-apple-system,&quot;SF Pro Display&quot;,&quot;SF Pro Text&quot;,Helvetica,sans-serif;text-anchor:middle;" transform="matrix(1 0 0 1 2636.69 322)">Heavy</text>
  <text style="stroke:none;fill:black;font-family:-apple-system,&quot;SF Pro Display&quot;,&quot;SF Pro Text&quot;,Helvetica,sans-serif;text-anchor:middle;" transform="matrix(1 0 0 1 2933.4 322)">Black</text>
  <line id="" style="fill:none;stroke:black;opacity:1;stroke-width:0.5;" x1="263" x2="3036" y1="1903" y2="1903"/>
  <g id="" transform="matrix(1 0 0 1 263 1933)">
   <path d="M9.24805 0.830078C13.5547 0.830078 17.1387-2.74414 17.1387-7.05078C17.1387-11.3574 13.5449-14.9316 9.23828-14.9316C4.94141-14.9316 1.36719-11.3574 1.36719-7.05078C1.36719-2.74414 4.95117 0.830078 9.24805 0.830078ZM9.24805-0.654297C5.70312-0.654297 2.87109-3.49609 2.87109-7.05078C2.87109-10.6055 5.69336-13.4473 9.23828-13.4473C12.793-13.4473 15.6348-10.6055 15.6445-7.05078C15.6543-3.49609 12.8027-0.654297 9.24805-0.654297ZM6.39648-6.31836L8.50586-6.31836L8.50586-4.19922C8.50586-3.75977 8.79883-3.45703 9.22852-3.45703C9.67773-3.45703 9.9707-3.75977 9.9707-4.19922L9.9707-6.31836L12.0996-6.31836C12.5391-6.31836 12.8418-6.61133 12.8418-7.04102C12.8418-7.48047 12.5391-7.7832 12.0996-7.7832L9.9707-7.7832L9.9707-9.89258C9.9707-10.3418 9.67773-10.6445 9.22852-10.6445C8.79883-10.6445 8.50586-10.3418 8.50586-9.89258L8.50586-7.7832L6.39648-7.7832C5.94727-7.7832 5.64453-7.48047 5.64453-7.04102C5.64453-6.61133 5.94727-6.31836 6.39648-6.31836Z"/>
  </g>
  <g id="" transform="matrix(1 0 0 1 281.506 1933)">
   <path d="M11.709 2.91016C17.1582 2.91016 21.6699-1.61133 21.6699-7.05078C21.6699-12.5 17.1484-17.0117 11.6992-17.0117C6.25977-17.0117 1.74805-12.5 1.74805-7.05078C1.74805-1.61133 6.26953 2.91016 11.709 2.91016ZM11.709 1.25C7.09961 1.25 3.41797-2.44141 3.41797-7.05078C3.41797-11.6602 7.08984-15.3516 11.6992-15.3516C16.3086-15.3516 20-11.6602 20.0098-7.05078C20.0195-2.44141 16.3184 1.25 11.709 1.25ZM7.98828-6.23047L10.8789-6.23047L10.8789-3.32031C10.8789-2.83203 11.2109-2.5 11.6895-2.5C12.1777-2.5 12.5195-2.83203 12.5195-3.32031L12.5195-6.23047L15.4297-6.23047C15.918-6.23047 16.25-6.5625 16.25-7.04102C16.25-7.5293 15.918-7.87109 15.4297-7.87109L12.5195-7.87109L12.5195-10.7617C12.5195-11.2695 12.1777-11.6016 11.6895-11.6016C11.2109-11.6016 10.8789-11.2598 10.8789-10.7617L10.8789-7.87109L7.98828-7.87109C7.48047-7.87109 7.14844-7.5293 7.14844-7.04102C7.14844-6.5625 7.49023-6.23047 7.98828-6.23047Z"/>
  </g>
  <g id="" transform="matrix(1 0 0 1 304.924 1933)">
   <path d="M14.9707 5.66406C21.9336 5.66406 27.6953-0.0976562 27.6953-7.05078C27.6953-14.0137 21.9238-19.7754 14.9609-19.7754C8.00781-19.7754 2.25586-14.0137 2.25586-7.05078C2.25586-0.0976562 8.01758 5.66406 14.9707 5.66406ZM14.9707 3.84766C8.93555 3.84766 4.08203-1.01562 4.08203-7.05078C4.08203-13.0957 8.92578-17.9492 14.9609-17.9492C21.0059-17.9492 25.8594-13.0957 25.8691-7.05078C25.8789-1.01562 21.0156 3.84766 14.9707 3.84766ZM10.0586-6.14258L14.0625-6.14258L14.0625-2.12891C14.0625-1.5918 14.4336-1.2207 14.9512-1.2207C15.4883-1.2207 15.8594-1.5918 15.8594-2.12891L15.8594-6.14258L19.8828-6.14258C20.4102-6.14258 20.791-6.51367 20.791-7.03125C20.791-7.56836 20.4199-7.94922 19.8828-7.94922L15.8594-7.94922L15.8594-11.9531C15.8594-12.5098 15.4883-12.8809 14.9512-12.8809C14.4336-12.8809 14.0625-12.5 14.0625-11.9531L14.0625-7.94922L10.0586-7.94922C9.50195-7.94922 9.13086-7.56836 9.13086-7.03125C9.13086-6.51367 9.51172-6.14258 10.0586-6.14258Z"/>
  </g>
  <text style="stroke:none;fill:black;font-family:-apple-system,&quot;SF Pro Display&quot;,&quot;SF Pro Text&quot;,Helvetica,sans-serif;font-weight:bold;" transform="matrix(1 0 0 1 263 1953)">Design Variations</text>
  <text style="stroke:none;fill:black;font-family:-apple-system,&quot;SF Pro Display&quot;,&quot;SF Pro Text&quot;,Helvetica,sans-serif;" transform="matrix(1 0 0 1 263 1971)">Symbols are supported in up to nine weights and three scales.</text>
  <text style="stroke:none;fill:black;font-family:-apple-system,&quot;SF Pro Display&quot;,&quot;SF Pro Text&quot;,Helvetica,sans-serif;" transform="matrix(1 0 0 1 263 1989)">For optimal layout with text and other symbols, vertically align</text>
  <text style="stroke:none;fill:black;font-family:-apple-system,&quot;SF Pro Display&quot;,&quot;SF Pro Text&quot;,Helvetica,sans-serif;" transform="matrix(1 0 0 1 263 2007)">symbols with the adjacent text.</text>
  <line id="" style="fill:none;stroke:#00AEEF;stroke-width:0.5;opacity:1.0;" x1="776" x2="776" y1="1919" y2="1933"/>
  <g id="" transform="matrix(1 0 0 1 776 1933)">
   <path d="M3.31055 0.126953C3.82812 0.126953 4.08203-0.0683594 4.26758-0.605469L5.52734-4.0625L11.2891-4.0625L12.5488-0.605469C12.7344-0.0683594 12.9883 0.126953 13.4961 0.126953C14.0137 0.126953 14.3457-0.185547 14.3457-0.673828C14.3457-0.839844 14.3164-0.986328 14.2383-1.20117L9.6582-13.3887C9.43359-13.9941 9.0332-14.2871 8.4082-14.2871C7.80273-14.2871 7.39258-13.9941 7.17773-13.3984L2.59766-1.19141C2.51953-0.976562 2.49023-0.830078 2.49023-0.664062C2.49023-0.175781 2.80273 0.126953 3.31055 0.126953ZM6.00586-5.53711L8.37891-12.1094L8.42773-12.1094L10.8008-5.53711Z"/>
  </g>
  <line id="" style="fill:none;stroke:#00AEEF;stroke-width:0.5;opacity:1.0;" x1="792.836" x2="792.836" y1="1919" y2="1933"/>
  <text style="stroke:none;fill:black;font-family:-apple-system,&quot;SF Pro Display&quot;,&quot;SF Pro Text&quot;,Helvetica,sans-serif;font-weight:bold;" transform="matrix(1 0 0 1 776 1953)">Margins</text>
  <text style="stroke:none;fill:black;font-family:-apple-system,&quot;SF Pro Display&quot;,&quot;SF Pro Text&quot;,Helvetica,sans-serif;" transform="matrix(1 0 0 1 776 1971)">Leading and trailing margins on the left and right side of each symbol</text>
  <text style="stroke:none;fill:black;font-family:-apple-system,&quot;SF Pro Display&quot;,&quot;SF Pro Text&quot;,Helvetica,sans-serif;" transform="matrix(1 0 0 1 776 1989)">can be adjusted by modifying the x-location of the margin guidelines.</text>
  <text style="stroke:none;fill:black;font-family:-apple-system,&quot;SF Pro Display&quot;,&quot;SF Pro Text&quot;,Helvetica,sans-serif;" transform="matrix(1 0 0 1 776 2007)">Modifications are automatically applied proportionally to all</text>
  <text style="stroke:none;fill:black;font-family:-apple-system,&quot;SF Pro Display&quot;,&quot;SF Pro Text&quot;,Helvetica,sans-serif;" transform="matrix(1 0 0 1 776 2025)">scales and weights.</text>
  <g id="" transform="matrix(1 0 0 1 1289 1933)">
   <path d="M2.8418 1.86523L4.54102 3.57422C5.40039 4.44336 6.38672 4.38477 7.31445 3.35938L17.4902-7.85156C17.7539-7.76367 18.0273-7.7832 18.3398-7.8418L19.4043-8.03711L20.0684-7.36328L20.0293-6.80664C19.9902-6.30859 20.1172-5.92773 20.6055-5.44922L21.3672-4.70703C21.8457-4.22852 22.4609-4.19922 22.9297-4.66797L25.8398-7.58789C26.3086-8.05664 26.2891-8.65234 25.8105-9.13086L25.0391-9.89258C24.5605-10.3711 24.1895-10.5273 23.7109-10.4883L23.1348-10.4395L22.4902-11.0742L22.7344-12.1973C22.8613-12.7637 22.7051-13.2031 22.1191-13.7891L19.9219-15.9766C16.582-19.2969 12.1484-19.2188 9.25781-16.3281C8.83789-15.918 8.80859-15.3418 9.04297-14.9512C9.27734-14.5898 9.73633-14.3555 10.3809-14.5215C11.8457-14.8633 13.3691-14.9219 14.7949-13.9844L14.209-12.5293C14.0137-12.0508 13.9844-11.6504 14.1113-11.2891L3.04688-0.898438C2.06055 0.0195312 1.98242 0.996094 2.8418 1.86523ZM10.752-15.957C13.1836-17.7344 16.4746-17.4316 18.7012-15.2051L21.1328-12.793C21.3672-12.5586 21.4062-12.373 21.3379-12.0312L21.0156-10.5469L22.5195-9.0625L23.5059-9.12109C23.7598-9.13086 23.8379-9.11133 24.0332-8.91602L24.6094-8.33984L22.168-5.89844L21.5918-6.47461C21.3965-6.66992 21.3672-6.74805 21.377-7.01172L21.4453-7.98828L19.9512-9.47266L18.4277-9.21875C18.1055-9.15039 17.959-9.17969 17.7148-9.41406L15.7129-11.416C15.459-11.6504 15.4297-11.8164 15.5859-12.1875L16.4648-14.2773C14.9023-15.7324 12.8711-16.3574 10.8398-15.7617C10.6836-15.7227 10.625-15.8496 10.752-15.957ZM5.27344 2.30469L4.10156 1.14258C3.63281 0.683594 3.74023 0.341797 4.14062-0.0195312L14.9512-10.1953L16.416-8.71094L6.42578 2.27539C6.07422 2.67578 5.74219 2.77344 5.27344 2.30469Z"/>
  </g>
  <text style="stroke:none;fill:black;font-family:-apple-system,&quot;SF Pro Display&quot;,&quot;SF Pro Text&quot;,Helvetica,sans-serif;font-weight:bold;" transform="matrix(1 0 0 1 1289 1953)">Exporting</text>
  <text style="stroke:none;fill:black;font-family:-apple-system,&quot;SF Pro Display&quot;,&quot;SF Pro Text&quot;,Helvetica,sans-serif;" transform="matrix(1 0 0 1 1289 1971)">Symbols should be outlined when exporting to ensure the</text>
  <text style="stroke:none;fill:black;font-family:-apple-system,&quot;SF Pro Display&quot;,&quot;SF Pro Text&quot;,Helvetica,sans-serif;" transform="matrix(1 0 0 1 1289 1989)">design is preserved when submitting to Xcode.</text>
  <text id="template-version" style="stroke:none;fill:black;font-family:-apple-system,&quot;SF Pro Display&quot;,&quot;SF Pro Text&quot;,Helvetica,sans-serif;text-anchor:end;" transform="matrix(1 0 0 1 3036 1933)">Template v.2.0</text>
  <text style="stroke:none;fill:black;font-family:-apple-system,&quot;SF Pro Display&quot;,&quot;SF Pro Text&quot;,Helvetica,sans-serif;text-anchor:end;" transform="matrix(1 0 0 1 3036 1951)">Requires Xcode 12 or greater</text>
  <text style="stroke:none;fill:black;font-family:-apple-system,&quot;SF Pro Display&quot;,&quot;SF Pro Text&quot;,Helvetica,sans-serif;" transform="matrix(1 0 0 1 263 726)">Small</text>
  <text style="stroke:none;fill:black;font-family:-apple-system,&quot;SF Pro Display&quot;,&quot;SF Pro Text&quot;,Helvetica,sans-serif;" transform="matrix(1 0 0 1 263 1156)">Medium</text>
  <text style="stroke:none;fill:black;font-family:-apple-system,&quot;SF Pro Display&quot;,&quot;SF Pro Text&quot;,Helvetica,sans-serif;" transform="matrix(1 0 0 1 263 1586)">Large</text>
 </g>
 <g id="Guides">
  <g id="H-reference" style="fill:#27AAE1;stroke:none;" transform="matrix(1 0 0 1 339 696)">
   <path d="M0.976562 0L3.66211 0L12.9883-24.4629L45.752-24.4629L55.127 0L57.7637 0L30.6152-70.459L28.125-70.459ZM29.3457-67.1387L29.4434-67.1387L44.873-26.709L13.8672-26.709Z"/>
  </g>
  <line id="Baseline-S" style="fill:none;stroke:#27AAE1;opacity:1;stroke-width:0.5;" x1="263" x2="3036" y1="696" y2="696"/>
  <line id="Capline-S" style="fill:none;stroke:#27AAE1;opacity:1;stroke-width:0.5;" x1="263" x2="3036" y1="625.541" y2="625.541"/>
  <g id="H-reference" style="fill:#27AAE1;stroke:none;" transform="matrix(1 0 0 1 339 1126)">
   <path d="M0.976562 0L3.66211 0L12.9883-24.4629L45.752-24.4629L55.127 0L57.7637 0L30.6152-70.459L28.125-70.459ZM29.3457-67.1387L29.4434-67.1387L44.873-26.709L13.8672-26.709Z"/>
  </g>
  <line id="Baseline-M" style="fill:none;stroke:#27AAE1;opacity:1;stroke-width:0.5;" x1="263" x2="3036" y1="1126" y2="1126"/>
  <line id="Capline-M" style="fill:none;stroke:#27AAE1;opacity:1;stroke-width:0.5;" x1="263" x2="3036" y1="1055.54" y2="1055.54"/>
  <g id="H-reference" style="fill:#27AAE1;stroke:none;" transform="matrix(1 0 0 1 339 1556)">
   <path d="M0.976562 0L3.66211 0L12.9883-24.4629L45.752-24.4629L55.127 0L57.7637 0L30.6152-70.459L28.125-70.459ZM29.3457-67.1387L29.4434-67.1387L44.873-26.709L13.8672-26.709Z"/>
  </g>
  <line id="Baseline-L" style="fill:none;stroke:#27AAE1;opacity:1;stroke-width:0.5;" x1="263" x2="3036" y1="1556" y2="1556"/>
  <line id="Capline-L" style="fill:none;stroke:#27AAE1;opacity:1;stroke-width:0.5;" x1="263" x2="3036" y1="1485.54" y2="1485.54"/>
  <line id="left-margin" x1="1415.9000195312499" x2="1415.9000195312499" y1="1030.79" y2="1150.12" style="fill:none;stroke:#00AEEF;stroke-width:0.5;opacity:1.0;"/>
  <line id="right-margin" x1="1486.3599804687499" x2="1486.3599804687499" y1="1030.79" y2="1150.12" style="fill:none;stroke:#00AEEF;stroke-width:0.5;opacity:1.0;"/>
 </g>
 <g id="Symbols">
  <g id="Black-L" transform="matrix(1.0,0.0,0.0,1.0,2821.0633129882813,1407.1533325195312)">  <path xml:space="preserve" stroke-dasharray="none" y="0px" fill-opacity="1" fill="#ffffff" x="0px" version="1.1" fill-rule="nonzero" stroke-width="1px" stroke-linecap="butt" stroke-linejoin="miter" stroke-miterlimit="4" stroke-opacity="1" xmlns:xlink="http://www.w3.org/1999/xlink" stroke="none" d="M177.753,53.229C161.393,35.732,137.59,25.734,112.424,25.734C110.265,25.734,108.106,25.791,106.004,26.018C65.386,28.745,45.788,57.66,43.742,60.842C40.675,64.648,14.941,99.471,32.21,147.531L32.551,148.554C32.722,149.065,49.537,200.533,109.64,200.533L109.64,200.533C112.821,200.533,116.173,200.363,119.525,200.079C164.46,196.159,197.807,162.983,200.647,119.468C202.408,94.415,194.285,70.897,177.753,53.229"/>
  <path xml:space="preserve" stroke-linejoin="miter" xmlns:xlink="http://www.w3.org/1999/xlink" stroke-opacity="1" stroke-dasharray="none" fill-opacity="1" fill-rule="nonzero" stroke-linecap="butt" stroke="none" y="0px" stroke-miterlimit="4" stroke-width="1px" fill="#e03a3e" version="1.1" x="0px" d="M173.493,57.149C156.621,39.141,131.739,29.881,106.288,31.642C65.898,34.369,47.946,64.421,47.946,64.421C47.946,64.421,79.986,74.135,84.36,75.498C87.428,76.407,107.311,81.406,116.343,86.292C118.218,87.314,120.036,89.416,121.854,91.291C123.217,92.711,124.467,94.075,125.774,95.154C128.16,97.085,130.432,98.733,132.704,100.38C138.215,104.414,143.043,107.822,145.316,113.105C147.247,117.65,147.304,122.422,145.6,126.796C144.066,130.602,141.055,134.068,137.419,136.454C137.817,134.522,138.272,131.739,135.658,130.034C134.465,129.296,128.5,127.876,124.467,127.421C122.536,127.251,100.892,126.228,70.897,142.419C79.873,130.375,86.349,128.387,86.349,128.387C86.065,126.967,37.778,146.509,37.778,146.509C37.778,146.509,54.479,199.965,118.9,194.285C160.881,190.592,192.126,159.859,194.853,118.9C196.443,95.552,188.831,73.567,173.493,57.149M160.086,132.818C166.164,119.411,163.154,104.868,152.814,93.336C149.974,90.155,146.395,87.939,142.987,85.894C140.771,84.531,138.442,83.111,136.397,81.406C135.431,80.611,134.636,79.532,133.784,78.452C132.761,77.032,131.568,75.385,129.864,74.249C120.377,67.318,109.129,64.875,98.108,61.637C92.882,60.103,87.826,58.967,83.054,57.263C89.019,53.173,96.574,50.446,104.868,49.707C107.481,49.423,110.038,49.31,112.651,49.31C137.135,49.31,158.382,61.58,169.743,82.258C181.048,102.88,180.366,127.932,167.812,147.702C154.916,167.982,132.079,178.719,106.232,176.56C90.78,175.311,74.248,167.13,69.193,158.382C72.317,156.45,100.551,141.51,119.922,147.531C125.433,147.531,116.628,160.995,116.628,160.995C116.628,160.995,148.611,158.154,160.086,132.818"/>
  <path x="0px" xmlns:xlink="http://www.w3.org/1999/xlink" y="0px" fill-opacity="1" stroke-miterlimit="4" stroke-dasharray="none" stroke-opacity="1" fill="#e03a3e" stroke-width="1px" xml:space="preserve" version="1.1" stroke-linecap="butt" stroke-linejoin="miter" stroke="none" fill-rule="nonzero" d="M112.31,92.2C101.971,92.598,92.37,80.1,84.417,88.337C85.951,88.735,89.132,87.542,89.587,88.962C85.497,105.095,112.083,109.299,112.31,92.2"/>
</g>
  <g id="Heavy-L" transform="matrix(1.0,0.0,0.0,1.0,2524.3533129882812,1407.1533325195312)">  <path xmlns:xlink="http://www.w3.org/1999/xlink" stroke-opacity="1" stroke="none" stroke-width="1px" xml:space="preserve" version="1.1" fill="#ffffff" fill-opacity="1" stroke-linecap="butt" stroke-miterlimit="4" x="0px" stroke-linejoin="miter" y="0px" stroke-dasharray="none" fill-rule="nonzero" d="M177.753,53.229C161.393,35.732,137.59,25.734,112.424,25.734C110.265,25.734,108.106,25.791,106.004,26.018C65.386,28.745,45.788,57.66,43.742,60.842C40.675,64.648,14.941,99.471,32.21,147.531L32.551,148.554C32.722,149.065,49.537,200.533,109.64,200.533L109.64,200.533C112.821,200.533,116.173,200.363,119.525,200.079C164.46,196.159,197.807,162.983,200.647,119.468C202.408,94.415,194.285,70.897,177.753,53.229"/>
  <path stroke-miterlimit="4" fill-rule="nonzero" stroke-opacity="1" version="1.1" y="0px" stroke-linecap="butt" fill-opacity="1" xml:space="preserve" fill="#e03a3e" xmlns:xlink="http://www.w3.org/1999/xlink" x="0px" stroke-width="1px" stroke="none" stroke-dasharray="none" stroke-linejoin="miter" d="M173.493,57.149C156.621,39.141,131.739,29.881,106.288,31.642C65.898,34.369,47.946,64.421,47.946,64.421C47.946,64.421,79.986,74.135,84.36,75.498C87.428,76.407,107.311,81.406,116.343,86.292C118.218,87.314,120.036,89.416,121.854,91.291C123.217,92.711,124.467,94.075,125.774,95.154C128.16,97.085,130.432,98.733,132.704,100.38C138.215,104.414,143.043,107.822,145.316,113.105C147.247,117.65,147.304,122.422,145.6,126.796C144.066,130.602,141.055,134.068,137.419,136.454C137.817,134.522,138.272,131.739,135.658,130.034C134.465,129.296,128.5,127.876,124.467,127.421C122.536,127.251,100.892,126.228,70.897,142.419C79.873,130.375,86.349,128.387,86.349,128.387C86.065,126.967,37.778,146.509,37.778,146.509C37.778,146.509,54.479,199.965,118.9,194.285C160.881,190.592,192.126,159.859,194.853,118.9C196.443,95.552,188.831,73.567,173.493,57.149M160.086,132.818C166.164,119.411,163.154,104.868,152.814,93.336C149.974,90.155,146.395,87.939,142.987,85.894C140.771,84.531,138.442,83.111,136.397,81.406C135.431,80.611,134.636,79.532,133.784,78.452C132.761,77.032,131.568,75.385,129.864,74.249C120.377,67.318,109.129,64.875,98.108,61.637C92.882,60.103,87.826,58.967,83.054,57.263C89.019,53.173,96.574,50.446,104.868,49.707C107.481,49.423,110.038,49.31,112.651,49.31C137.135,49.31,158.382,61.58,169.743,82.258C181.048,102.88,180.366,127.932,167.812,147.702C154.916,167.982,132.079,178.719,106.232,176.56C90.78,175.311,74.248,167.13,69.193,158.382C72.317,156.45,100.551,141.51,119.922,147.531C125.433,147.531,116.628,160.995,116.628,160.995C116.628,160.995,148.611,158.154,160.086,132.818"/>
  <path stroke-opacity="1" fill-rule="nonzero" stroke-linejoin="miter" stroke="none" xml:space="preserve" stroke-width="1px" fill-opacity="1" x="0px" stroke-miterlimit="4" fill="#e03a3e" y="0px" version="1.1" stroke-linecap="butt" stroke-dasharray="none" xmlns:xlink="http://www.w3.org/1999/xlink" d="M112.31,92.2C101.971,92.598,92.37,80.1,84.417,88.337C85.951,88.735,89.132,87.542,89.587,88.962C85.497,105.095,112.083,109.299,112.31,92.2"/>
</g>
  <g id="Bold-L" transform="matrix(1.0,0.0,0.0,1.0,2227.643312988281,1407.1533325195312)">  <path fill="#ffffff" xmlns:xlink="http://www.w3.org/1999/xlink" stroke-linecap="butt" stroke-miterlimit="4" stroke-dasharray="none" x="0px" version="1.1" stroke-linejoin="miter" stroke-width="1px" xml:space="preserve" stroke="none" fill-opacity="1" stroke-opacity="1" fill-rule="nonzero" y="0px" d="M177.753,53.229C161.393,35.732,137.59,25.734,112.424,25.734C110.265,25.734,108.106,25.791,106.004,26.018C65.386,28.745,45.788,57.66,43.742,60.842C40.675,64.648,14.941,99.471,32.21,147.531L32.551,148.554C32.722,149.065,49.537,200.533,109.64,200.533L109.64,200.533C112.821,200.533,116.173,200.363,119.525,200.079C164.46,196.159,197.807,162.983,200.647,119.468C202.408,94.415,194.285,70.897,177.753,53.229"/>
  <path stroke="none" xml:space="preserve" y="0px" version="1.1" stroke-opacity="1" stroke-miterlimit="4" fill-opacity="1" fill="#e03a3e" xmlns:xlink="http://www.w3.org/1999/xlink" stroke-dasharray="none" fill-rule="nonzero" x="0px" stroke-linejoin="miter" stroke-linecap="butt" stroke-width="1px" d="M173.493,57.149C156.621,39.141,131.739,29.881,106.288,31.642C65.898,34.369,47.946,64.421,47.946,64.421C47.946,64.421,79.986,74.135,84.36,75.498C87.428,76.407,107.311,81.406,116.343,86.292C118.218,87.314,120.036,89.416,121.854,91.291C123.217,92.711,124.467,94.075,125.774,95.154C128.16,97.085,130.432,98.733,132.704,100.38C138.215,104.414,143.043,107.822,145.316,113.105C147.247,117.65,147.304,122.422,145.6,126.796C144.066,130.602,141.055,134.068,137.419,136.454C137.817,134.522,138.272,131.739,135.658,130.034C134.465,129.296,128.5,127.876,124.467,127.421C122.536,127.251,100.892,126.228,70.897,142.419C79.873,130.375,86.349,128.387,86.349,128.387C86.065,126.967,37.778,146.509,37.778,146.509C37.778,146.509,54.479,199.965,118.9,194.285C160.881,190.592,192.126,159.859,194.853,118.9C196.443,95.552,188.831,73.567,173.493,57.149M160.086,132.818C166.164,119.411,163.154,104.868,152.814,93.336C149.974,90.155,146.395,87.939,142.987,85.894C140.771,84.531,138.442,83.111,136.397,81.406C135.431,80.611,134.636,79.532,133.784,78.452C132.761,77.032,131.568,75.385,129.864,74.249C120.377,67.318,109.129,64.875,98.108,61.637C92.882,60.103,87.826,58.967,83.054,57.263C89.019,53.173,96.574,50.446,104.868,49.707C107.481,49.423,110.038,49.31,112.651,49.31C137.135,49.31,158.382,61.58,169.743,82.258C181.048,102.88,180.366,127.932,167.812,147.702C154.916,167.982,132.079,178.719,106.232,176.56C90.78,175.311,74.248,167.13,69.193,158.382C72.317,156.45,100.551,141.51,119.922,147.531C125.433,147.531,116.628,160.995,116.628,160.995C116.628,160.995,148.611,158.154,160.086,132.818"/>
  <path x="0px" xmlns:xlink="http://www.w3.org/1999/xlink" xml:space="preserve" fill-opacity="1" stroke-miterlimit="4" stroke="none" version="1.1" stroke-linecap="butt" stroke-opacity="1" stroke-dasharray="none" y="0px" stroke-linejoin="miter" fill-rule="nonzero" fill="#e03a3e" stroke-width="1px" d="M112.31,92.2C101.971,92.598,92.37,80.1,84.417,88.337C85.951,88.735,89.132,87.542,89.587,88.962C85.497,105.095,112.083,109.299,112.31,92.2"/>
</g>
  <g id="Semibold-L" transform="matrix(1.0,0.0,0.0,1.0,1930.9333129882812,1407.1533325195312)">  <path stroke-miterlimit="4" xmlns:xlink="http://www.w3.org/1999/xlink" stroke-dasharray="none" stroke-opacity="1" stroke-linecap="butt" stroke="none" stroke-width="1px" fill-rule="nonzero" version="1.1" fill="#ffffff" stroke-linejoin="miter" x="0px" fill-opacity="1" y="0px" xml:space="preserve" d="M177.753,53.229C161.393,35.732,137.59,25.734,112.424,25.734C110.265,25.734,108.106,25.791,106.004,26.018C65.386,28.745,45.788,57.66,43.742,60.842C40.675,64.648,14.941,99.471,32.21,147.531L32.551,148.554C32.722,149.065,49.537,200.533,109.64,200.533L109.64,200.533C112.821,200.533,116.173,200.363,119.525,200.079C164.46,196.159,197.807,162.983,200.647,119.468C202.408,94.415,194.285,70.897,177.753,53.229"/>
  <path fill="#e03a3e" stroke-linejoin="miter" xml:space="preserve" x="0px" stroke-linecap="butt" xmlns:xlink="http://www.w3.org/1999/xlink" stroke-width="1px" stroke-opacity="1" fill-opacity="1" fill-rule="nonzero" version="1.1" y="0px" stroke-miterlimit="4" stroke="none" stroke-dasharray="none" d="M173.493,57.149C156.621,39.141,131.739,29.881,106.288,31.642C65.898,34.369,47.946,64.421,47.946,64.421C47.946,64.421,79.986,74.135,84.36,75.498C87.428,76.407,107.311,81.406,116.343,86.292C118.218,87.314,120.036,89.416,121.854,91.291C123.217,92.711,124.467,94.075,125.774,95.154C128.16,97.085,130.432,98.733,132.704,100.38C138.215,104.414,143.043,107.822,145.316,113.105C147.247,117.65,147.304,122.422,145.6,126.796C144.066,130.602,141.055,134.068,137.419,136.454C137.817,134.522,138.272,131.739,135.658,130.034C134.465,129.296,128.5,127.876,124.467,127.421C122.536,127.251,100.892,126.228,70.897,142.419C79.873,130.375,86.349,128.387,86.349,128.387C86.065,126.967,37.778,146.509,37.778,146.509C37.778,146.509,54.479,199.965,118.9,194.285C160.881,190.592,192.126,159.859,194.853,118.9C196.443,95.552,188.831,73.567,173.493,57.149M160.086,132.818C166.164,119.411,163.154,104.868,152.814,93.336C149.974,90.155,146.395,87.939,142.987,85.894C140.771,84.531,138.442,83.111,136.397,81.406C135.431,80.611,134.636,79.532,133.784,78.452C132.761,77.032,131.568,75.385,129.864,74.249C120.377,67.318,109.129,64.875,98.108,61.637C92.882,60.103,87.826,58.967,83.054,57.263C89.019,53.173,96.574,50.446,104.868,49.707C107.481,49.423,110.038,49.31,112.651,49.31C137.135,49.31,158.382,61.58,169.743,82.258C181.048,102.88,180.366,127.932,167.812,147.702C154.916,167.982,132.079,178.719,106.232,176.56C90.78,175.311,74.248,167.13,69.193,158.382C72.317,156.45,100.551,141.51,119.922,147.531C125.433,147.531,116.628,160.995,116.628,160.995C116.628,160.995,148.611,158.154,160.086,132.818"/>
  <path fill-opacity="1" xml:space="preserve" stroke-linejoin="miter" x="0px" version="1.1" stroke-opacity="1" fill="#e03a3e" y="0px" xmlns:xlink="http://www.w3.org/1999/xlink" stroke-dasharray="none" stroke-miterlimit="4" stroke="none" stroke-linecap="butt" fill-rule="nonzero" stroke-width="1px" d="M112.31,92.2C101.971,92.598,92.37,80.1,84.417,88.337C85.951,88.735,89.132,87.542,89.587,88.962C85.497,105.095,112.083,109.299,112.31,92.2"/>
</g>
  <g id="Medium-L" transform="matrix(1.0,0.0,0.0,1.0,1634.2233129882811,1407.1533325195312)">  <path fill-opacity="1" stroke-opacity="1" fill-rule="nonzero" version="1.1" xml:space="preserve" stroke-miterlimit="4" x="0px" stroke-dasharray="none" xmlns:xlink="http://www.w3.org/1999/xlink" stroke-width="1px" fill="#ffffff" stroke-linejoin="miter" y="0px" stroke-linecap="butt" stroke="none" d="M177.753,53.229C161.393,35.732,137.59,25.734,112.424,25.734C110.265,25.734,108.106,25.791,106.004,26.018C65.386,28.745,45.788,57.66,43.742,60.842C40.675,64.648,14.941,99.471,32.21,147.531L32.551,148.554C32.722,149.065,49.537,200.533,109.64,200.533L109.64,200.533C112.821,200.533,116.173,200.363,119.525,200.079C164.46,196.159,197.807,162.983,200.647,119.468C202.408,94.415,194.285,70.897,177.753,53.229"/>
  <path fill-rule="nonzero" stroke="none" version="1.1" stroke-opacity="1" x="0px" y="0px" stroke-miterlimit="4" stroke-linejoin="miter" xmlns:xlink="http://www.w3.org/1999/xlink" stroke-width="1px" stroke-dasharray="none" xml:space="preserve" fill-opacity="1" stroke-linecap="butt" fill="#e03a3e" d="M173.493,57.149C156.621,39.141,131.739,29.881,106.288,31.642C65.898,34.369,47.946,64.421,47.946,64.421C47.946,64.421,79.986,74.135,84.36,75.498C87.428,76.407,107.311,81.406,116.343,86.292C118.218,87.314,120.036,89.416,121.854,91.291C123.217,92.711,124.467,94.075,125.774,95.154C128.16,97.085,130.432,98.733,132.704,100.38C138.215,104.414,143.043,107.822,145.316,113.105C147.247,117.65,147.304,122.422,145.6,126.796C144.066,130.602,141.055,134.068,137.419,136.454C137.817,134.522,138.272,131.739,135.658,130.034C134.465,129.296,128.5,127.876,124.467,127.421C122.536,127.251,100.892,126.228,70.897,142.419C79.873,130.375,86.349,128.387,86.349,128.387C86.065,126.967,37.778,146.509,37.778,146.509C37.778,146.509,54.479,199.965,118.9,194.285C160.881,190.592,192.126,159.859,194.853,118.9C196.443,95.552,188.831,73.567,173.493,57.149M160.086,132.818C166.164,119.411,163.154,104.868,152.814,93.336C149.974,90.155,146.395,87.939,142.987,85.894C140.771,84.531,138.442,83.111,136.397,81.406C135.431,80.611,134.636,79.532,133.784,78.452C132.761,77.032,131.568,75.385,129.864,74.249C120.377,67.318,109.129,64.875,98.108,61.637C92.882,60.103,87.826,58.967,83.054,57.263C89.019,53.173,96.574,50.446,104.868,49.707C107.481,49.423,110.038,49.31,112.651,49.31C137.135,49.31,158.382,61.58,169.743,82.258C181.048,102.88,180.366,127.932,167.812,147.702C154.916,167.982,132.079,178.719,106.232,176.56C90.78,175.311,74.248,167.13,69.193,158.382C72.317,156.45,100.551,141.51,119.922,147.531C125.433,147.531,116.628,160.995,116.628,160.995C116.628,160.995,148.611,158.154,160.086,132.818"/>
  <path stroke-width="1px" stroke-linejoin="miter" stroke="none" stroke-linecap="butt" fill="#e03a3e" fill-rule="nonzero" xmlns:xlink="http://www.w3.org/1999/xlink" stroke-dasharray="none" xml:space="preserve" x="0px" fill-opacity="1" stroke-opacity="1" stroke-miterlimit="4" version="1.1" y="0px" d="M112.31,92.2C101.971,92.598,92.37,80.1,84.417,88.337C85.951,88.735,89.132,87.542,89.587,88.962C85.497,105.095,112.083,109.299,112.31,92.2"/>
</g>
  <g id="Regular-L" transform="matrix(1.0,0.0,0.0,1.0,1337.513312988281,1407.1533325195312)">  <path version="1.1" y="0px" stroke-opacity="1" stroke-linejoin="miter" stroke-miterlimit="4" stroke="none" xmlns:xlink="http://www.w3.org/1999/xlink" fill-rule="nonzero" stroke-linecap="butt" stroke-dasharray="none" fill="#ffffff" xml:space="preserve" stroke-width="1px" fill-opacity="1" x="0px" d="M177.753,53.229C161.393,35.732,137.59,25.734,112.424,25.734C110.265,25.734,108.106,25.791,106.004,26.018C65.386,28.745,45.788,57.66,43.742,60.842C40.675,64.648,14.941,99.471,32.21,147.531L32.551,148.554C32.722,149.065,49.537,200.533,109.64,200.533L109.64,200.533C112.821,200.533,116.173,200.363,119.525,200.079C164.46,196.159,197.807,162.983,200.647,119.468C202.408,94.415,194.285,70.897,177.753,53.229"/>
  <path stroke-width="1px" fill-rule="nonzero" stroke="none" stroke-miterlimit="4" stroke-dasharray="none" x="0px" fill="#e03a3e" fill-opacity="1" xmlns:xlink="http://www.w3.org/1999/xlink" version="1.1" stroke-linejoin="miter" y="0px" stroke-linecap="butt" xml:space="preserve" stroke-opacity="1" d="M173.493,57.149C156.621,39.141,131.739,29.881,106.288,31.642C65.898,34.369,47.946,64.421,47.946,64.421C47.946,64.421,79.986,74.135,84.36,75.498C87.428,76.407,107.311,81.406,116.343,86.292C118.218,87.314,120.036,89.416,121.854,91.291C123.217,92.711,124.467,94.075,125.774,95.154C128.16,97.085,130.432,98.733,132.704,100.38C138.215,104.414,143.043,107.822,145.316,113.105C147.247,117.65,147.304,122.422,145.6,126.796C144.066,130.602,141.055,134.068,137.419,136.454C137.817,134.522,138.272,131.739,135.658,130.034C134.465,129.296,128.5,127.876,124.467,127.421C122.536,127.251,100.892,126.228,70.897,142.419C79.873,130.375,86.349,128.387,86.349,128.387C86.065,126.967,37.778,146.509,37.778,146.509C37.778,146.509,54.479,199.965,118.9,194.285C160.881,190.592,192.126,159.859,194.853,118.9C196.443,95.552,188.831,73.567,173.493,57.149M160.086,132.818C166.164,119.411,163.154,104.868,152.814,93.336C149.974,90.155,146.395,87.939,142.987,85.894C140.771,84.531,138.442,83.111,136.397,81.406C135.431,80.611,134.636,79.532,133.784,78.452C132.761,77.032,131.568,75.385,129.864,74.249C120.377,67.318,109.129,64.875,98.108,61.637C92.882,60.103,87.826,58.967,83.054,57.263C89.019,53.173,96.574,50.446,104.868,49.707C107.481,49.423,110.038,49.31,112.651,49.31C137.135,49.31,158.382,61.58,169.743,82.258C181.048,102.88,180.366,127.932,167.812,147.702C154.916,167.982,132.079,178.719,106.232,176.56C90.78,175.311,74.248,167.13,69.193,158.382C72.317,156.45,100.551,141.51,119.922,147.531C125.433,147.531,116.628,160.995,116.628,160.995C116.628,160.995,148.611,158.154,160.086,132.818"/>
  <path version="1.1" xml:space="preserve" stroke-dasharray="none" xmlns:xlink="http://www.w3.org/1999/xlink" stroke-opacity="1" stroke-linecap="butt" fill-rule="nonzero" stroke-linejoin="miter" fill="#e03a3e" stroke-miterlimit="4" fill-opacity="1" stroke-width="1px" y="0px" x="0px" stroke="none" d="M112.31,92.2C101.971,92.598,92.37,80.1,84.417,88.337C85.951,88.735,89.132,87.542,89.587,88.962C85.497,105.095,112.083,109.299,112.31,92.2"/>
</g>
  <g id="Light-L" transform="matrix(1.0,0.0,0.0,1.0,1040.8033129882813,1407.1533325195312)">  <path xmlns:xlink="http://www.w3.org/1999/xlink" stroke="none" fill-opacity="1" y="0px" stroke-linecap="butt" stroke-dasharray="none" version="1.1" x="0px" xml:space="preserve" stroke-opacity="1" stroke-miterlimit="4" stroke-width="1px" stroke-linejoin="miter" fill-rule="nonzero" fill="#ffffff" d="M177.753,53.229C161.393,35.732,137.59,25.734,112.424,25.734C110.265,25.734,108.106,25.791,106.004,26.018C65.386,28.745,45.788,57.66,43.742,60.842C40.675,64.648,14.941,99.471,32.21,147.531L32.551,148.554C32.722,149.065,49.537,200.533,109.64,200.533L109.64,200.533C112.821,200.533,116.173,200.363,119.525,200.079C164.46,196.159,197.807,162.983,200.647,119.468C202.408,94.415,194.285,70.897,177.753,53.229"/>
  <path stroke-opacity="1" stroke-dasharray="none" x="0px" stroke-miterlimit="4" xml:space="preserve" xmlns:xlink="http://www.w3.org/1999/xlink" y="0px" stroke-linejoin="miter" fill-rule="nonzero" version="1.1" stroke="none" fill-opacity="1" stroke-linecap="butt" stroke-width="1px" fill="#e03a3e" d="M173.493,57.149C156.621,39.141,131.739,29.881,106.288,31.642C65.898,34.369,47.946,64.421,47.946,64.421C47.946,64.421,79.986,74.135,84.36,75.498C87.428,76.407,107.311,81.406,116.343,86.292C118.218,87.314,120.036,89.416,121.854,91.291C123.217,92.711,124.467,94.075,125.774,95.154C128.16,97.085,130.432,98.733,132.704,100.38C138.215,104.414,143.043,107.822,145.316,113.105C147.247,117.65,147.304,122.422,145.6,126.796C144.066,130.602,141.055,134.068,137.419,136.454C137.817,134.522,138.272,131.739,135.658,130.034C134.465,129.296,128.5,127.876,124.467,127.421C122.536,127.251,100.892,126.228,70.897,142.419C79.873,130.375,86.349,128.387,86.349,128.387C86.065,126.967,37.778,146.509,37.778,146.509C37.778,146.509,54.479,199.965,118.9,194.285C160.881,190.592,192.126,159.859,194.853,118.9C196.443,95.552,188.831,73.567,173.493,57.149M160.086,132.818C166.164,119.411,163.154,104.868,152.814,93.336C149.974,90.155,146.395,87.939,142.987,85.894C140.771,84.531,138.442,83.111,136.397,81.406C135.431,80.611,134.636,79.532,133.784,78.452C132.761,77.032,131.568,75.385,129.864,74.249C120.377,67.318,109.129,64.875,98.108,61.637C92.882,60.103,87.826,58.967,83.054,57.263C89.019,53.173,96.574,50.446,104.868,49.707C107.481,49.423,110.038,49.31,112.651,49.31C137.135,49.31,158.382,61.58,169.743,82.258C181.048,102.88,180.366,127.932,167.812,147.702C154.916,167.982,132.079,178.719,106.232,176.56C90.78,175.311,74.248,167.13,69.193,158.382C72.317,156.45,100.551,141.51,119.922,147.531C125.433,147.531,116.628,160.995,116.628,160.995C116.628,160.995,148.611,158.154,160.086,132.818"/>
  <path stroke-miterlimit="4" stroke="none" stroke-width="1px" xmlns:xlink="http://www.w3.org/1999/xlink" stroke-linecap="butt" stroke-opacity="1" version="1.1" fill-opacity="1" fill="#e03a3e" stroke-linejoin="miter" stroke-dasharray="none" y="0px" xml:space="preserve" fill-rule="nonzero" x="0px" d="M112.31,92.2C101.971,92.598,92.37,80.1,84.417,88.337C85.951,88.735,89.132,87.542,89.587,88.962C85.497,105.095,112.083,109.299,112.31,92.2"/>
</g>
  <g id="Thin-L" transform="matrix(1.0,0.0,0.0,1.0,744.0933129882812,1407.1533325195312)">  <path xml:space="preserve" xmlns:xlink="http://www.w3.org/1999/xlink" stroke-linejoin="miter" stroke-opacity="1" y="0px" stroke-dasharray="none" fill-opacity="1" stroke-linecap="butt" fill="#ffffff" x="0px" stroke="none" stroke-width="1px" stroke-miterlimit="4" version="1.1" fill-rule="nonzero" d="M177.753,53.229C161.393,35.732,137.59,25.734,112.424,25.734C110.265,25.734,108.106,25.791,106.004,26.018C65.386,28.745,45.788,57.66,43.742,60.842C40.675,64.648,14.941,99.471,32.21,147.531L32.551,148.554C32.722,149.065,49.537,200.533,109.64,200.533L109.64,200.533C112.821,200.533,116.173,200.363,119.525,200.079C164.46,196.159,197.807,162.983,200.647,119.468C202.408,94.415,194.285,70.897,177.753,53.229"/>
  <path stroke-miterlimit="4" fill="#e03a3e" xmlns:xlink="http://www.w3.org/1999/xlink" stroke="none" fill-rule="nonzero" xml:space="preserve" stroke-linecap="butt" stroke-width="1px" stroke-opacity="1" version="1.1" fill-opacity="1" stroke-dasharray="none" stroke-linejoin="miter" x="0px" y="0px" d="M173.493,57.149C156.621,39.141,131.739,29.881,106.288,31.642C65.898,34.369,47.946,64.421,47.946,64.421C47.946,64.421,79.986,74.135,84.36,75.498C87.428,76.407,107.311,81.406,116.343,86.292C118.218,87.314,120.036,89.416,121.854,91.291C123.217,92.711,124.467,94.075,125.774,95.154C128.16,97.085,130.432,98.733,132.704,100.38C138.215,104.414,143.043,107.822,145.316,113.105C147.247,117.65,147.304,122.422,145.6,126.796C144.066,130.602,141.055,134.068,137.419,136.454C137.817,134.522,138.272,131.739,135.658,130.034C134.465,129.296,128.5,127.876,124.467,127.421C122.536,127.251,100.892,126.228,70.897,142.419C79.873,130.375,86.349,128.387,86.349,128.387C86.065,126.967,37.778,146.509,37.778,146.509C37.778,146.509,54.479,199.965,118.9,194.285C160.881,190.592,192.126,159.859,194.853,118.9C196.443,95.552,188.831,73.567,173.493,57.149M160.086,132.818C166.164,119.411,163.154,104.868,152.814,93.336C149.974,90.155,146.395,87.939,142.987,85.894C140.771,84.531,138.442,83.111,136.397,81.406C135.431,80.611,134.636,79.532,133.784,78.452C132.761,77.032,131.568,75.385,129.864,74.249C120.377,67.318,109.129,64.875,98.108,61.637C92.882,60.103,87.826,58.967,83.054,57.263C89.019,53.173,96.574,50.446,104.868,49.707C107.481,49.423,110.038,49.31,112.651,49.31C137.135,49.31,158.382,61.58,169.743,82.258C181.048,102.88,180.366,127.932,167.812,147.702C154.916,167.982,132.079,178.719,106.232,176.56C90.78,175.311,74.248,167.13,69.193,158.382C72.317,156.45,100.551,141.51,119.922,147.531C125.433,147.531,116.628,160.995,116.628,160.995C116.628,160.995,148.611,158.154,160.086,132.818"/>
  <path stroke="none" fill-opacity="1" xmlns:xlink="http://www.w3.org/1999/xlink" x="0px" fill="#e03a3e" stroke-dasharray="none" stroke-opacity="1" fill-rule="nonzero" version="1.1" xml:space="preserve" y="0px" stroke-linejoin="miter" stroke-width="1px" stroke-miterlimit="4" stroke-linecap="butt" d="M112.31,92.2C101.971,92.598,92.37,80.1,84.417,88.337C85.951,88.735,89.132,87.542,89.587,88.962C85.497,105.095,112.083,109.299,112.31,92.2"/>
</g>
  <g id="Ultralight-L" transform="matrix(1.0,0.0,0.0,1.0,447.38331298828126,1407.1533325195312)">  <path y="0px" version="1.1" fill-rule="nonzero" stroke-linejoin="miter" stroke-opacity="1" stroke-miterlimit="4" stroke-dasharray="none" stroke-linecap="butt" fill-opacity="1" xmlns:xlink="http://www.w3.org/1999/xlink" stroke-width="1px" fill="#ffffff" stroke="none" xml:space="preserve" x="0px" d="M177.753,53.229C161.393,35.732,137.59,25.734,112.424,25.734C110.265,25.734,108.106,25.791,106.004,26.018C65.386,28.745,45.788,57.66,43.742,60.842C40.675,64.648,14.941,99.471,32.21,147.531L32.551,148.554C32.722,149.065,49.537,200.533,109.64,200.533L109.64,200.533C112.821,200.533,116.173,200.363,119.525,200.079C164.46,196.159,197.807,162.983,200.647,119.468C202.408,94.415,194.285,70.897,177.753,53.229"/>
  <path version="1.1" fill-rule="nonzero" stroke-miterlimit="4" fill="#e03a3e" fill-opacity="1" stroke-width="1px" stroke-opacity="1" y="0px" stroke="none" x="0px" stroke-linecap="butt" xmlns:xlink="http://www.w3.org/1999/xlink" stroke-dasharray="none" stroke-linejoin="miter" xml:space="preserve" d="M173.493,57.149C156.621,39.141,131.739,29.881,106.288,31.642C65.898,34.369,47.946,64.421,47.946,64.421C47.946,64.421,79.986,74.135,84.36,75.498C87.428,76.407,107.311,81.406,116.343,86.292C118.218,87.314,120.036,89.416,121.854,91.291C123.217,92.711,124.467,94.075,125.774,95.154C128.16,97.085,130.432,98.733,132.704,100.38C138.215,104.414,143.043,107.822,145.316,113.105C147.247,117.65,147.304,122.422,145.6,126.796C144.066,130.602,141.055,134.068,137.419,136.454C137.817,134.522,138.272,131.739,135.658,130.034C134.465,129.296,128.5,127.876,124.467,127.421C122.536,127.251,100.892,126.228,70.897,142.419C79.873,130.375,86.349,128.387,86.349,128.387C86.065,126.967,37.778,146.509,37.778,146.509C37.778,146.509,54.479,199.965,118.9,194.285C160.881,190.592,192.126,159.859,194.853,118.9C196.443,95.552,188.831,73.567,173.493,57.149M160.086,132.818C166.164,119.411,163.154,104.868,152.814,93.336C149.974,90.155,146.395,87.939,142.987,85.894C140.771,84.531,138.442,83.111,136.397,81.406C135.431,80.611,134.636,79.532,133.784,78.452C132.761,77.032,131.568,75.385,129.864,74.249C120.377,67.318,109.129,64.875,98.108,61.637C92.882,60.103,87.826,58.967,83.054,57.263C89.019,53.173,96.574,50.446,104.868,49.707C107.481,49.423,110.038,49.31,112.651,49.31C137.135,49.31,158.382,61.58,169.743,82.258C181.048,102.88,180.366,127.932,167.812,147.702C154.916,167.982,132.079,178.719,106.232,176.56C90.78,175.311,74.248,167.13,69.193,158.382C72.317,156.45,100.551,141.51,119.922,147.531C125.433,147.531,116.628,160.995,116.628,160.995C116.628,160.995,148.611,158.154,160.086,132.818"/>
  <path stroke-opacity="1" stroke-dasharray="none" x="0px" stroke-linecap="butt" fill="#e03a3e" stroke-miterlimit="4" fill-rule="nonzero" fill-opacity="1" stroke-linejoin="miter" y="0px" xmlns:xlink="http://www.w3.org/1999/xlink" stroke="none" version="1.1" stroke-width="1px" xml:space="preserve" d="M112.31,92.2C101.971,92.598,92.37,80.1,84.417,88.337C85.951,88.735,89.132,87.542,89.587,88.962C85.497,105.095,112.083,109.299,112.31,92.2"/>
</g>
  <g id="Black-M" transform="matrix(1.0,0.0,0.0,1.0,2846.605048828125,1002.695068359375)">  <path xml:space="preserve" stroke-dasharray="none" y="0px" fill-opacity="1" fill="#ffffff" x="0px" version="1.1" fill-rule="nonzero" stroke-width="1px" stroke-linecap="butt" stroke-linejoin="miter" stroke-miterlimit="4" stroke-opacity="1" xmlns:xlink="http://www.w3.org/1999/xlink" stroke="none" d="M137.793,41.263C125.11,27.7,106.659,19.949,87.15,19.949C85.477,19.949,83.803,19.993,82.174,20.169C50.687,22.283,35.494,44.698,33.909,47.164C31.531,50.115,11.582,77.11,24.969,114.365L25.233,115.158C25.366,115.554,38.401,155.452,84.992,155.452L84.992,155.452C87.458,155.452,90.057,155.32,92.655,155.1C127.488,152.061,153.338,126.344,155.54,92.611C156.906,73.19,150.608,54.959,137.793,41.263"/>
  <path xml:space="preserve" stroke-linejoin="miter" xmlns:xlink="http://www.w3.org/1999/xlink" stroke-opacity="1" stroke-dasharray="none" fill-opacity="1" fill-rule="nonzero" stroke-linecap="butt" stroke="none" y="0px" stroke-miterlimit="4" stroke-width="1px" fill="#e03a3e" version="1.1" x="0px" d="M134.49,44.302C121.411,30.342,102.123,23.164,82.394,24.529C51.083,26.643,37.168,49.938,37.168,49.938C37.168,49.938,62.005,57.469,65.396,58.526C67.774,59.23,83.187,63.106,90.189,66.893C91.642,67.686,93.051,69.315,94.46,70.768C95.517,71.869,96.486,72.926,97.499,73.763C99.349,75.26,101.11,76.537,102.872,77.814C107.143,80.941,110.886,83.583,112.648,87.679C114.145,91.202,114.189,94.901,112.868,98.292C111.679,101.242,109.345,103.928,106.527,105.778C106.835,104.281,107.187,102.123,105.161,100.802C104.237,100.229,99.613,99.128,96.486,98.776C94.989,98.644,78.211,97.851,54.959,110.402C61.917,101.066,66.937,99.525,66.937,99.525C66.717,98.424,29.285,113.573,29.285,113.573C29.285,113.573,42.232,155.012,92.17,150.608C124.714,147.746,148.935,123.921,151.049,92.17C152.282,74.071,146.381,57.029,134.49,44.302M124.098,102.96C128.81,92.567,126.476,81.293,118.461,72.354C116.259,69.887,113.485,68.17,110.842,66.585C109.125,65.528,107.319,64.427,105.734,63.106C104.985,62.489,104.369,61.652,103.708,60.816C102.916,59.715,101.991,58.438,100.67,57.557C93.315,52.184,84.596,50.291,76.053,47.781C72.001,46.592,68.082,45.711,64.383,44.39C69.007,41.219,74.864,39.105,81.293,38.533C83.319,38.313,85.301,38.225,87.326,38.225C106.306,38.225,122.776,47.737,131.584,63.766C140.347,79.752,139.819,99.172,130.087,114.497C120.09,130.219,102.387,138.542,82.35,136.868C70.372,135.9,57.557,129.558,53.638,122.776C56.06,121.279,77.946,109.697,92.963,114.365C97.235,114.365,90.409,124.802,90.409,124.802C90.409,124.802,115.202,122.6,124.098,102.96"/>
  <path x="0px" xmlns:xlink="http://www.w3.org/1999/xlink" y="0px" fill-opacity="1" stroke-miterlimit="4" stroke-dasharray="none" stroke-opacity="1" fill="#e03a3e" stroke-width="1px" xml:space="preserve" version="1.1" stroke-linecap="butt" stroke-linejoin="miter" stroke="none" fill-rule="nonzero" d="M87.062,71.473C79.047,71.781,71.605,62.093,65.44,68.478C66.629,68.787,69.095,67.862,69.447,68.963C66.276,81.469,86.886,84.728,87.062,71.473"/>
</g>
  <g id="Heavy-M" transform="matrix(1.0,0.0,0.0,1.0,2549.895048828125,1002.695068359375)">  <path xmlns:xlink="http://www.w3.org/1999/xlink" stroke-opacity="1" stroke="none" stroke-width="1px" xml:space="preserve" version="1.1" fill="#ffffff" fill-opacity="1" stroke-linecap="butt" stroke-miterlimit="4" x="0px" stroke-linejoin="miter" y="0px" stroke-dasharray="none" fill-rule="nonzero" d="M137.793,41.263C125.11,27.7,106.659,19.949,87.15,19.949C85.477,19.949,83.803,19.993,82.174,20.169C50.687,22.283,35.494,44.698,33.909,47.164C31.531,50.115,11.582,77.11,24.969,114.365L25.233,115.158C25.366,115.554,38.401,155.452,84.992,155.452L84.992,155.452C87.458,155.452,90.057,155.32,92.655,155.1C127.488,152.061,153.338,126.344,155.54,92.611C156.906,73.19,150.608,54.959,137.793,41.263"/>
  <path stroke-miterlimit="4" fill-rule="nonzero" stroke-opacity="1" version="1.1" y="0px" stroke-linecap="butt" fill-opacity="1" xml:space="preserve" fill="#e03a3e" xmlns:xlink="http://www.w3.org/1999/xlink" x="0px" stroke-width="1px" stroke="none" stroke-dasharray="none" stroke-linejoin="miter" d="M134.49,44.302C121.411,30.342,102.123,23.164,82.394,24.529C51.083,26.643,37.168,49.938,37.168,49.938C37.168,49.938,62.005,57.469,65.396,58.526C67.774,59.23,83.187,63.106,90.189,66.893C91.642,67.686,93.051,69.315,94.46,70.768C95.517,71.869,96.486,72.926,97.499,73.763C99.349,75.26,101.11,76.537,102.872,77.814C107.143,80.941,110.886,83.583,112.648,87.679C114.145,91.202,114.189,94.901,112.868,98.292C111.679,101.242,109.345,103.928,106.527,105.778C106.835,104.281,107.187,102.123,105.161,100.802C104.237,100.229,99.613,99.128,96.486,98.776C94.989,98.644,78.211,97.851,54.959,110.402C61.917,101.066,66.937,99.525,66.937,99.525C66.717,98.424,29.285,113.573,29.285,113.573C29.285,113.573,42.232,155.012,92.17,150.608C124.714,147.746,148.935,123.921,151.049,92.17C152.282,74.071,146.381,57.029,134.49,44.302M124.098,102.96C128.81,92.567,126.476,81.293,118.461,72.354C116.259,69.887,113.485,68.17,110.842,66.585C109.125,65.528,107.319,64.427,105.734,63.106C104.985,62.489,104.369,61.652,103.708,60.816C102.916,59.715,101.991,58.438,100.67,57.557C93.315,52.184,84.596,50.291,76.053,47.781C72.001,46.592,68.082,45.711,64.383,44.39C69.007,41.219,74.864,39.105,81.293,38.533C83.319,38.313,85.301,38.225,87.326,38.225C106.306,38.225,122.776,47.737,131.584,63.766C140.347,79.752,139.819,99.172,130.087,114.497C120.09,130.219,102.387,138.542,82.35,136.868C70.372,135.9,57.557,129.558,53.638,122.776C56.06,121.279,77.946,109.697,92.963,114.365C97.235,114.365,90.409,124.802,90.409,124.802C90.409,124.802,115.202,122.6,124.098,102.96"/>
  <path stroke-opacity="1" fill-rule="nonzero" stroke-linejoin="miter" stroke="none" xml:space="preserve" stroke-width="1px" fill-opacity="1" x="0px" stroke-miterlimit="4" fill="#e03a3e" y="0px" version="1.1" stroke-linecap="butt" stroke-dasharray="none" xmlns:xlink="http://www.w3.org/1999/xlink" d="M87.062,71.473C79.047,71.781,71.605,62.093,65.44,68.478C66.629,68.787,69.095,67.862,69.447,68.963C66.276,81.469,86.886,84.728,87.062,71.473"/>
</g>
  <g id="Bold-M" transform="matrix(1.0,0.0,0.0,1.0,2253.1850488281248,1002.695068359375)">  <path fill="#ffffff" xmlns:xlink="http://www.w3.org/1999/xlink" stroke-linecap="butt" stroke-miterlimit="4" stroke-dasharray="none" x="0px" version="1.1" stroke-linejoin="miter" stroke-width="1px" xml:space="preserve" stroke="none" fill-opacity="1" stroke-opacity="1" fill-rule="nonzero" y="0px" d="M137.793,41.263C125.11,27.7,106.659,19.949,87.15,19.949C85.477,19.949,83.803,19.993,82.174,20.169C50.687,22.283,35.494,44.698,33.909,47.164C31.531,50.115,11.582,77.11,24.969,114.365L25.233,115.158C25.366,115.554,38.401,155.452,84.992,155.452L84.992,155.452C87.458,155.452,90.057,155.32,92.655,155.1C127.488,152.061,153.338,126.344,155.54,92.611C156.906,73.19,150.608,54.959,137.793,41.263"/>
  <path stroke="none" xml:space="preserve" y="0px" version="1.1" stroke-opacity="1" stroke-miterlimit="4" fill-opacity="1" fill="#e03a3e" xmlns:xlink="http://www.w3.org/1999/xlink" stroke-dasharray="none" fill-rule="nonzero" x="0px" stroke-linejoin="miter" stroke-linecap="butt" stroke-width="1px" d="M134.49,44.302C121.411,30.342,102.123,23.164,82.394,24.529C51.083,26.643,37.168,49.938,37.168,49.938C37.168,49.938,62.005,57.469,65.396,58.526C67.774,59.23,83.187,63.106,90.189,66.893C91.642,67.686,93.051,69.315,94.46,70.768C95.517,71.869,96.486,72.926,97.499,73.763C99.349,75.26,101.11,76.537,102.872,77.814C107.143,80.941,110.886,83.583,112.648,87.679C114.145,91.202,114.189,94.901,112.868,98.292C111.679,101.242,109.345,103.928,106.527,105.778C106.835,104.281,107.187,102.123,105.161,100.802C104.237,100.229,99.613,99.128,96.486,98.776C94.989,98.644,78.211,97.851,54.959,110.402C61.917,101.066,66.937,99.525,66.937,99.525C66.717,98.424,29.285,113.573,29.285,113.573C29.285,113.573,42.232,155.012,92.17,150.608C124.714,147.746,148.935,123.921,151.049,92.17C152.282,74.071,146.381,57.029,134.49,44.302M124.098,102.96C128.81,92.567,126.476,81.293,118.461,72.354C116.259,69.887,113.485,68.17,110.842,66.585C109.125,65.528,107.319,64.427,105.734,63.106C104.985,62.489,104.369,61.652,103.708,60.816C102.916,59.715,101.991,58.438,100.67,57.557C93.315,52.184,84.596,50.291,76.053,47.781C72.001,46.592,68.082,45.711,64.383,44.39C69.007,41.219,74.864,39.105,81.293,38.533C83.319,38.313,85.301,38.225,87.326,38.225C106.306,38.225,122.776,47.737,131.584,63.766C140.347,79.752,139.819,99.172,130.087,114.497C120.09,130.219,102.387,138.542,82.35,136.868C70.372,135.9,57.557,129.558,53.638,122.776C56.06,121.279,77.946,109.697,92.963,114.365C97.235,114.365,90.409,124.802,90.409,124.802C90.409,124.802,115.202,122.6,124.098,102.96"/>
  <path x="0px" xmlns:xlink="http://www.w3.org/1999/xlink" xml:space="preserve" fill-opacity="1" stroke-miterlimit="4" stroke="none" version="1.1" stroke-linecap="butt" stroke-opacity="1" stroke-dasharray="none" y="0px" stroke-linejoin="miter" fill-rule="nonzero" fill="#e03a3e" stroke-width="1px" d="M87.062,71.473C79.047,71.781,71.605,62.093,65.44,68.478C66.629,68.787,69.095,67.862,69.447,68.963C66.276,81.469,86.886,84.728,87.062,71.473"/>
</g>
  <g id="Semibold-M" transform="matrix(1.0,0.0,0.0,1.0,1956.475048828125,1002.695068359375)">  <path stroke-miterlimit="4" xmlns:xlink="http://www.w3.org/1999/xlink" stroke-dasharray="none" stroke-opacity="1" stroke-linecap="butt" stroke="none" stroke-width="1px" fill-rule="nonzero" version="1.1" fill="#ffffff" stroke-linejoin="miter" x="0px" fill-opacity="1" y="0px" xml:space="preserve" d="M137.793,41.263C125.11,27.7,106.659,19.949,87.15,19.949C85.477,19.949,83.803,19.993,82.174,20.169C50.687,22.283,35.494,44.698,33.909,47.164C31.531,50.115,11.582,77.11,24.969,114.365L25.233,115.158C25.366,115.554,38.401,155.452,84.992,155.452L84.992,155.452C87.458,155.452,90.057,155.32,92.655,155.1C127.488,152.061,153.338,126.344,155.54,92.611C156.906,73.19,150.608,54.959,137.793,41.263"/>
  <path fill="#e03a3e" stroke-linejoin="miter" xml:space="preserve" x="0px" stroke-linecap="butt" xmlns:xlink="http://www.w3.org/1999/xlink" stroke-width="1px" stroke-opacity="1" fill-opacity="1" fill-rule="nonzero" version="1.1" y="0px" stroke-miterlimit="4" stroke="none" stroke-dasharray="none" d="M134.49,44.302C121.411,30.342,102.123,23.164,82.394,24.529C51.083,26.643,37.168,49.938,37.168,49.938C37.168,49.938,62.005,57.469,65.396,58.526C67.774,59.23,83.187,63.106,90.189,66.893C91.642,67.686,93.051,69.315,94.46,70.768C95.517,71.869,96.486,72.926,97.499,73.763C99.349,75.26,101.11,76.537,102.872,77.814C107.143,80.941,110.886,83.583,112.648,87.679C114.145,91.202,114.189,94.901,112.868,98.292C111.679,101.242,109.345,103.928,106.527,105.778C106.835,104.281,107.187,102.123,105.161,100.802C104.237,100.229,99.613,99.128,96.486,98.776C94.989,98.644,78.211,97.851,54.959,110.402C61.917,101.066,66.937,99.525,66.937,99.525C66.717,98.424,29.285,113.573,29.285,113.573C29.285,113.573,42.232,155.012,92.17,150.608C124.714,147.746,148.935,123.921,151.049,92.17C152.282,74.071,146.381,57.029,134.49,44.302M124.098,102.96C128.81,92.567,126.476,81.293,118.461,72.354C116.259,69.887,113.485,68.17,110.842,66.585C109.125,65.528,107.319,64.427,105.734,63.106C104.985,62.489,104.369,61.652,103.708,60.816C102.916,59.715,101.991,58.438,100.67,57.557C93.315,52.184,84.596,50.291,76.053,47.781C72.001,46.592,68.082,45.711,64.383,44.39C69.007,41.219,74.864,39.105,81.293,38.533C83.319,38.313,85.301,38.225,87.326,38.225C106.306,38.225,122.776,47.737,131.584,63.766C140.347,79.752,139.819,99.172,130.087,114.497C120.09,130.219,102.387,138.542,82.35,136.868C70.372,135.9,57.557,129.558,53.638,122.776C56.06,121.279,77.946,109.697,92.963,114.365C97.235,114.365,90.409,124.802,90.409,124.802C90.409,124.802,115.202,122.6,124.098,102.96"/>
  <path fill-opacity="1" xml:space="preserve" stroke-linejoin="miter" x="0px" version="1.1" stroke-opacity="1" fill="#e03a3e" y="0px" xmlns:xlink="http://www.w3.org/1999/xlink" stroke-dasharray="none" stroke-miterlimit="4" stroke="none" stroke-linecap="butt" fill-rule="nonzero" stroke-width="1px" d="M87.062,71.473C79.047,71.781,71.605,62.093,65.44,68.478C66.629,68.787,69.095,67.862,69.447,68.963C66.276,81.469,86.886,84.728,87.062,71.473"/>
</g>
  <g id="Medium-M" transform="matrix(1.0,0.0,0.0,1.0,1659.765048828125,1002.695068359375)">  <path fill-opacity="1" stroke-opacity="1" fill-rule="nonzero" version="1.1" xml:space="preserve" stroke-miterlimit="4" x="0px" stroke-dasharray="none" xmlns:xlink="http://www.w3.org/1999/xlink" stroke-width="1px" fill="#ffffff" stroke-linejoin="miter" y="0px" stroke-linecap="butt" stroke="none" d="M137.793,41.263C125.11,27.7,106.659,19.949,87.15,19.949C85.477,19.949,83.803,19.993,82.174,20.169C50.687,22.283,35.494,44.698,33.909,47.164C31.531,50.115,11.582,77.11,24.969,114.365L25.233,115.158C25.366,115.554,38.401,155.452,84.992,155.452L84.992,155.452C87.458,155.452,90.057,155.32,92.655,155.1C127.488,152.061,153.338,126.344,155.54,92.611C156.906,73.19,150.608,54.959,137.793,41.263"/>
  <path fill-rule="nonzero" stroke="none" version="1.1" stroke-opacity="1" x="0px" y="0px" stroke-miterlimit="4" stroke-linejoin="miter" xmlns:xlink="http://www.w3.org/1999/xlink" stroke-width="1px" stroke-dasharray="none" xml:space="preserve" fill-opacity="1" stroke-linecap="butt" fill="#e03a3e" d="M134.49,44.302C121.411,30.342,102.123,23.164,82.394,24.529C51.083,26.643,37.168,49.938,37.168,49.938C37.168,49.938,62.005,57.469,65.396,58.526C67.774,59.23,83.187,63.106,90.189,66.893C91.642,67.686,93.051,69.315,94.46,70.768C95.517,71.869,96.486,72.926,97.499,73.763C99.349,75.26,101.11,76.537,102.872,77.814C107.143,80.941,110.886,83.583,112.648,87.679C114.145,91.202,114.189,94.901,112.868,98.292C111.679,101.242,109.345,103.928,106.527,105.778C106.835,104.281,107.187,102.123,105.161,100.802C104.237,100.229,99.613,99.128,96.486,98.776C94.989,98.644,78.211,97.851,54.959,110.402C61.917,101.066,66.937,99.525,66.937,99.525C66.717,98.424,29.285,113.573,29.285,113.573C29.285,113.573,42.232,155.012,92.17,150.608C124.714,147.746,148.935,123.921,151.049,92.17C152.282,74.071,146.381,57.029,134.49,44.302M124.098,102.96C128.81,92.567,126.476,81.293,118.461,72.354C116.259,69.887,113.485,68.17,110.842,66.585C109.125,65.528,107.319,64.427,105.734,63.106C104.985,62.489,104.369,61.652,103.708,60.816C102.916,59.715,101.991,58.438,100.67,57.557C93.315,52.184,84.596,50.291,76.053,47.781C72.001,46.592,68.082,45.711,64.383,44.39C69.007,41.219,74.864,39.105,81.293,38.533C83.319,38.313,85.301,38.225,87.326,38.225C106.306,38.225,122.776,47.737,131.584,63.766C140.347,79.752,139.819,99.172,130.087,114.497C120.09,130.219,102.387,138.542,82.35,136.868C70.372,135.9,57.557,129.558,53.638,122.776C56.06,121.279,77.946,109.697,92.963,114.365C97.235,114.365,90.409,124.802,90.409,124.802C90.409,124.802,115.202,122.6,124.098,102.96"/>
  <path stroke-width="1px" stroke-linejoin="miter" stroke="none" stroke-linecap="butt" fill="#e03a3e" fill-rule="nonzero" xmlns:xlink="http://www.w3.org/1999/xlink" stroke-dasharray="none" xml:space="preserve" x="0px" fill-opacity="1" stroke-opacity="1" stroke-miterlimit="4" version="1.1" y="0px" d="M87.062,71.473C79.047,71.781,71.605,62.093,65.44,68.478C66.629,68.787,69.095,67.862,69.447,68.963C66.276,81.469,86.886,84.728,87.062,71.473"/>
</g>
  <g id="Regular-M" transform="matrix(1.0,0.0,0.0,1.0,1363.0550488281249,1002.695068359375)">  <path version="1.1" y="0px" stroke-opacity="1" stroke-linejoin="miter" stroke-miterlimit="4" stroke="none" xmlns:xlink="http://www.w3.org/1999/xlink" fill-rule="nonzero" stroke-linecap="butt" stroke-dasharray="none" fill="#ffffff" xml:space="preserve" stroke-width="1px" fill-opacity="1" x="0px" d="M137.793,41.263C125.11,27.7,106.659,19.949,87.15,19.949C85.477,19.949,83.803,19.993,82.174,20.169C50.687,22.283,35.494,44.698,33.909,47.164C31.531,50.115,11.582,77.11,24.969,114.365L25.233,115.158C25.366,115.554,38.401,155.452,84.992,155.452L84.992,155.452C87.458,155.452,90.057,155.32,92.655,155.1C127.488,152.061,153.338,126.344,155.54,92.611C156.906,73.19,150.608,54.959,137.793,41.263"/>
  <path stroke-width="1px" fill-rule="nonzero" stroke="none" stroke-miterlimit="4" stroke-dasharray="none" x="0px" fill="#e03a3e" fill-opacity="1" xmlns:xlink="http://www.w3.org/1999/xlink" version="1.1" stroke-linejoin="miter" y="0px" stroke-linecap="butt" xml:space="preserve" stroke-opacity="1" d="M134.49,44.302C121.411,30.342,102.123,23.164,82.394,24.529C51.083,26.643,37.168,49.938,37.168,49.938C37.168,49.938,62.005,57.469,65.396,58.526C67.774,59.23,83.187,63.106,90.189,66.893C91.642,67.686,93.051,69.315,94.46,70.768C95.517,71.869,96.486,72.926,97.499,73.763C99.349,75.26,101.11,76.537,102.872,77.814C107.143,80.941,110.886,83.583,112.648,87.679C114.145,91.202,114.189,94.901,112.868,98.292C111.679,101.242,109.345,103.928,106.527,105.778C106.835,104.281,107.187,102.123,105.161,100.802C104.237,100.229,99.613,99.128,96.486,98.776C94.989,98.644,78.211,97.851,54.959,110.402C61.917,101.066,66.937,99.525,66.937,99.525C66.717,98.424,29.285,113.573,29.285,113.573C29.285,113.573,42.232,155.012,92.17,150.608C124.714,147.746,148.935,123.921,151.049,92.17C152.282,74.071,146.381,57.029,134.49,44.302M124.098,102.96C128.81,92.567,126.476,81.293,118.461,72.354C116.259,69.887,113.485,68.17,110.842,66.585C109.125,65.528,107.319,64.427,105.734,63.106C104.985,62.489,104.369,61.652,103.708,60.816C102.916,59.715,101.991,58.438,100.67,57.557C93.315,52.184,84.596,50.291,76.053,47.781C72.001,46.592,68.082,45.711,64.383,44.39C69.007,41.219,74.864,39.105,81.293,38.533C83.319,38.313,85.301,38.225,87.326,38.225C106.306,38.225,122.776,47.737,131.584,63.766C140.347,79.752,139.819,99.172,130.087,114.497C120.09,130.219,102.387,138.542,82.35,136.868C70.372,135.9,57.557,129.558,53.638,122.776C56.06,121.279,77.946,109.697,92.963,114.365C97.235,114.365,90.409,124.802,90.409,124.802C90.409,124.802,115.202,122.6,124.098,102.96"/>
  <path version="1.1" xml:space="preserve" stroke-dasharray="none" xmlns:xlink="http://www.w3.org/1999/xlink" stroke-opacity="1" stroke-linecap="butt" fill-rule="nonzero" stroke-linejoin="miter" fill="#e03a3e" stroke-miterlimit="4" fill-opacity="1" stroke-width="1px" y="0px" x="0px" stroke="none" d="M87.062,71.473C79.047,71.781,71.605,62.093,65.44,68.478C66.629,68.787,69.095,67.862,69.447,68.963C66.276,81.469,86.886,84.728,87.062,71.473"/>
</g>
  <g id="Light-M" transform="matrix(1.0,0.0,0.0,1.0,1066.345048828125,1002.695068359375)">  <path xmlns:xlink="http://www.w3.org/1999/xlink" stroke="none" fill-opacity="1" y="0px" stroke-linecap="butt" stroke-dasharray="none" version="1.1" x="0px" xml:space="preserve" stroke-opacity="1" stroke-miterlimit="4" stroke-width="1px" stroke-linejoin="miter" fill-rule="nonzero" fill="#ffffff" d="M137.793,41.263C125.11,27.7,106.659,19.949,87.15,19.949C85.477,19.949,83.803,19.993,82.174,20.169C50.687,22.283,35.494,44.698,33.909,47.164C31.531,50.115,11.582,77.11,24.969,114.365L25.233,115.158C25.366,115.554,38.401,155.452,84.992,155.452L84.992,155.452C87.458,155.452,90.057,155.32,92.655,155.1C127.488,152.061,153.338,126.344,155.54,92.611C156.906,73.19,150.608,54.959,137.793,41.263"/>
  <path stroke-opacity="1" stroke-dasharray="none" x="0px" stroke-miterlimit="4" xml:space="preserve" xmlns:xlink="http://www.w3.org/1999/xlink" y="0px" stroke-linejoin="miter" fill-rule="nonzero" version="1.1" stroke="none" fill-opacity="1" stroke-linecap="butt" stroke-width="1px" fill="#e03a3e" d="M134.49,44.302C121.411,30.342,102.123,23.164,82.394,24.529C51.083,26.643,37.168,49.938,37.168,49.938C37.168,49.938,62.005,57.469,65.396,58.526C67.774,59.23,83.187,63.106,90.189,66.893C91.642,67.686,93.051,69.315,94.46,70.768C95.517,71.869,96.486,72.926,97.499,73.763C99.349,75.26,101.11,76.537,102.872,77.814C107.143,80.941,110.886,83.583,112.648,87.679C114.145,91.202,114.189,94.901,112.868,98.292C111.679,101.242,109.345,103.928,106.527,105.778C106.835,104.281,107.187,102.123,105.161,100.802C104.237,100.229,99.613,99.128,96.486,98.776C94.989,98.644,78.211,97.851,54.959,110.402C61.917,101.066,66.937,99.525,66.937,99.525C66.717,98.424,29.285,113.573,29.285,113.573C29.285,113.573,42.232,155.012,92.17,150.608C124.714,147.746,148.935,123.921,151.049,92.17C152.282,74.071,146.381,57.029,134.49,44.302M124.098,102.96C128.81,92.567,126.476,81.293,118.461,72.354C116.259,69.887,113.485,68.17,110.842,66.585C109.125,65.528,107.319,64.427,105.734,63.106C104.985,62.489,104.369,61.652,103.708,60.816C102.916,59.715,101.991,58.438,100.67,57.557C93.315,52.184,84.596,50.291,76.053,47.781C72.001,46.592,68.082,45.711,64.383,44.39C69.007,41.219,74.864,39.105,81.293,38.533C83.319,38.313,85.301,38.225,87.326,38.225C106.306,38.225,122.776,47.737,131.584,63.766C140.347,79.752,139.819,99.172,130.087,114.497C120.09,130.219,102.387,138.542,82.35,136.868C70.372,135.9,57.557,129.558,53.638,122.776C56.06,121.279,77.946,109.697,92.963,114.365C97.235,114.365,90.409,124.802,90.409,124.802C90.409,124.802,115.202,122.6,124.098,102.96"/>
  <path stroke-miterlimit="4" stroke="none" stroke-width="1px" xmlns:xlink="http://www.w3.org/1999/xlink" stroke-linecap="butt" stroke-opacity="1" version="1.1" fill-opacity="1" fill="#e03a3e" stroke-linejoin="miter" stroke-dasharray="none" y="0px" xml:space="preserve" fill-rule="nonzero" x="0px" d="M87.062,71.473C79.047,71.781,71.605,62.093,65.44,68.478C66.629,68.787,69.095,67.862,69.447,68.963C66.276,81.469,86.886,84.728,87.062,71.473"/>
</g>
  <g id="Thin-M" transform="matrix(1.0,0.0,0.0,1.0,769.635048828125,1002.695068359375)">  <path xml:space="preserve" xmlns:xlink="http://www.w3.org/1999/xlink" stroke-linejoin="miter" stroke-opacity="1" y="0px" stroke-dasharray="none" fill-opacity="1" stroke-linecap="butt" fill="#ffffff" x="0px" stroke="none" stroke-width="1px" stroke-miterlimit="4" version="1.1" fill-rule="nonzero" d="M137.793,41.263C125.11,27.7,106.659,19.949,87.15,19.949C85.477,19.949,83.803,19.993,82.174,20.169C50.687,22.283,35.494,44.698,33.909,47.164C31.531,50.115,11.582,77.11,24.969,114.365L25.233,115.158C25.366,115.554,38.401,155.452,84.992,155.452L84.992,155.452C87.458,155.452,90.057,155.32,92.655,155.1C127.488,152.061,153.338,126.344,155.54,92.611C156.906,73.19,150.608,54.959,137.793,41.263"/>
  <path stroke-miterlimit="4" fill="#e03a3e" xmlns:xlink="http://www.w3.org/1999/xlink" stroke="none" fill-rule="nonzero" xml:space="preserve" stroke-linecap="butt" stroke-width="1px" stroke-opacity="1" version="1.1" fill-opacity="1" stroke-dasharray="none" stroke-linejoin="miter" x="0px" y="0px" d="M134.49,44.302C121.411,30.342,102.123,23.164,82.394,24.529C51.083,26.643,37.168,49.938,37.168,49.938C37.168,49.938,62.005,57.469,65.396,58.526C67.774,59.23,83.187,63.106,90.189,66.893C91.642,67.686,93.051,69.315,94.46,70.768C95.517,71.869,96.486,72.926,97.499,73.763C99.349,75.26,101.11,76.537,102.872,77.814C107.143,80.941,110.886,83.583,112.648,87.679C114.145,91.202,114.189,94.901,112.868,98.292C111.679,101.242,109.345,103.928,106.527,105.778C106.835,104.281,107.187,102.123,105.161,100.802C104.237,100.229,99.613,99.128,96.486,98.776C94.989,98.644,78.211,97.851,54.959,110.402C61.917,101.066,66.937,99.525,66.937,99.525C66.717,98.424,29.285,113.573,29.285,113.573C29.285,113.573,42.232,155.012,92.17,150.608C124.714,147.746,148.935,123.921,151.049,92.17C152.282,74.071,146.381,57.029,134.49,44.302M124.098,102.96C128.81,92.567,126.476,81.293,118.461,72.354C116.259,69.887,113.485,68.17,110.842,66.585C109.125,65.528,107.319,64.427,105.734,63.106C104.985,62.489,104.369,61.652,103.708,60.816C102.916,59.715,101.991,58.438,100.67,57.557C93.315,52.184,84.596,50.291,76.053,47.781C72.001,46.592,68.082,45.711,64.383,44.39C69.007,41.219,74.864,39.105,81.293,38.533C83.319,38.313,85.301,38.225,87.326,38.225C106.306,38.225,122.776,47.737,131.584,63.766C140.347,79.752,139.819,99.172,130.087,114.497C120.09,130.219,102.387,138.542,82.35,136.868C70.372,135.9,57.557,129.558,53.638,122.776C56.06,121.279,77.946,109.697,92.963,114.365C97.235,114.365,90.409,124.802,90.409,124.802C90.409,124.802,115.202,122.6,124.098,102.96"/>
  <path stroke="none" fill-opacity="1" xmlns:xlink="http://www.w3.org/1999/xlink" x="0px" fill="#e03a3e" stroke-dasharray="none" stroke-opacity="1" fill-rule="nonzero" version="1.1" xml:space="preserve" y="0px" stroke-linejoin="miter" stroke-width="1px" stroke-miterlimit="4" stroke-linecap="butt" d="M87.062,71.473C79.047,71.781,71.605,62.093,65.44,68.478C66.629,68.787,69.095,67.862,69.447,68.963C66.276,81.469,86.886,84.728,87.062,71.473"/>
</g>
  <g id="Ultralight-M" transform="matrix(1.0,0.0,0.0,1.0,472.925048828125,1002.695068359375)">  <path y="0px" version="1.1" fill-rule="nonzero" stroke-linejoin="miter" stroke-opacity="1" stroke-miterlimit="4" stroke-dasharray="none" stroke-linecap="butt" fill-opacity="1" xmlns:xlink="http://www.w3.org/1999/xlink" stroke-width="1px" fill="#ffffff" stroke="none" xml:space="preserve" x="0px" d="M137.793,41.263C125.11,27.7,106.659,19.949,87.15,19.949C85.477,19.949,83.803,19.993,82.174,20.169C50.687,22.283,35.494,44.698,33.909,47.164C31.531,50.115,11.582,77.11,24.969,114.365L25.233,115.158C25.366,115.554,38.401,155.452,84.992,155.452L84.992,155.452C87.458,155.452,90.057,155.32,92.655,155.1C127.488,152.061,153.338,126.344,155.54,92.611C156.906,73.19,150.608,54.959,137.793,41.263"/>
  <path version="1.1" fill-rule="nonzero" stroke-miterlimit="4" fill="#e03a3e" fill-opacity="1" stroke-width="1px" stroke-opacity="1" y="0px" stroke="none" x="0px" stroke-linecap="butt" xmlns:xlink="http://www.w3.org/1999/xlink" stroke-dasharray="none" stroke-linejoin="miter" xml:space="preserve" d="M134.49,44.302C121.411,30.342,102.123,23.164,82.394,24.529C51.083,26.643,37.168,49.938,37.168,49.938C37.168,49.938,62.005,57.469,65.396,58.526C67.774,59.23,83.187,63.106,90.189,66.893C91.642,67.686,93.051,69.315,94.46,70.768C95.517,71.869,96.486,72.926,97.499,73.763C99.349,75.26,101.11,76.537,102.872,77.814C107.143,80.941,110.886,83.583,112.648,87.679C114.145,91.202,114.189,94.901,112.868,98.292C111.679,101.242,109.345,103.928,106.527,105.778C106.835,104.281,107.187,102.123,105.161,100.802C104.237,100.229,99.613,99.128,96.486,98.776C94.989,98.644,78.211,97.851,54.959,110.402C61.917,101.066,66.937,99.525,66.937,99.525C66.717,98.424,29.285,113.573,29.285,113.573C29.285,113.573,42.232,155.012,92.17,150.608C124.714,147.746,148.935,123.921,151.049,92.17C152.282,74.071,146.381,57.029,134.49,44.302M124.098,102.96C128.81,92.567,126.476,81.293,118.461,72.354C116.259,69.887,113.485,68.17,110.842,66.585C109.125,65.528,107.319,64.427,105.734,63.106C104.985,62.489,104.369,61.652,103.708,60.816C102.916,59.715,101.991,58.438,100.67,57.557C93.315,52.184,84.596,50.291,76.053,47.781C72.001,46.592,68.082,45.711,64.383,44.39C69.007,41.219,74.864,39.105,81.293,38.533C83.319,38.313,85.301,38.225,87.326,38.225C106.306,38.225,122.776,47.737,131.584,63.766C140.347,79.752,139.819,99.172,130.087,114.497C120.09,130.219,102.387,138.542,82.35,136.868C70.372,135.9,57.557,129.558,53.638,122.776C56.06,121.279,77.946,109.697,92.963,114.365C97.235,114.365,90.409,124.802,90.409,124.802C90.409,124.802,115.202,122.6,124.098,102.96"/>
  <path stroke-opacity="1" stroke-dasharray="none" x="0px" stroke-linecap="butt" fill="#e03a3e" stroke-miterlimit="4" fill-rule="nonzero" fill-opacity="1" stroke-linejoin="miter" y="0px" xmlns:xlink="http://www.w3.org/1999/xlink" stroke="none" version="1.1" stroke-width="1px" xml:space="preserve" d="M87.062,71.473C79.047,71.781,71.605,62.093,65.44,68.478C66.629,68.787,69.095,67.862,69.447,68.963C66.276,81.469,86.886,84.728,87.062,71.473"/>
</g>
  <g id="Black-S" transform="matrix(1.0,0.0,0.0,1.0,2865.7173132324215,591.8073327636719)">  <path xml:space="preserve" stroke-dasharray="none" y="0px" fill-opacity="1" fill="#ffffff" x="0px" version="1.1" fill-rule="nonzero" stroke-width="1px" stroke-linecap="butt" stroke-linejoin="miter" stroke-miterlimit="4" stroke-opacity="1" xmlns:xlink="http://www.w3.org/1999/xlink" stroke="none" d="M107.892,32.309C97.961,21.689,83.514,15.62,68.239,15.62C66.928,15.62,65.618,15.655,64.342,15.792C39.688,17.448,27.792,34.999,26.551,36.93C24.689,39.24,9.069,60.377,19.551,89.548L19.758,90.169C19.861,90.479,30.068,121.719,66.549,121.719L66.549,121.719C68.48,121.719,70.514,121.616,72.549,121.443C99.823,119.064,120.064,98.927,121.788,72.514C122.857,57.308,117.926,43.033,107.892,32.309"/>
  <path xml:space="preserve" stroke-linejoin="miter" xmlns:xlink="http://www.w3.org/1999/xlink" stroke-opacity="1" stroke-dasharray="none" fill-opacity="1" fill-rule="nonzero" stroke-linecap="butt" stroke="none" y="0px" stroke-miterlimit="4" stroke-width="1px" fill="#e03a3e" version="1.1" x="0px" d="M105.306,34.688C95.065,23.758,79.962,18.137,64.515,19.206C39.998,20.861,29.102,39.102,29.102,39.102C29.102,39.102,48.55,44.998,51.205,45.826C53.067,46.377,65.135,49.412,70.618,52.377C71.756,52.998,72.859,54.274,73.962,55.412C74.79,56.274,75.549,57.101,76.342,57.756C77.79,58.929,79.169,59.929,80.548,60.929C83.893,63.377,86.824,65.446,88.203,68.652C89.376,71.411,89.41,74.307,88.376,76.962C87.445,79.273,85.617,81.376,83.41,82.824C83.652,81.652,83.928,79.962,82.341,78.928C81.617,78.48,77.997,77.618,75.549,77.342C74.376,77.238,61.239,76.618,43.033,86.445C48.481,79.135,52.412,77.928,52.412,77.928C52.239,77.066,22.93,88.927,22.93,88.927C22.93,88.927,33.068,121.374,72.169,117.926C97.651,115.685,116.616,97.031,118.271,72.169C119.236,57.998,114.616,44.653,105.306,34.688M97.168,80.617C100.858,72.48,99.03,63.653,92.755,56.653C91.031,54.722,88.858,53.377,86.79,52.136C85.445,51.308,84.031,50.446,82.79,49.412C82.204,48.929,81.721,48.274,81.204,47.619C80.583,46.757,79.859,45.757,78.824,45.067C73.066,40.86,66.239,39.378,59.549,37.412C56.377,36.481,53.308,35.792,50.412,34.757C54.032,32.275,58.618,30.619,63.653,30.171C65.239,29.999,66.79,29.93,68.376,29.93C83.238,29.93,96.134,37.378,103.03,49.929C109.892,62.446,109.478,77.652,101.858,89.651C94.031,101.961,80.169,108.478,64.48,107.168C55.101,106.409,45.067,101.444,41.998,96.134C43.895,94.962,61.032,85.893,72.79,89.548C76.135,89.548,70.79,97.72,70.79,97.72C70.79,97.72,90.203,95.996,97.168,80.617"/>
  <path x="0px" xmlns:xlink="http://www.w3.org/1999/xlink" y="0px" fill-opacity="1" stroke-miterlimit="4" stroke-dasharray="none" stroke-opacity="1" fill="#e03a3e" stroke-width="1px" xml:space="preserve" version="1.1" stroke-linecap="butt" stroke-linejoin="miter" stroke="none" fill-rule="nonzero" d="M68.17,55.963C61.894,56.205,56.067,48.619,51.239,53.618C52.17,53.86,54.101,53.136,54.377,53.998C51.894,63.79,68.032,66.342,68.17,55.963"/>
</g>
  <g id="Heavy-S" transform="matrix(1.0,0.0,0.0,1.0,2569.0073132324214,591.8073327636719)">  <path xmlns:xlink="http://www.w3.org/1999/xlink" stroke-opacity="1" stroke="none" stroke-width="1px" xml:space="preserve" version="1.1" fill="#ffffff" fill-opacity="1" stroke-linecap="butt" stroke-miterlimit="4" x="0px" stroke-linejoin="miter" y="0px" stroke-dasharray="none" fill-rule="nonzero" d="M107.892,32.309C97.961,21.689,83.514,15.62,68.239,15.62C66.928,15.62,65.618,15.655,64.342,15.792C39.688,17.448,27.792,34.999,26.551,36.93C24.689,39.24,9.069,60.377,19.551,89.548L19.758,90.169C19.861,90.479,30.068,121.719,66.549,121.719L66.549,121.719C68.48,121.719,70.514,121.616,72.549,121.443C99.823,119.064,120.064,98.927,121.788,72.514C122.857,57.308,117.926,43.033,107.892,32.309"/>
  <path stroke-miterlimit="4" fill-rule="nonzero" stroke-opacity="1" version="1.1" y="0px" stroke-linecap="butt" fill-opacity="1" xml:space="preserve" fill="#e03a3e" xmlns:xlink="http://www.w3.org/1999/xlink" x="0px" stroke-width="1px" stroke="none" stroke-dasharray="none" stroke-linejoin="miter" d="M105.306,34.688C95.065,23.758,79.962,18.137,64.515,19.206C39.998,20.861,29.102,39.102,29.102,39.102C29.102,39.102,48.55,44.998,51.205,45.826C53.067,46.377,65.135,49.412,70.618,52.377C71.756,52.998,72.859,54.274,73.962,55.412C74.79,56.274,75.549,57.101,76.342,57.756C77.79,58.929,79.169,59.929,80.548,60.929C83.893,63.377,86.824,65.446,88.203,68.652C89.376,71.411,89.41,74.307,88.376,76.962C87.445,79.273,85.617,81.376,83.41,82.824C83.652,81.652,83.928,79.962,82.341,78.928C81.617,78.48,77.997,77.618,75.549,77.342C74.376,77.238,61.239,76.618,43.033,86.445C48.481,79.135,52.412,77.928,52.412,77.928C52.239,77.066,22.93,88.927,22.93,88.927C22.93,88.927,33.068,121.374,72.169,117.926C97.651,115.685,116.616,97.031,118.271,72.169C119.236,57.998,114.616,44.653,105.306,34.688M97.168,80.617C100.858,72.48,99.03,63.653,92.755,56.653C91.031,54.722,88.858,53.377,86.79,52.136C85.445,51.308,84.031,50.446,82.79,49.412C82.204,48.929,81.721,48.274,81.204,47.619C80.583,46.757,79.859,45.757,78.824,45.067C73.066,40.86,66.239,39.378,59.549,37.412C56.377,36.481,53.308,35.792,50.412,34.757C54.032,32.275,58.618,30.619,63.653,30.171C65.239,29.999,66.79,29.93,68.376,29.93C83.238,29.93,96.134,37.378,103.03,49.929C109.892,62.446,109.478,77.652,101.858,89.651C94.031,101.961,80.169,108.478,64.48,107.168C55.101,106.409,45.067,101.444,41.998,96.134C43.895,94.962,61.032,85.893,72.79,89.548C76.135,89.548,70.79,97.72,70.79,97.72C70.79,97.72,90.203,95.996,97.168,80.617"/>
  <path stroke-opacity="1" fill-rule="nonzero" stroke-linejoin="miter" stroke="none" xml:space="preserve" stroke-width="1px" fill-opacity="1" x="0px" stroke-miterlimit="4" fill="#e03a3e" y="0px" version="1.1" stroke-linecap="butt" stroke-dasharray="none" xmlns:xlink="http://www.w3.org/1999/xlink" d="M68.17,55.963C61.894,56.205,56.067,48.619,51.239,53.618C52.17,53.86,54.101,53.136,54.377,53.998C51.894,63.79,68.032,66.342,68.17,55.963"/>
</g>
  <g id="Bold-S" transform="matrix(1.0,0.0,0.0,1.0,2272.2973132324214,591.8073327636719)">  <path fill="#ffffff" xmlns:xlink="http://www.w3.org/1999/xlink" stroke-linecap="butt" stroke-miterlimit="4" stroke-dasharray="none" x="0px" version="1.1" stroke-linejoin="miter" stroke-width="1px" xml:space="preserve" stroke="none" fill-opacity="1" stroke-opacity="1" fill-rule="nonzero" y="0px" d="M107.892,32.309C97.961,21.689,83.514,15.62,68.239,15.62C66.928,15.62,65.618,15.655,64.342,15.792C39.688,17.448,27.792,34.999,26.551,36.93C24.689,39.24,9.069,60.377,19.551,89.548L19.758,90.169C19.861,90.479,30.068,121.719,66.549,121.719L66.549,121.719C68.48,121.719,70.514,121.616,72.549,121.443C99.823,119.064,120.064,98.927,121.788,72.514C122.857,57.308,117.926,43.033,107.892,32.309"/>
  <path stroke="none" xml:space="preserve" y="0px" version="1.1" stroke-opacity="1" stroke-miterlimit="4" fill-opacity="1" fill="#e03a3e" xmlns:xlink="http://www.w3.org/1999/xlink" stroke-dasharray="none" fill-rule="nonzero" x="0px" stroke-linejoin="miter" stroke-linecap="butt" stroke-width="1px" d="M105.306,34.688C95.065,23.758,79.962,18.137,64.515,19.206C39.998,20.861,29.102,39.102,29.102,39.102C29.102,39.102,48.55,44.998,51.205,45.826C53.067,46.377,65.135,49.412,70.618,52.377C71.756,52.998,72.859,54.274,73.962,55.412C74.79,56.274,75.549,57.101,76.342,57.756C77.79,58.929,79.169,59.929,80.548,60.929C83.893,63.377,86.824,65.446,88.203,68.652C89.376,71.411,89.41,74.307,88.376,76.962C87.445,79.273,85.617,81.376,83.41,82.824C83.652,81.652,83.928,79.962,82.341,78.928C81.617,78.48,77.997,77.618,75.549,77.342C74.376,77.238,61.239,76.618,43.033,86.445C48.481,79.135,52.412,77.928,52.412,77.928C52.239,77.066,22.93,88.927,22.93,88.927C22.93,88.927,33.068,121.374,72.169,117.926C97.651,115.685,116.616,97.031,118.271,72.169C119.236,57.998,114.616,44.653,105.306,34.688M97.168,80.617C100.858,72.48,99.03,63.653,92.755,56.653C91.031,54.722,88.858,53.377,86.79,52.136C85.445,51.308,84.031,50.446,82.79,49.412C82.204,48.929,81.721,48.274,81.204,47.619C80.583,46.757,79.859,45.757,78.824,45.067C73.066,40.86,66.239,39.378,59.549,37.412C56.377,36.481,53.308,35.792,50.412,34.757C54.032,32.275,58.618,30.619,63.653,30.171C65.239,29.999,66.79,29.93,68.376,29.93C83.238,29.93,96.134,37.378,103.03,49.929C109.892,62.446,109.478,77.652,101.858,89.651C94.031,101.961,80.169,108.478,64.48,107.168C55.101,106.409,45.067,101.444,41.998,96.134C43.895,94.962,61.032,85.893,72.79,89.548C76.135,89.548,70.79,97.72,70.79,97.72C70.79,97.72,90.203,95.996,97.168,80.617"/>
  <path x="0px" xmlns:xlink="http://www.w3.org/1999/xlink" xml:space="preserve" fill-opacity="1" stroke-miterlimit="4" stroke="none" version="1.1" stroke-linecap="butt" stroke-opacity="1" stroke-dasharray="none" y="0px" stroke-linejoin="miter" fill-rule="nonzero" fill="#e03a3e" stroke-width="1px" d="M68.17,55.963C61.894,56.205,56.067,48.619,51.239,53.618C52.17,53.86,54.101,53.136,54.377,53.998C51.894,63.79,68.032,66.342,68.17,55.963"/>
</g>
  <g id="Semibold-S" transform="matrix(1.0,0.0,0.0,1.0,1975.5873132324218,591.8073327636719)">  <path stroke-miterlimit="4" xmlns:xlink="http://www.w3.org/1999/xlink" stroke-dasharray="none" stroke-opacity="1" stroke-linecap="butt" stroke="none" stroke-width="1px" fill-rule="nonzero" version="1.1" fill="#ffffff" stroke-linejoin="miter" x="0px" fill-opacity="1" y="0px" xml:space="preserve" d="M107.892,32.309C97.961,21.689,83.514,15.62,68.239,15.62C66.928,15.62,65.618,15.655,64.342,15.792C39.688,17.448,27.792,34.999,26.551,36.93C24.689,39.24,9.069,60.377,19.551,89.548L19.758,90.169C19.861,90.479,30.068,121.719,66.549,121.719L66.549,121.719C68.48,121.719,70.514,121.616,72.549,121.443C99.823,119.064,120.064,98.927,121.788,72.514C122.857,57.308,117.926,43.033,107.892,32.309"/>
  <path fill="#e03a3e" stroke-linejoin="miter" xml:space="preserve" x="0px" stroke-linecap="butt" xmlns:xlink="http://www.w3.org/1999/xlink" stroke-width="1px" stroke-opacity="1" fill-opacity="1" fill-rule="nonzero" version="1.1" y="0px" stroke-miterlimit="4" stroke="none" stroke-dasharray="none" d="M105.306,34.688C95.065,23.758,79.962,18.137,64.515,19.206C39.998,20.861,29.102,39.102,29.102,39.102C29.102,39.102,48.55,44.998,51.205,45.826C53.067,46.377,65.135,49.412,70.618,52.377C71.756,52.998,72.859,54.274,73.962,55.412C74.79,56.274,75.549,57.101,76.342,57.756C77.79,58.929,79.169,59.929,80.548,60.929C83.893,63.377,86.824,65.446,88.203,68.652C89.376,71.411,89.41,74.307,88.376,76.962C87.445,79.273,85.617,81.376,83.41,82.824C83.652,81.652,83.928,79.962,82.341,78.928C81.617,78.48,77.997,77.618,75.549,77.342C74.376,77.238,61.239,76.618,43.033,86.445C48.481,79.135,52.412,77.928,52.412,77.928C52.239,77.066,22.93,88.927,22.93,88.927C22.93,88.927,33.068,121.374,72.169,117.926C97.651,115.685,116.616,97.031,118.271,72.169C119.236,57.998,114.616,44.653,105.306,34.688M97.168,80.617C100.858,72.48,99.03,63.653,92.755,56.653C91.031,54.722,88.858,53.377,86.79,52.136C85.445,51.308,84.031,50.446,82.79,49.412C82.204,48.929,81.721,48.274,81.204,47.619C80.583,46.757,79.859,45.757,78.824,45.067C73.066,40.86,66.239,39.378,59.549,37.412C56.377,36.481,53.308,35.792,50.412,34.757C54.032,32.275,58.618,30.619,63.653,30.171C65.239,29.999,66.79,29.93,68.376,29.93C83.238,29.93,96.134,37.378,103.03,49.929C109.892,62.446,109.478,77.652,101.858,89.651C94.031,101.961,80.169,108.478,64.48,107.168C55.101,106.409,45.067,101.444,41.998,96.134C43.895,94.962,61.032,85.893,72.79,89.548C76.135,89.548,70.79,97.72,70.79,97.72C70.79,97.72,90.203,95.996,97.168,80.617"/>
  <path fill-opacity="1" xml:space="preserve" stroke-linejoin="miter" x="0px" version="1.1" stroke-opacity="1" fill="#e03a3e" y="0px" xmlns:xlink="http://www.w3.org/1999/xlink" stroke-dasharray="none" stroke-miterlimit="4" stroke="none" stroke-linecap="butt" fill-rule="nonzero" stroke-width="1px" d="M68.17,55.963C61.894,56.205,56.067,48.619,51.239,53.618C52.17,53.86,54.101,53.136,54.377,53.998C51.894,63.79,68.032,66.342,68.17,55.963"/>
</g>
  <g id="Medium-S" transform="matrix(1.0,0.0,0.0,1.0,1678.8773132324218,591.8073327636719)">  <path fill-opacity="1" stroke-opacity="1" fill-rule="nonzero" version="1.1" xml:space="preserve" stroke-miterlimit="4" x="0px" stroke-dasharray="none" xmlns:xlink="http://www.w3.org/1999/xlink" stroke-width="1px" fill="#ffffff" stroke-linejoin="miter" y="0px" stroke-linecap="butt" stroke="none" d="M107.892,32.309C97.961,21.689,83.514,15.62,68.239,15.62C66.928,15.62,65.618,15.655,64.342,15.792C39.688,17.448,27.792,34.999,26.551,36.93C24.689,39.24,9.069,60.377,19.551,89.548L19.758,90.169C19.861,90.479,30.068,121.719,66.549,121.719L66.549,121.719C68.48,121.719,70.514,121.616,72.549,121.443C99.823,119.064,120.064,98.927,121.788,72.514C122.857,57.308,117.926,43.033,107.892,32.309"/>
  <path fill-rule="nonzero" stroke="none" version="1.1" stroke-opacity="1" x="0px" y="0px" stroke-miterlimit="4" stroke-linejoin="miter" xmlns:xlink="http://www.w3.org/1999/xlink" stroke-width="1px" stroke-dasharray="none" xml:space="preserve" fill-opacity="1" stroke-linecap="butt" fill="#e03a3e" d="M105.306,34.688C95.065,23.758,79.962,18.137,64.515,19.206C39.998,20.861,29.102,39.102,29.102,39.102C29.102,39.102,48.55,44.998,51.205,45.826C53.067,46.377,65.135,49.412,70.618,52.377C71.756,52.998,72.859,54.274,73.962,55.412C74.79,56.274,75.549,57.101,76.342,57.756C77.79,58.929,79.169,59.929,80.548,60.929C83.893,63.377,86.824,65.446,88.203,68.652C89.376,71.411,89.41,74.307,88.376,76.962C87.445,79.273,85.617,81.376,83.41,82.824C83.652,81.652,83.928,79.962,82.341,78.928C81.617,78.48,77.997,77.618,75.549,77.342C74.376,77.238,61.239,76.618,43.033,86.445C48.481,79.135,52.412,77.928,52.412,77.928C52.239,77.066,22.93,88.927,22.93,88.927C22.93,88.927,33.068,121.374,72.169,117.926C97.651,115.685,116.616,97.031,118.271,72.169C119.236,57.998,114.616,44.653,105.306,34.688M97.168,80.617C100.858,72.48,99.03,63.653,92.755,56.653C91.031,54.722,88.858,53.377,86.79,52.136C85.445,51.308,84.031,50.446,82.79,49.412C82.204,48.929,81.721,48.274,81.204,47.619C80.583,46.757,79.859,45.757,78.824,45.067C73.066,40.86,66.239,39.378,59.549,37.412C56.377,36.481,53.308,35.792,50.412,34.757C54.032,32.275,58.618,30.619,63.653,30.171C65.239,29.999,66.79,29.93,68.376,29.93C83.238,29.93,96.134,37.378,103.03,49.929C109.892,62.446,109.478,77.652,101.858,89.651C94.031,101.961,80.169,108.478,64.48,107.168C55.101,106.409,45.067,101.444,41.998,96.134C43.895,94.962,61.032,85.893,72.79,89.548C76.135,89.548,70.79,97.72,70.79,97.72C70.79,97.72,90.203,95.996,97.168,80.617"/>
  <path stroke-width="1px" stroke-linejoin="miter" stroke="none" stroke-linecap="butt" fill="#e03a3e" fill-rule="nonzero" xmlns:xlink="http://www.w3.org/1999/xlink" stroke-dasharray="none" xml:space="preserve" x="0px" fill-opacity="1" stroke-opacity="1" stroke-miterlimit="4" version="1.1" y="0px" d="M68.17,55.963C61.894,56.205,56.067,48.619,51.239,53.618C52.17,53.86,54.101,53.136,54.377,53.998C51.894,63.79,68.032,66.342,68.17,55.963"/>
</g>
  <g id="Regular-S" transform="matrix(1.0,0.0,0.0,1.0,1382.1673132324217,591.8073327636719)">  <path version="1.1" y="0px" stroke-opacity="1" stroke-linejoin="miter" stroke-miterlimit="4" stroke="none" xmlns:xlink="http://www.w3.org/1999/xlink" fill-rule="nonzero" stroke-linecap="butt" stroke-dasharray="none" fill="#ffffff" xml:space="preserve" stroke-width="1px" fill-opacity="1" x="0px" d="M107.892,32.309C97.961,21.689,83.514,15.62,68.239,15.62C66.928,15.62,65.618,15.655,64.342,15.792C39.688,17.448,27.792,34.999,26.551,36.93C24.689,39.24,9.069,60.377,19.551,89.548L19.758,90.169C19.861,90.479,30.068,121.719,66.549,121.719L66.549,121.719C68.48,121.719,70.514,121.616,72.549,121.443C99.823,119.064,120.064,98.927,121.788,72.514C122.857,57.308,117.926,43.033,107.892,32.309"/>
  <path stroke-width="1px" fill-rule="nonzero" stroke="none" stroke-miterlimit="4" stroke-dasharray="none" x="0px" fill="#e03a3e" fill-opacity="1" xmlns:xlink="http://www.w3.org/1999/xlink" version="1.1" stroke-linejoin="miter" y="0px" stroke-linecap="butt" xml:space="preserve" stroke-opacity="1" d="M105.306,34.688C95.065,23.758,79.962,18.137,64.515,19.206C39.998,20.861,29.102,39.102,29.102,39.102C29.102,39.102,48.55,44.998,51.205,45.826C53.067,46.377,65.135,49.412,70.618,52.377C71.756,52.998,72.859,54.274,73.962,55.412C74.79,56.274,75.549,57.101,76.342,57.756C77.79,58.929,79.169,59.929,80.548,60.929C83.893,63.377,86.824,65.446,88.203,68.652C89.376,71.411,89.41,74.307,88.376,76.962C87.445,79.273,85.617,81.376,83.41,82.824C83.652,81.652,83.928,79.962,82.341,78.928C81.617,78.48,77.997,77.618,75.549,77.342C74.376,77.238,61.239,76.618,43.033,86.445C48.481,79.135,52.412,77.928,52.412,77.928C52.239,77.066,22.93,88.927,22.93,88.927C22.93,88.927,33.068,121.374,72.169,117.926C97.651,115.685,116.616,97.031,118.271,72.169C119.236,57.998,114.616,44.653,105.306,34.688M97.168,80.617C100.858,72.48,99.03,63.653,92.755,56.653C91.031,54.722,88.858,53.377,86.79,52.136C85.445,51.308,84.031,50.446,82.79,49.412C82.204,48.929,81.721,48.274,81.204,47.619C80.583,46.757,79.859,45.757,78.824,45.067C73.066,40.86,66.239,39.378,59.549,37.412C56.377,36.481,53.308,35.792,50.412,34.757C54.032,32.275,58.618,30.619,63.653,30.171C65.239,29.999,66.79,29.93,68.376,29.93C83.238,29.93,96.134,37.378,103.03,49.929C109.892,62.446,109.478,77.652,101.858,89.651C94.031,101.961,80.169,108.478,64.48,107.168C55.101,106.409,45.067,101.444,41.998,96.134C43.895,94.962,61.032,85.893,72.79,89.548C76.135,89.548,70.79,97.72,70.79,97.72C70.79,97.72,90.203,95.996,97.168,80.617"/>
  <path version="1.1" xml:space="preserve" stroke-dasharray="none" xmlns:xlink="http://www.w3.org/1999/xlink" stroke-opacity="1" stroke-linecap="butt" fill-rule="nonzero" stroke-linejoin="miter" fill="#e03a3e" stroke-miterlimit="4" fill-opacity="1" stroke-width="1px" y="0px" x="0px" stroke="none" d="M68.17,55.963C61.894,56.205,56.067,48.619,51.239,53.618C52.17,53.86,54.101,53.136,54.377,53.998C51.894,63.79,68.032,66.342,68.17,55.963"/>
</g>
  <g id="Light-S" transform="matrix(1.0,0.0,0.0,1.0,1085.457313232422,591.8073327636719)">  <path xmlns:xlink="http://www.w3.org/1999/xlink" stroke="none" fill-opacity="1" y="0px" stroke-linecap="butt" stroke-dasharray="none" version="1.1" x="0px" xml:space="preserve" stroke-opacity="1" stroke-miterlimit="4" stroke-width="1px" stroke-linejoin="miter" fill-rule="nonzero" fill="#ffffff" d="M107.892,32.309C97.961,21.689,83.514,15.62,68.239,15.62C66.928,15.62,65.618,15.655,64.342,15.792C39.688,17.448,27.792,34.999,26.551,36.93C24.689,39.24,9.069,60.377,19.551,89.548L19.758,90.169C19.861,90.479,30.068,121.719,66.549,121.719L66.549,121.719C68.48,121.719,70.514,121.616,72.549,121.443C99.823,119.064,120.064,98.927,121.788,72.514C122.857,57.308,117.926,43.033,107.892,32.309"/>
  <path stroke-opacity="1" stroke-dasharray="none" x="0px" stroke-miterlimit="4" xml:space="preserve" xmlns:xlink="http://www.w3.org/1999/xlink" y="0px" stroke-linejoin="miter" fill-rule="nonzero" version="1.1" stroke="none" fill-opacity="1" stroke-linecap="butt" stroke-width="1px" fill="#e03a3e" d="M105.306,34.688C95.065,23.758,79.962,18.137,64.515,19.206C39.998,20.861,29.102,39.102,29.102,39.102C29.102,39.102,48.55,44.998,51.205,45.826C53.067,46.377,65.135,49.412,70.618,52.377C71.756,52.998,72.859,54.274,73.962,55.412C74.79,56.274,75.549,57.101,76.342,57.756C77.79,58.929,79.169,59.929,80.548,60.929C83.893,63.377,86.824,65.446,88.203,68.652C89.376,71.411,89.41,74.307,88.376,76.962C87.445,79.273,85.617,81.376,83.41,82.824C83.652,81.652,83.928,79.962,82.341,78.928C81.617,78.48,77.997,77.618,75.549,77.342C74.376,77.238,61.239,76.618,43.033,86.445C48.481,79.135,52.412,77.928,52.412,77.928C52.239,77.066,22.93,88.927,22.93,88.927C22.93,88.927,33.068,121.374,72.169,117.926C97.651,115.685,116.616,97.031,118.271,72.169C119.236,57.998,114.616,44.653,105.306,34.688M97.168,80.617C100.858,72.48,99.03,63.653,92.755,56.653C91.031,54.722,88.858,53.377,86.79,52.136C85.445,51.308,84.031,50.446,82.79,49.412C82.204,48.929,81.721,48.274,81.204,47.619C80.583,46.757,79.859,45.757,78.824,45.067C73.066,40.86,66.239,39.378,59.549,37.412C56.377,36.481,53.308,35.792,50.412,34.757C54.032,32.275,58.618,30.619,63.653,30.171C65.239,29.999,66.79,29.93,68.376,29.93C83.238,29.93,96.134,37.378,103.03,49.929C109.892,62.446,109.478,77.652,101.858,89.651C94.031,101.961,80.169,108.478,64.48,107.168C55.101,106.409,45.067,101.444,41.998,96.134C43.895,94.962,61.032,85.893,72.79,89.548C76.135,89.548,70.79,97.72,70.79,97.72C70.79,97.72,90.203,95.996,97.168,80.617"/>
  <path stroke-miterlimit="4" stroke="none" stroke-width="1px" xmlns:xlink="http://www.w3.org/1999/xlink" stroke-linecap="butt" stroke-opacity="1" version="1.1" fill-opacity="1" fill="#e03a3e" stroke-linejoin="miter" stroke-dasharray="none" y="0px" xml:space="preserve" fill-rule="nonzero" x="0px" d="M68.17,55.963C61.894,56.205,56.067,48.619,51.239,53.618C52.17,53.86,54.101,53.136,54.377,53.998C51.894,63.79,68.032,66.342,68.17,55.963"/>
</g>
  <g id="Thin-S" transform="matrix(1.0,0.0,0.0,1.0,788.7473132324219,591.8073327636719)">  <path xml:space="preserve" xmlns:xlink="http://www.w3.org/1999/xlink" stroke-linejoin="miter" stroke-opacity="1" y="0px" stroke-dasharray="none" fill-opacity="1" stroke-linecap="butt" fill="#ffffff" x="0px" stroke="none" stroke-width="1px" stroke-miterlimit="4" version="1.1" fill-rule="nonzero" d="M107.892,32.309C97.961,21.689,83.514,15.62,68.239,15.62C66.928,15.62,65.618,15.655,64.342,15.792C39.688,17.448,27.792,34.999,26.551,36.93C24.689,39.24,9.069,60.377,19.551,89.548L19.758,90.169C19.861,90.479,30.068,121.719,66.549,121.719L66.549,121.719C68.48,121.719,70.514,121.616,72.549,121.443C99.823,119.064,120.064,98.927,121.788,72.514C122.857,57.308,117.926,43.033,107.892,32.309"/>
  <path stroke-miterlimit="4" fill="#e03a3e" xmlns:xlink="http://www.w3.org/1999/xlink" stroke="none" fill-rule="nonzero" xml:space="preserve" stroke-linecap="butt" stroke-width="1px" stroke-opacity="1" version="1.1" fill-opacity="1" stroke-dasharray="none" stroke-linejoin="miter" x="0px" y="0px" d="M105.306,34.688C95.065,23.758,79.962,18.137,64.515,19.206C39.998,20.861,29.102,39.102,29.102,39.102C29.102,39.102,48.55,44.998,51.205,45.826C53.067,46.377,65.135,49.412,70.618,52.377C71.756,52.998,72.859,54.274,73.962,55.412C74.79,56.274,75.549,57.101,76.342,57.756C77.79,58.929,79.169,59.929,80.548,60.929C83.893,63.377,86.824,65.446,88.203,68.652C89.376,71.411,89.41,74.307,88.376,76.962C87.445,79.273,85.617,81.376,83.41,82.824C83.652,81.652,83.928,79.962,82.341,78.928C81.617,78.48,77.997,77.618,75.549,77.342C74.376,77.238,61.239,76.618,43.033,86.445C48.481,79.135,52.412,77.928,52.412,77.928C52.239,77.066,22.93,88.927,22.93,88.927C22.93,88.927,33.068,121.374,72.169,117.926C97.651,115.685,116.616,97.031,118.271,72.169C119.236,57.998,114.616,44.653,105.306,34.688M97.168,80.617C100.858,72.48,99.03,63.653,92.755,56.653C91.031,54.722,88.858,53.377,86.79,52.136C85.445,51.308,84.031,50.446,82.79,49.412C82.204,48.929,81.721,48.274,81.204,47.619C80.583,46.757,79.859,45.757,78.824,45.067C73.066,40.86,66.239,39.378,59.549,37.412C56.377,36.481,53.308,35.792,50.412,34.757C54.032,32.275,58.618,30.619,63.653,30.171C65.239,29.999,66.79,29.93,68.376,29.93C83.238,29.93,96.134,37.378,103.03,49.929C109.892,62.446,109.478,77.652,101.858,89.651C94.031,101.961,80.169,108.478,64.48,107.168C55.101,106.409,45.067,101.444,41.998,96.134C43.895,94.962,61.032,85.893,72.79,89.548C76.135,89.548,70.79,97.72,70.79,97.72C70.79,97.72,90.203,95.996,97.168,80.617"/>
  <path stroke="none" fill-opacity="1" xmlns:xlink="http://www.w3.org/1999/xlink" x="0px" fill="#e03a3e" stroke-dasharray="none" stroke-opacity="1" fill-rule="nonzero" version="1.1" xml:space="preserve" y="0px" stroke-linejoin="miter" stroke-width="1px" stroke-miterlimit="4" stroke-linecap="butt" d="M68.17,55.963C61.894,56.205,56.067,48.619,51.239,53.618C52.17,53.86,54.101,53.136,54.377,53.998C51.894,63.79,68.032,66.342,68.17,55.963"/>
</g>
  <g id="Ultralight-S" transform="matrix(1.0,0.0,0.0,1.0,492.03731323242187,591.8073327636719)">  <path y="0px" version="1.1" fill-rule="nonzero" stroke-linejoin="miter" stroke-opacity="1" stroke-miterlimit="4" stroke-dasharray="none" stroke-linecap="butt" fill-opacity="1" xmlns:xlink="http://www.w3.org/1999/xlink" stroke-width="1px" fill="#ffffff" stroke="none" xml:space="preserve" x="0px" d="M107.892,32.309C97.961,21.689,83.514,15.62,68.239,15.62C66.928,15.62,65.618,15.655,64.342,15.792C39.688,17.448,27.792,34.999,26.551,36.93C24.689,39.24,9.069,60.377,19.551,89.548L19.758,90.169C19.861,90.479,30.068,121.719,66.549,121.719L66.549,121.719C68.48,121.719,70.514,121.616,72.549,121.443C99.823,119.064,120.064,98.927,121.788,72.514C122.857,57.308,117.926,43.033,107.892,32.309"/>
  <path version="1.1" fill-rule="nonzero" stroke-miterlimit="4" fill="#e03a3e" fill-opacity="1" stroke-width="1px" stroke-opacity="1" y="0px" stroke="none" x="0px" stroke-linecap="butt" xmlns:xlink="http://www.w3.org/1999/xlink" stroke-dasharray="none" stroke-linejoin="miter" xml:space="preserve" d="M105.306,34.688C95.065,23.758,79.962,18.137,64.515,19.206C39.998,20.861,29.102,39.102,29.102,39.102C29.102,39.102,48.55,44.998,51.205,45.826C53.067,46.377,65.135,49.412,70.618,52.377C71.756,52.998,72.859,54.274,73.962,55.412C74.79,56.274,75.549,57.101,76.342,57.756C77.79,58.929,79.169,59.929,80.548,60.929C83.893,63.377,86.824,65.446,88.203,68.652C89.376,71.411,89.41,74.307,88.376,76.962C87.445,79.273,85.617,81.376,83.41,82.824C83.652,81.652,83.928,79.962,82.341,78.928C81.617,78.48,77.997,77.618,75.549,77.342C74.376,77.238,61.239,76.618,43.033,86.445C48.481,79.135,52.412,77.928,52.412,77.928C52.239,77.066,22.93,88.927,22.93,88.927C22.93,88.927,33.068,121.374,72.169,117.926C97.651,115.685,116.616,97.031,118.271,72.169C119.236,57.998,114.616,44.653,105.306,34.688M97.168,80.617C100.858,72.48,99.03,63.653,92.755,56.653C91.031,54.722,88.858,53.377,86.79,52.136C85.445,51.308,84.031,50.446,82.79,49.412C82.204,48.929,81.721,48.274,81.204,47.619C80.583,46.757,79.859,45.757,78.824,45.067C73.066,40.86,66.239,39.378,59.549,37.412C56.377,36.481,53.308,35.792,50.412,34.757C54.032,32.275,58.618,30.619,63.653,30.171C65.239,29.999,66.79,29.93,68.376,29.93C83.238,29.93,96.134,37.378,103.03,49.929C109.892,62.446,109.478,77.652,101.858,89.651C94.031,101.961,80.169,108.478,64.48,107.168C55.101,106.409,45.067,101.444,41.998,96.134C43.895,94.962,61.032,85.893,72.79,89.548C76.135,89.548,70.79,97.72,70.79,97.72C70.79,97.72,90.203,95.996,97.168,80.617"/>
  <path stroke-opacity="1" stroke-dasharray="none" x="0px" stroke-linecap="butt" fill="#e03a3e" stroke-miterlimit="4" fill-rule="nonzero" fill-opacity="1" stroke-linejoin="miter" y="0px" xmlns:xlink="http://www.w3.org/1999/xlink" stroke="none" version="1.1" stroke-width="1px" xml:space="preserve" d="M68.17,55.963C61.894,56.205,56.067,48.619,51.239,53.618C52.17,53.86,54.101,53.136,54.377,53.998C51.894,63.79,68.032,66.342,68.17,55.963"/>
</g>
 </g>
</svg>
