<?xml version="1.0" encoding="UTF-8"?>
<!-- Generator: CustomSymbols v2.6.4.43 by @serious_bret https://bretlester.com/app_content/CustomSymbols/ -->
<!-- Guides: Left/Right 0.29/0.29 Cap/Base 0.29/0.29 -->
<!-- Settings: RefScale 1.0 Min/Max Stroke Scales 0.5/2.21 -->
<!DOCTYPE svg
PUBLIC "-//W3C//DTD SVG 1.1//EN"
       "http://www.w3.org/Graphics/SVG/1.1/DTD/svg11.dtd">
<svg version="1.1" xmlns="http://www.w3.org/2000/svg" xmlns:xlink="http://www.w3.org/1999/xlink" width="3300" height="2200">
<![CDATA[<?xml version="1.0" encoding="utf-8"?>
<!-- Generator: Adobe Illustrator 26.1.0, SVG Export Plug-In . SVG Version: 6.00 Build 0)  -->
<svg version="1.1" id="Layer_1" xmlns="http://www.w3.org/2000/svg" xmlns:xlink="http://www.w3.org/1999/xlink" x="0px" y="0px"
	 viewBox="0 0 400 400" style="enable-background:new 0 0 400 400;" xml:space="preserve">
<style type="text/css">
	.st0{fill:#BC945C;}
	.st1{fill:#860038;}
</style>
<g>
	<path class="st0" d="M356.2,121.3V98.4l-5.6-5.7c-72-68.5-226.2,21.4-278.6,64.8l-25.9,40.1l32.2-8c-49.4,62-31.8,102.7-29.7,106.9
		c5.2,14.6,17.1,26.3,36.3,34c14.6,5.8,31.2,6.6,45.4,5.9c61.4-2.9,134-41.2,180.9-81.9l1.1-0.9l9.3-47.1l-18.2,10.1
		c-63.3,27.8-114.2,43.2-114.2,43.2c-33.3,10.4-48.6,12.1-59.5,9.5l-1.3-0.4c-3-1.2-3.5-3.9-3.5-4.6c-0.5-20.8,35.4-65.6,53.4-85
		c16.8-18.1,43.3-37.9,65.7-47.3c15-6.3,24.7-8.8,29.2-8.4c-1.2,3.9-3.3,8.7-6.2,14.5c0,0-24,47.3-25,49.2L356.2,121.3z"/>
	<path class="st1" d="M213.9,118c-20.6,10.9-44.3,32.8-51.7,40.7C101.8,223,59.5,309,191.7,267.8c0,0,51.4-15.6,115.2-43.6
		C126.3,376.8-44.2,313,123.6,152.5c-15.3,3.5-30.7,6.8-45.8,11c53.7-44.5,201.1-127.4,266.9-64.8l-70.3,43.1
		C304.6,82.7,250.2,96.6,213.9,118"/>
</g>
</svg>
]]>
 <g id="Notes">
  <rect height="2200" id="artboard" style="fill:white;opacity:1" width="3300" x="0" y="0"/>
  <line id="" style="fill:none;stroke:black;opacity:1;stroke-width:0.5;" x1="263" x2="3036" y1="292" y2="292"/>
  <text id="reftext1" style="stroke:none;fill:black;font-family:-apple-system,&quot;SF Pro Display&quot;,&quot;SF Pro Text&quot;,Helvetica,sans-serif;font-weight:bold;" transform="matrix(1 0 0 1 263 322)">Weight/Scale Variations</text>
  <text id="reftext2" style="stroke:none;fill:black;font-family:-apple-system,&quot;SF Pro Display&quot;,&quot;SF Pro Text&quot;,Helvetica,sans-serif;text-anchor:middle;" transform="matrix(1 0 0 1 559.711 322)">Ultralight</text>
  <text style="stroke:none;fill:black;font-family:-apple-system,&quot;SF Pro Display&quot;,&quot;SF Pro Text&quot;,Helvetica,sans-serif;text-anchor:middle;" transform="matrix(1 0 0 1 856.422 322)">Thin</text>
  <text style="stroke:none;fill:black;font-family:-apple-system,&quot;SF Pro Display&quot;,&quot;SF Pro Text&quot;,Helvetica,sans-serif;text-anchor:middle;" transform="matrix(1 0 0 1 1153.13 322)">Light</text>
  <text style="stroke:none;fill:black;font-family:-apple-system,&quot;SF Pro Display&quot;,&quot;SF Pro Text&quot;,Helvetica,sans-serif;text-anchor:middle;" transform="matrix(1 0 0 1 1449.84 322)">Regular</text>
  <text style="stroke:none;fill:black;font-family:-apple-system,&quot;SF Pro Display&quot;,&quot;SF Pro Text&quot;,Helvetica,sans-serif;text-anchor:middle;" transform="matrix(1 0 0 1 1746.56 322)">Medium</text>
  <text style="stroke:none;fill:black;font-family:-apple-system,&quot;SF Pro Display&quot;,&quot;SF Pro Text&quot;,Helvetica,sans-serif;text-anchor:middle;" transform="matrix(1 0 0 1 2043.27 322)">Semibold</text>
  <text style="stroke:none;fill:black;font-family:-apple-system,&quot;SF Pro Display&quot;,&quot;SF Pro Text&quot;,Helvetica,sans-serif;text-anchor:middle;" transform="matrix(1 0 0 1 2339.98 322)">Bold</text>
  <text style="stroke:none;fill:black;font-family:-apple-system,&quot;SF Pro Display&quot;,&quot;SF Pro Text&quot;,Helvetica,sans-serif;text-anchor:middle;" transform="matrix(1 0 0 1 2636.69 322)">Heavy</text>
  <text style="stroke:none;fill:black;font-family:-apple-system,&quot;SF Pro Display&quot;,&quot;SF Pro Text&quot;,Helvetica,sans-serif;text-anchor:middle;" transform="matrix(1 0 0 1 2933.4 322)">Black</text>
  <line id="" style="fill:none;stroke:black;opacity:1;stroke-width:0.5;" x1="263" x2="3036" y1="1903" y2="1903"/>
  <g id="" transform="matrix(1 0 0 1 263 1933)">
   <path d="M9.24805 0.830078C13.5547 0.830078 17.1387-2.74414 17.1387-7.05078C17.1387-11.3574 13.5449-14.9316 9.23828-14.9316C4.94141-14.9316 1.36719-11.3574 1.36719-7.05078C1.36719-2.74414 4.95117 0.830078 9.24805 0.830078ZM9.24805-0.654297C5.70312-0.654297 2.87109-3.49609 2.87109-7.05078C2.87109-10.6055 5.69336-13.4473 9.23828-13.4473C12.793-13.4473 15.6348-10.6055 15.6445-7.05078C15.6543-3.49609 12.8027-0.654297 9.24805-0.654297ZM6.39648-6.31836L8.50586-6.31836L8.50586-4.19922C8.50586-3.75977 8.79883-3.45703 9.22852-3.45703C9.67773-3.45703 9.9707-3.75977 9.9707-4.19922L9.9707-6.31836L12.0996-6.31836C12.5391-6.31836 12.8418-6.61133 12.8418-7.04102C12.8418-7.48047 12.5391-7.7832 12.0996-7.7832L9.9707-7.7832L9.9707-9.89258C9.9707-10.3418 9.67773-10.6445 9.22852-10.6445C8.79883-10.6445 8.50586-10.3418 8.50586-9.89258L8.50586-7.7832L6.39648-7.7832C5.94727-7.7832 5.64453-7.48047 5.64453-7.04102C5.64453-6.61133 5.94727-6.31836 6.39648-6.31836Z"/>
  </g>
  <g id="" transform="matrix(1 0 0 1 281.506 1933)">
   <path d="M11.709 2.91016C17.1582 2.91016 21.6699-1.61133 21.6699-7.05078C21.6699-12.5 17.1484-17.0117 11.6992-17.0117C6.25977-17.0117 1.74805-12.5 1.74805-7.05078C1.74805-1.61133 6.26953 2.91016 11.709 2.91016ZM11.709 1.25C7.09961 1.25 3.41797-2.44141 3.41797-7.05078C3.41797-11.6602 7.08984-15.3516 11.6992-15.3516C16.3086-15.3516 20-11.6602 20.0098-7.05078C20.0195-2.44141 16.3184 1.25 11.709 1.25ZM7.98828-6.23047L10.8789-6.23047L10.8789-3.32031C10.8789-2.83203 11.2109-2.5 11.6895-2.5C12.1777-2.5 12.5195-2.83203 12.5195-3.32031L12.5195-6.23047L15.4297-6.23047C15.918-6.23047 16.25-6.5625 16.25-7.04102C16.25-7.5293 15.918-7.87109 15.4297-7.87109L12.5195-7.87109L12.5195-10.7617C12.5195-11.2695 12.1777-11.6016 11.6895-11.6016C11.2109-11.6016 10.8789-11.2598 10.8789-10.7617L10.8789-7.87109L7.98828-7.87109C7.48047-7.87109 7.14844-7.5293 7.14844-7.04102C7.14844-6.5625 7.49023-6.23047 7.98828-6.23047Z"/>
  </g>
  <g id="" transform="matrix(1 0 0 1 304.924 1933)">
   <path d="M14.9707 5.66406C21.9336 5.66406 27.6953-0.0976562 27.6953-7.05078C27.6953-14.0137 21.9238-19.7754 14.9609-19.7754C8.00781-19.7754 2.25586-14.0137 2.25586-7.05078C2.25586-0.0976562 8.01758 5.66406 14.9707 5.66406ZM14.9707 3.84766C8.93555 3.84766 4.08203-1.01562 4.08203-7.05078C4.08203-13.0957 8.92578-17.9492 14.9609-17.9492C21.0059-17.9492 25.8594-13.0957 25.8691-7.05078C25.8789-1.01562 21.0156 3.84766 14.9707 3.84766ZM10.0586-6.14258L14.0625-6.14258L14.0625-2.12891C14.0625-1.5918 14.4336-1.2207 14.9512-1.2207C15.4883-1.2207 15.8594-1.5918 15.8594-2.12891L15.8594-6.14258L19.8828-6.14258C20.4102-6.14258 20.791-6.51367 20.791-7.03125C20.791-7.56836 20.4199-7.94922 19.8828-7.94922L15.8594-7.94922L15.8594-11.9531C15.8594-12.5098 15.4883-12.8809 14.9512-12.8809C14.4336-12.8809 14.0625-12.5 14.0625-11.9531L14.0625-7.94922L10.0586-7.94922C9.50195-7.94922 9.13086-7.56836 9.13086-7.03125C9.13086-6.51367 9.51172-6.14258 10.0586-6.14258Z"/>
  </g>
  <text style="stroke:none;fill:black;font-family:-apple-system,&quot;SF Pro Display&quot;,&quot;SF Pro Text&quot;,Helvetica,sans-serif;font-weight:bold;" transform="matrix(1 0 0 1 263 1953)">Design Variations</text>
  <text style="stroke:none;fill:black;font-family:-apple-system,&quot;SF Pro Display&quot;,&quot;SF Pro Text&quot;,Helvetica,sans-serif;" transform="matrix(1 0 0 1 263 1971)">Symbols are supported in up to nine weights and three scales.</text>
  <text style="stroke:none;fill:black;font-family:-apple-system,&quot;SF Pro Display&quot;,&quot;SF Pro Text&quot;,Helvetica,sans-serif;" transform="matrix(1 0 0 1 263 1989)">For optimal layout with text and other symbols, vertically align</text>
  <text style="stroke:none;fill:black;font-family:-apple-system,&quot;SF Pro Display&quot;,&quot;SF Pro Text&quot;,Helvetica,sans-serif;" transform="matrix(1 0 0 1 263 2007)">symbols with the adjacent text.</text>
  <line id="" style="fill:none;stroke:#00AEEF;stroke-width:0.5;opacity:1.0;" x1="776" x2="776" y1="1919" y2="1933"/>
  <g id="" transform="matrix(1 0 0 1 776 1933)">
   <path d="M3.31055 0.126953C3.82812 0.126953 4.08203-0.0683594 4.26758-0.605469L5.52734-4.0625L11.2891-4.0625L12.5488-0.605469C12.7344-0.0683594 12.9883 0.126953 13.4961 0.126953C14.0137 0.126953 14.3457-0.185547 14.3457-0.673828C14.3457-0.839844 14.3164-0.986328 14.2383-1.20117L9.6582-13.3887C9.43359-13.9941 9.0332-14.2871 8.4082-14.2871C7.80273-14.2871 7.39258-13.9941 7.17773-13.3984L2.59766-1.19141C2.51953-0.976562 2.49023-0.830078 2.49023-0.664062C2.49023-0.175781 2.80273 0.126953 3.31055 0.126953ZM6.00586-5.53711L8.37891-12.1094L8.42773-12.1094L10.8008-5.53711Z"/>
  </g>
  <line id="" style="fill:none;stroke:#00AEEF;stroke-width:0.5;opacity:1.0;" x1="792.836" x2="792.836" y1="1919" y2="1933"/>
  <text style="stroke:none;fill:black;font-family:-apple-system,&quot;SF Pro Display&quot;,&quot;SF Pro Text&quot;,Helvetica,sans-serif;font-weight:bold;" transform="matrix(1 0 0 1 776 1953)">Margins</text>
  <text style="stroke:none;fill:black;font-family:-apple-system,&quot;SF Pro Display&quot;,&quot;SF Pro Text&quot;,Helvetica,sans-serif;" transform="matrix(1 0 0 1 776 1971)">Leading and trailing margins on the left and right side of each symbol</text>
  <text style="stroke:none;fill:black;font-family:-apple-system,&quot;SF Pro Display&quot;,&quot;SF Pro Text&quot;,Helvetica,sans-serif;" transform="matrix(1 0 0 1 776 1989)">can be adjusted by modifying the x-location of the margin guidelines.</text>
  <text style="stroke:none;fill:black;font-family:-apple-system,&quot;SF Pro Display&quot;,&quot;SF Pro Text&quot;,Helvetica,sans-serif;" transform="matrix(1 0 0 1 776 2007)">Modifications are automatically applied proportionally to all</text>
  <text style="stroke:none;fill:black;font-family:-apple-system,&quot;SF Pro Display&quot;,&quot;SF Pro Text&quot;,Helvetica,sans-serif;" transform="matrix(1 0 0 1 776 2025)">scales and weights.</text>
  <g id="" transform="matrix(1 0 0 1 1289 1933)">
   <path d="M2.8418 1.86523L4.54102 3.57422C5.40039 4.44336 6.38672 4.38477 7.31445 3.35938L17.4902-7.85156C17.7539-7.76367 18.0273-7.7832 18.3398-7.8418L19.4043-8.03711L20.0684-7.36328L20.0293-6.80664C19.9902-6.30859 20.1172-5.92773 20.6055-5.44922L21.3672-4.70703C21.8457-4.22852 22.4609-4.19922 22.9297-4.66797L25.8398-7.58789C26.3086-8.05664 26.2891-8.65234 25.8105-9.13086L25.0391-9.89258C24.5605-10.3711 24.1895-10.5273 23.7109-10.4883L23.1348-10.4395L22.4902-11.0742L22.7344-12.1973C22.8613-12.7637 22.7051-13.2031 22.1191-13.7891L19.9219-15.9766C16.582-19.2969 12.1484-19.2188 9.25781-16.3281C8.83789-15.918 8.80859-15.3418 9.04297-14.9512C9.27734-14.5898 9.73633-14.3555 10.3809-14.5215C11.8457-14.8633 13.3691-14.9219 14.7949-13.9844L14.209-12.5293C14.0137-12.0508 13.9844-11.6504 14.1113-11.2891L3.04688-0.898438C2.06055 0.0195312 1.98242 0.996094 2.8418 1.86523ZM10.752-15.957C13.1836-17.7344 16.4746-17.4316 18.7012-15.2051L21.1328-12.793C21.3672-12.5586 21.4062-12.373 21.3379-12.0312L21.0156-10.5469L22.5195-9.0625L23.5059-9.12109C23.7598-9.13086 23.8379-9.11133 24.0332-8.91602L24.6094-8.33984L22.168-5.89844L21.5918-6.47461C21.3965-6.66992 21.3672-6.74805 21.377-7.01172L21.4453-7.98828L19.9512-9.47266L18.4277-9.21875C18.1055-9.15039 17.959-9.17969 17.7148-9.41406L15.7129-11.416C15.459-11.6504 15.4297-11.8164 15.5859-12.1875L16.4648-14.2773C14.9023-15.7324 12.8711-16.3574 10.8398-15.7617C10.6836-15.7227 10.625-15.8496 10.752-15.957ZM5.27344 2.30469L4.10156 1.14258C3.63281 0.683594 3.74023 0.341797 4.14062-0.0195312L14.9512-10.1953L16.416-8.71094L6.42578 2.27539C6.07422 2.67578 5.74219 2.77344 5.27344 2.30469Z"/>
  </g>
  <text style="stroke:none;fill:black;font-family:-apple-system,&quot;SF Pro Display&quot;,&quot;SF Pro Text&quot;,Helvetica,sans-serif;font-weight:bold;" transform="matrix(1 0 0 1 1289 1953)">Exporting</text>
  <text style="stroke:none;fill:black;font-family:-apple-system,&quot;SF Pro Display&quot;,&quot;SF Pro Text&quot;,Helvetica,sans-serif;" transform="matrix(1 0 0 1 1289 1971)">Symbols should be outlined when exporting to ensure the</text>
  <text style="stroke:none;fill:black;font-family:-apple-system,&quot;SF Pro Display&quot;,&quot;SF Pro Text&quot;,Helvetica,sans-serif;" transform="matrix(1 0 0 1 1289 1989)">design is preserved when submitting to Xcode.</text>
  <text id="template-version" style="stroke:none;fill:black;font-family:-apple-system,&quot;SF Pro Display&quot;,&quot;SF Pro Text&quot;,Helvetica,sans-serif;text-anchor:end;" transform="matrix(1 0 0 1 3036 1933)">Template v.2.0</text>
  <text style="stroke:none;fill:black;font-family:-apple-system,&quot;SF Pro Display&quot;,&quot;SF Pro Text&quot;,Helvetica,sans-serif;text-anchor:end;" transform="matrix(1 0 0 1 3036 1951)">Requires Xcode 12 or greater</text>
  <text style="stroke:none;fill:black;font-family:-apple-system,&quot;SF Pro Display&quot;,&quot;SF Pro Text&quot;,Helvetica,sans-serif;" transform="matrix(1 0 0 1 263 726)">Small</text>
  <text style="stroke:none;fill:black;font-family:-apple-system,&quot;SF Pro Display&quot;,&quot;SF Pro Text&quot;,Helvetica,sans-serif;" transform="matrix(1 0 0 1 263 1156)">Medium</text>
  <text style="stroke:none;fill:black;font-family:-apple-system,&quot;SF Pro Display&quot;,&quot;SF Pro Text&quot;,Helvetica,sans-serif;" transform="matrix(1 0 0 1 263 1586)">Large</text>
 </g>
 <g id="Guides">
  <g id="H-reference" style="fill:#27AAE1;stroke:none;" transform="matrix(1 0 0 1 339 696)">
   <path d="M0.976562 0L3.66211 0L12.9883-24.4629L45.752-24.4629L55.127 0L57.7637 0L30.6152-70.459L28.125-70.459ZM29.3457-67.1387L29.4434-67.1387L44.873-26.709L13.8672-26.709Z"/>
  </g>
  <line id="Baseline-S" style="fill:none;stroke:#27AAE1;opacity:1;stroke-width:0.5;" x1="263" x2="3036" y1="696" y2="696"/>
  <line id="Capline-S" style="fill:none;stroke:#27AAE1;opacity:1;stroke-width:0.5;" x1="263" x2="3036" y1="625.541" y2="625.541"/>
  <g id="H-reference" style="fill:#27AAE1;stroke:none;" transform="matrix(1 0 0 1 339 1126)">
   <path d="M0.976562 0L3.66211 0L12.9883-24.4629L45.752-24.4629L55.127 0L57.7637 0L30.6152-70.459L28.125-70.459ZM29.3457-67.1387L29.4434-67.1387L44.873-26.709L13.8672-26.709Z"/>
  </g>
  <line id="Baseline-M" style="fill:none;stroke:#27AAE1;opacity:1;stroke-width:0.5;" x1="263" x2="3036" y1="1126" y2="1126"/>
  <line id="Capline-M" style="fill:none;stroke:#27AAE1;opacity:1;stroke-width:0.5;" x1="263" x2="3036" y1="1055.54" y2="1055.54"/>
  <g id="H-reference" style="fill:#27AAE1;stroke:none;" transform="matrix(1 0 0 1 339 1556)">
   <path d="M0.976562 0L3.66211 0L12.9883-24.4629L45.752-24.4629L55.127 0L57.7637 0L30.6152-70.459L28.125-70.459ZM29.3457-67.1387L29.4434-67.1387L44.873-26.709L13.8672-26.709Z"/>
  </g>
  <line id="Baseline-L" style="fill:none;stroke:#27AAE1;opacity:1;stroke-width:0.5;" x1="263" x2="3036" y1="1556" y2="1556"/>
  <line id="Capline-L" style="fill:none;stroke:#27AAE1;opacity:1;stroke-width:0.5;" x1="263" x2="3036" y1="1485.54" y2="1485.54"/>
  <line id="left-margin" x1="1415.9000195312499" x2="1415.9000195312499" y1="1030.79" y2="1150.12" style="fill:none;stroke:#00AEEF;stroke-width:0.5;opacity:1.0;"/>
  <line id="right-margin" x1="1486.3599804687499" x2="1486.3599804687499" y1="1030.79" y2="1150.12" style="fill:none;stroke:#00AEEF;stroke-width:0.5;opacity:1.0;"/>
 </g>
 <g id="Symbols">
  <g id="Black-L" transform="matrix(1.0,0.0,0.0,1.0,2826.4736314174106,1412.5636509486608)">  <path stroke-linecap="butt" fill-rule="nonzero" xmlns:xlink="http://www.w3.org/1999/xlink" stroke-opacity="1" stroke-miterlimit="4" version="1.1" x="0px" fill="#bc945c" y="0px" stroke-dasharray="none" stroke-width="1px" stroke-linejoin="miter" xml:space="preserve" fill-opacity="1" stroke="none" d="M192.716,65.627L192.716,53.238L189.686,50.154C150.731,13.093,67.304,61.732,38.954,85.213L24.942,106.908L42.363,102.58C15.636,136.124,25.158,158.144,26.294,160.416C29.108,168.315,35.546,174.645,45.934,178.811C53.833,181.949,62.814,182.382,70.496,182.003C103.716,180.434,142.995,159.713,168.369,137.693L168.964,137.206L173.996,111.723L164.149,117.188C129.902,132.228,102.363,140.56,102.363,140.56C84.347,146.187,76.069,147.107,70.172,145.7L69.468,145.483C67.845,144.834,67.575,143.373,67.575,142.995C67.304,131.741,86.727,107.503,96.466,97.007C105.555,87.214,119.893,76.502,132.012,71.416C140.127,68.008,145.375,66.655,147.81,66.872C147.161,68.982,146.024,71.579,144.456,74.717C144.456,74.717,131.471,100.307,130.93,101.335L192.716,65.627ZM192.716,65.627"/>
  <path fill-rule="nonzero" stroke-width="1px" stroke-linejoin="miter" stroke="none" y="0px" stroke-linecap="butt" stroke-dasharray="none" stroke-opacity="1" fill="#860038" xml:space="preserve" x="0px" version="1.1" xmlns:xlink="http://www.w3.org/1999/xlink" fill-opacity="1" stroke-miterlimit="4" d="M115.727,63.842C104.581,69.739,91.759,81.588,87.755,85.862C55.077,120.65,32.191,167.179,103.716,144.888C103.716,144.888,131.525,136.448,166.043,121.299C68.332,203.861,-23.914,169.343,66.872,82.507C58.594,84.401,50.262,86.186,42.092,88.459C71.146,64.383,150.894,19.531,186.494,53.4L148.459,76.718C164.798,44.743,135.366,52.264,115.727,63.842"/>
</g>
  <g id="Heavy-L" transform="matrix(1.0,0.0,0.0,1.0,2529.7636314174106,1412.5636509486608)">  <path stroke-linejoin="miter" fill-rule="nonzero" stroke-linecap="butt" fill-opacity="1" stroke-width="1px" stroke-miterlimit="4" stroke="none" xml:space="preserve" version="1.1" x="0px" y="0px" stroke-opacity="1" stroke-dasharray="none" xmlns:xlink="http://www.w3.org/1999/xlink" fill="#bc945c" d="M192.716,65.627L192.716,53.238L189.686,50.154C150.731,13.093,67.304,61.732,38.954,85.213L24.942,106.908L42.363,102.58C15.636,136.124,25.158,158.144,26.294,160.416C29.108,168.315,35.546,174.645,45.934,178.811C53.833,181.949,62.814,182.382,70.496,182.003C103.716,180.434,142.995,159.713,168.369,137.693L168.964,137.206L173.996,111.723L164.149,117.188C129.902,132.228,102.363,140.56,102.363,140.56C84.347,146.187,76.069,147.107,70.172,145.7L69.468,145.483C67.845,144.834,67.575,143.373,67.575,142.995C67.304,131.741,86.727,107.503,96.466,97.007C105.555,87.214,119.893,76.502,132.012,71.416C140.127,68.008,145.375,66.655,147.81,66.872C147.161,68.982,146.024,71.579,144.456,74.717C144.456,74.717,131.471,100.307,130.93,101.335L192.716,65.627ZM192.716,65.627"/>
  <path xml:space="preserve" stroke-linejoin="miter" stroke-opacity="1" x="0px" stroke="none" stroke-miterlimit="4" y="0px" stroke-linecap="butt" stroke-width="1px" xmlns:xlink="http://www.w3.org/1999/xlink" stroke-dasharray="none" version="1.1" fill-opacity="1" fill-rule="nonzero" fill="#860038" d="M115.727,63.842C104.581,69.739,91.759,81.588,87.755,85.862C55.077,120.65,32.191,167.179,103.716,144.888C103.716,144.888,131.525,136.448,166.043,121.299C68.332,203.861,-23.914,169.343,66.872,82.507C58.594,84.401,50.262,86.186,42.092,88.459C71.146,64.383,150.894,19.531,186.494,53.4L148.459,76.718C164.798,44.743,135.366,52.264,115.727,63.842"/>
</g>
  <g id="Bold-L" transform="matrix(1.0,0.0,0.0,1.0,2233.0536314174105,1412.5636509486608)">  <path stroke-linejoin="miter" stroke-linecap="butt" version="1.1" stroke-width="1px" xml:space="preserve" stroke-miterlimit="4" stroke-dasharray="none" xmlns:xlink="http://www.w3.org/1999/xlink" y="0px" fill-opacity="1" x="0px" stroke="none" fill="#bc945c" fill-rule="nonzero" stroke-opacity="1" d="M192.716,65.627L192.716,53.238L189.686,50.154C150.731,13.093,67.304,61.732,38.954,85.213L24.942,106.908L42.363,102.58C15.636,136.124,25.158,158.144,26.294,160.416C29.108,168.315,35.546,174.645,45.934,178.811C53.833,181.949,62.814,182.382,70.496,182.003C103.716,180.434,142.995,159.713,168.369,137.693L168.964,137.206L173.996,111.723L164.149,117.188C129.902,132.228,102.363,140.56,102.363,140.56C84.347,146.187,76.069,147.107,70.172,145.7L69.468,145.483C67.845,144.834,67.575,143.373,67.575,142.995C67.304,131.741,86.727,107.503,96.466,97.007C105.555,87.214,119.893,76.502,132.012,71.416C140.127,68.008,145.375,66.655,147.81,66.872C147.161,68.982,146.024,71.579,144.456,74.717C144.456,74.717,131.471,100.307,130.93,101.335L192.716,65.627ZM192.716,65.627"/>
  <path x="0px" xml:space="preserve" stroke-miterlimit="4" stroke-linejoin="miter" version="1.1" fill="#860038" stroke-linecap="butt" y="0px" stroke="none" fill-opacity="1" fill-rule="nonzero" xmlns:xlink="http://www.w3.org/1999/xlink" stroke-opacity="1" stroke-width="1px" stroke-dasharray="none" d="M115.727,63.842C104.581,69.739,91.759,81.588,87.755,85.862C55.077,120.65,32.191,167.179,103.716,144.888C103.716,144.888,131.525,136.448,166.043,121.299C68.332,203.861,-23.914,169.343,66.872,82.507C58.594,84.401,50.262,86.186,42.092,88.459C71.146,64.383,150.894,19.531,186.494,53.4L148.459,76.718C164.798,44.743,135.366,52.264,115.727,63.842"/>
</g>
  <g id="Semibold-L" transform="matrix(1.0,0.0,0.0,1.0,1936.3436314174107,1412.5636509486608)">  <path stroke-miterlimit="4" y="0px" fill-rule="nonzero" x="0px" stroke="none" stroke-width="1px" fill="#bc945c" fill-opacity="1" version="1.1" stroke-linejoin="miter" xmlns:xlink="http://www.w3.org/1999/xlink" stroke-opacity="1" stroke-linecap="butt" stroke-dasharray="none" xml:space="preserve" d="M192.716,65.627L192.716,53.238L189.686,50.154C150.731,13.093,67.304,61.732,38.954,85.213L24.942,106.908L42.363,102.58C15.636,136.124,25.158,158.144,26.294,160.416C29.108,168.315,35.546,174.645,45.934,178.811C53.833,181.949,62.814,182.382,70.496,182.003C103.716,180.434,142.995,159.713,168.369,137.693L168.964,137.206L173.996,111.723L164.149,117.188C129.902,132.228,102.363,140.56,102.363,140.56C84.347,146.187,76.069,147.107,70.172,145.7L69.468,145.483C67.845,144.834,67.575,143.373,67.575,142.995C67.304,131.741,86.727,107.503,96.466,97.007C105.555,87.214,119.893,76.502,132.012,71.416C140.127,68.008,145.375,66.655,147.81,66.872C147.161,68.982,146.024,71.579,144.456,74.717C144.456,74.717,131.471,100.307,130.93,101.335L192.716,65.627ZM192.716,65.627"/>
  <path xml:space="preserve" stroke-linecap="butt" fill="#860038" stroke-dasharray="none" stroke-opacity="1" stroke="none" stroke-miterlimit="4" version="1.1" x="0px" xmlns:xlink="http://www.w3.org/1999/xlink" stroke-width="1px" y="0px" fill-opacity="1" stroke-linejoin="miter" fill-rule="nonzero" d="M115.727,63.842C104.581,69.739,91.759,81.588,87.755,85.862C55.077,120.65,32.191,167.179,103.716,144.888C103.716,144.888,131.525,136.448,166.043,121.299C68.332,203.861,-23.914,169.343,66.872,82.507C58.594,84.401,50.262,86.186,42.092,88.459C71.146,64.383,150.894,19.531,186.494,53.4L148.459,76.718C164.798,44.743,135.366,52.264,115.727,63.842"/>
</g>
  <g id="Medium-L" transform="matrix(1.0,0.0,0.0,1.0,1639.6336314174107,1412.5636509486608)">  <path stroke-opacity="1" stroke-linecap="butt" stroke-width="1px" stroke-linejoin="miter" fill-opacity="1" stroke-dasharray="none" stroke-miterlimit="4" xmlns:xlink="http://www.w3.org/1999/xlink" fill="#bc945c" xml:space="preserve" y="0px" x="0px" version="1.1" stroke="none" fill-rule="nonzero" d="M192.716,65.627L192.716,53.238L189.686,50.154C150.731,13.093,67.304,61.732,38.954,85.213L24.942,106.908L42.363,102.58C15.636,136.124,25.158,158.144,26.294,160.416C29.108,168.315,35.546,174.645,45.934,178.811C53.833,181.949,62.814,182.382,70.496,182.003C103.716,180.434,142.995,159.713,168.369,137.693L168.964,137.206L173.996,111.723L164.149,117.188C129.902,132.228,102.363,140.56,102.363,140.56C84.347,146.187,76.069,147.107,70.172,145.7L69.468,145.483C67.845,144.834,67.575,143.373,67.575,142.995C67.304,131.741,86.727,107.503,96.466,97.007C105.555,87.214,119.893,76.502,132.012,71.416C140.127,68.008,145.375,66.655,147.81,66.872C147.161,68.982,146.024,71.579,144.456,74.717C144.456,74.717,131.471,100.307,130.93,101.335L192.716,65.627ZM192.716,65.627"/>
  <path fill-opacity="1" xml:space="preserve" y="0px" stroke-width="1px" stroke-linecap="butt" x="0px" stroke-dasharray="none" fill-rule="nonzero" stroke="none" xmlns:xlink="http://www.w3.org/1999/xlink" stroke-miterlimit="4" version="1.1" fill="#860038" stroke-linejoin="miter" stroke-opacity="1" d="M115.727,63.842C104.581,69.739,91.759,81.588,87.755,85.862C55.077,120.65,32.191,167.179,103.716,144.888C103.716,144.888,131.525,136.448,166.043,121.299C68.332,203.861,-23.914,169.343,66.872,82.507C58.594,84.401,50.262,86.186,42.092,88.459C71.146,64.383,150.894,19.531,186.494,53.4L148.459,76.718C164.798,44.743,135.366,52.264,115.727,63.842"/>
</g>
  <g id="Regular-L" transform="matrix(1.0,0.0,0.0,1.0,1342.9236314174107,1412.5636509486608)">  <path x="0px" version="1.1" stroke-miterlimit="4" fill-rule="nonzero" xmlns:xlink="http://www.w3.org/1999/xlink" stroke-linejoin="miter" stroke-width="1px" y="0px" stroke-dasharray="none" stroke-opacity="1" fill-opacity="1" fill="#bc945c" stroke="none" stroke-linecap="butt" xml:space="preserve" d="M192.716,65.627L192.716,53.238L189.686,50.154C150.731,13.093,67.304,61.732,38.954,85.213L24.942,106.908L42.363,102.58C15.636,136.124,25.158,158.144,26.294,160.416C29.108,168.315,35.546,174.645,45.934,178.811C53.833,181.949,62.814,182.382,70.496,182.003C103.716,180.434,142.995,159.713,168.369,137.693L168.964,137.206L173.996,111.723L164.149,117.188C129.902,132.228,102.363,140.56,102.363,140.56C84.347,146.187,76.069,147.107,70.172,145.7L69.468,145.483C67.845,144.834,67.575,143.373,67.575,142.995C67.304,131.741,86.727,107.503,96.466,97.007C105.555,87.214,119.893,76.502,132.012,71.416C140.127,68.008,145.375,66.655,147.81,66.872C147.161,68.982,146.024,71.579,144.456,74.717C144.456,74.717,131.471,100.307,130.93,101.335L192.716,65.627ZM192.716,65.627"/>
  <path stroke="none" stroke-linecap="butt" stroke-linejoin="miter" x="0px" fill-rule="nonzero" xml:space="preserve" fill-opacity="1" stroke-opacity="1" stroke-width="1px" version="1.1" stroke-dasharray="none" stroke-miterlimit="4" y="0px" xmlns:xlink="http://www.w3.org/1999/xlink" fill="#860038" d="M115.727,63.842C104.581,69.739,91.759,81.588,87.755,85.862C55.077,120.65,32.191,167.179,103.716,144.888C103.716,144.888,131.525,136.448,166.043,121.299C68.332,203.861,-23.914,169.343,66.872,82.507C58.594,84.401,50.262,86.186,42.092,88.459C71.146,64.383,150.894,19.531,186.494,53.4L148.459,76.718C164.798,44.743,135.366,52.264,115.727,63.842"/>
</g>
  <g id="Light-L" transform="matrix(1.0,0.0,0.0,1.0,1046.2136314174109,1412.5636509486608)">  <path stroke-linejoin="miter" x="0px" stroke-miterlimit="4" y="0px" fill="#bc945c" stroke-width="1px" fill-opacity="1" xml:space="preserve" xmlns:xlink="http://www.w3.org/1999/xlink" stroke-dasharray="none" fill-rule="nonzero" stroke="none" stroke-linecap="butt" version="1.1" stroke-opacity="1" d="M192.716,65.627L192.716,53.238L189.686,50.154C150.731,13.093,67.304,61.732,38.954,85.213L24.942,106.908L42.363,102.58C15.636,136.124,25.158,158.144,26.294,160.416C29.108,168.315,35.546,174.645,45.934,178.811C53.833,181.949,62.814,182.382,70.496,182.003C103.716,180.434,142.995,159.713,168.369,137.693L168.964,137.206L173.996,111.723L164.149,117.188C129.902,132.228,102.363,140.56,102.363,140.56C84.347,146.187,76.069,147.107,70.172,145.7L69.468,145.483C67.845,144.834,67.575,143.373,67.575,142.995C67.304,131.741,86.727,107.503,96.466,97.007C105.555,87.214,119.893,76.502,132.012,71.416C140.127,68.008,145.375,66.655,147.81,66.872C147.161,68.982,146.024,71.579,144.456,74.717C144.456,74.717,131.471,100.307,130.93,101.335L192.716,65.627ZM192.716,65.627"/>
  <path fill-opacity="1" x="0px" fill-rule="nonzero" fill="#860038" stroke-dasharray="none" stroke-miterlimit="4" stroke-linejoin="miter" xml:space="preserve" stroke-width="1px" y="0px" stroke-opacity="1" xmlns:xlink="http://www.w3.org/1999/xlink" stroke="none" stroke-linecap="butt" version="1.1" d="M115.727,63.842C104.581,69.739,91.759,81.588,87.755,85.862C55.077,120.65,32.191,167.179,103.716,144.888C103.716,144.888,131.525,136.448,166.043,121.299C68.332,203.861,-23.914,169.343,66.872,82.507C58.594,84.401,50.262,86.186,42.092,88.459C71.146,64.383,150.894,19.531,186.494,53.4L148.459,76.718C164.798,44.743,135.366,52.264,115.727,63.842"/>
</g>
  <g id="Thin-L" transform="matrix(1.0,0.0,0.0,1.0,749.5036314174107,1412.5636509486608)">  <path xmlns:xlink="http://www.w3.org/1999/xlink" y="0px" stroke-linecap="butt" fill-opacity="1" fill-rule="nonzero" x="0px" stroke-linejoin="miter" fill="#bc945c" xml:space="preserve" stroke-dasharray="none" stroke-opacity="1" stroke="none" stroke-miterlimit="4" version="1.1" stroke-width="1px" d="M192.716,65.627L192.716,53.238L189.686,50.154C150.731,13.093,67.304,61.732,38.954,85.213L24.942,106.908L42.363,102.58C15.636,136.124,25.158,158.144,26.294,160.416C29.108,168.315,35.546,174.645,45.934,178.811C53.833,181.949,62.814,182.382,70.496,182.003C103.716,180.434,142.995,159.713,168.369,137.693L168.964,137.206L173.996,111.723L164.149,117.188C129.902,132.228,102.363,140.56,102.363,140.56C84.347,146.187,76.069,147.107,70.172,145.7L69.468,145.483C67.845,144.834,67.575,143.373,67.575,142.995C67.304,131.741,86.727,107.503,96.466,97.007C105.555,87.214,119.893,76.502,132.012,71.416C140.127,68.008,145.375,66.655,147.81,66.872C147.161,68.982,146.024,71.579,144.456,74.717C144.456,74.717,131.471,100.307,130.93,101.335L192.716,65.627ZM192.716,65.627"/>
  <path stroke-miterlimit="4" xmlns:xlink="http://www.w3.org/1999/xlink" stroke="none" xml:space="preserve" fill-opacity="1" stroke-width="1px" fill="#860038" stroke-opacity="1" stroke-dasharray="none" stroke-linecap="butt" x="0px" version="1.1" y="0px" fill-rule="nonzero" stroke-linejoin="miter" d="M115.727,63.842C104.581,69.739,91.759,81.588,87.755,85.862C55.077,120.65,32.191,167.179,103.716,144.888C103.716,144.888,131.525,136.448,166.043,121.299C68.332,203.861,-23.914,169.343,66.872,82.507C58.594,84.401,50.262,86.186,42.092,88.459C71.146,64.383,150.894,19.531,186.494,53.4L148.459,76.718C164.798,44.743,135.366,52.264,115.727,63.842"/>
</g>
  <g id="Ultralight-L" transform="matrix(1.0,0.0,0.0,1.0,452.7936314174107,1412.5636509486608)">  <path stroke-linejoin="miter" stroke="none" fill-rule="nonzero" x="0px" stroke-opacity="1" stroke-dasharray="none" fill="#bc945c" xml:space="preserve" stroke-width="1px" y="0px" stroke-linecap="butt" version="1.1" stroke-miterlimit="4" xmlns:xlink="http://www.w3.org/1999/xlink" fill-opacity="1" d="M192.716,65.627L192.716,53.238L189.686,50.154C150.731,13.093,67.304,61.732,38.954,85.213L24.942,106.908L42.363,102.58C15.636,136.124,25.158,158.144,26.294,160.416C29.108,168.315,35.546,174.645,45.934,178.811C53.833,181.949,62.814,182.382,70.496,182.003C103.716,180.434,142.995,159.713,168.369,137.693L168.964,137.206L173.996,111.723L164.149,117.188C129.902,132.228,102.363,140.56,102.363,140.56C84.347,146.187,76.069,147.107,70.172,145.7L69.468,145.483C67.845,144.834,67.575,143.373,67.575,142.995C67.304,131.741,86.727,107.503,96.466,97.007C105.555,87.214,119.893,76.502,132.012,71.416C140.127,68.008,145.375,66.655,147.81,66.872C147.161,68.982,146.024,71.579,144.456,74.717C144.456,74.717,131.471,100.307,130.93,101.335L192.716,65.627ZM192.716,65.627"/>
  <path stroke-dasharray="none" stroke-opacity="1" fill="#860038" xml:space="preserve" x="0px" stroke-linecap="butt" version="1.1" stroke="none" stroke-linejoin="miter" y="0px" xmlns:xlink="http://www.w3.org/1999/xlink" stroke-miterlimit="4" stroke-width="1px" fill-rule="nonzero" fill-opacity="1" d="M115.727,63.842C104.581,69.739,91.759,81.588,87.755,85.862C55.077,120.65,32.191,167.179,103.716,144.888C103.716,144.888,131.525,136.448,166.043,121.299C68.332,203.861,-23.914,169.343,66.872,82.507C58.594,84.401,50.262,86.186,42.092,88.459C71.146,64.383,150.894,19.531,186.494,53.4L148.459,76.718C164.798,44.743,135.366,52.264,115.727,63.842"/>
</g>
  <g id="Black-M" transform="matrix(1.0,0.0,0.0,1.0,2850.7990941220237,1006.8891136532739)">  <path stroke-linecap="butt" fill-rule="nonzero" xmlns:xlink="http://www.w3.org/1999/xlink" stroke-opacity="1" stroke-miterlimit="4" version="1.1" x="0px" fill="#bc945c" y="0px" stroke-dasharray="none" stroke-width="1px" stroke-linejoin="miter" xml:space="preserve" fill-opacity="1" stroke="none" d="M149.392,50.874L149.392,41.269L147.043,38.879C116.846,10.15,52.174,47.854,30.197,66.056L19.335,82.874L32.839,79.519C12.121,105.522,19.502,122.592,20.383,124.353C22.564,130.477,27.555,135.384,35.607,138.613C41.731,141.046,48.693,141.381,54.648,141.088C80.4,139.871,110.849,123.808,130.519,106.738L130.98,106.361L134.88,86.607L127.247,90.843C100.699,102.502,79.351,108.961,79.351,108.961C65.385,113.323,58.968,114.036,54.397,112.946L53.852,112.778C52.593,112.275,52.384,111.142,52.384,110.849C52.174,102.125,67.231,83.336,74.78,75.199C81.826,67.608,92.94,59.304,102.335,55.361C108.626,52.719,112.694,51.671,114.581,51.838C114.078,53.474,113.197,55.487,111.981,57.92C111.981,57.92,101.915,77.758,101.496,78.554L149.392,50.874ZM149.392,50.874"/>
  <path fill-rule="nonzero" stroke-width="1px" stroke-linejoin="miter" stroke="none" y="0px" stroke-linecap="butt" stroke-dasharray="none" stroke-opacity="1" fill="#860038" xml:space="preserve" x="0px" version="1.1" xmlns:xlink="http://www.w3.org/1999/xlink" fill-opacity="1" stroke-miterlimit="4" d="M89.711,49.49C81.071,54.061,71.131,63.246,68.027,66.559C42.695,93.527,24.955,129.596,80.4,112.317C80.4,112.317,101.957,105.774,128.715,94.03C52.971,158.032,-18.538,131.274,51.838,63.959C45.422,65.427,38.963,66.811,32.63,68.573C55.152,49.909,116.972,15.141,144.569,41.395L115.085,59.472C127.751,34.685,104.935,40.514,89.711,49.49"/>
</g>
  <g id="Heavy-M" transform="matrix(1.0,0.0,0.0,1.0,2554.0890941220237,1006.8891136532739)">  <path stroke-linejoin="miter" fill-rule="nonzero" stroke-linecap="butt" fill-opacity="1" stroke-width="1px" stroke-miterlimit="4" stroke="none" xml:space="preserve" version="1.1" x="0px" y="0px" stroke-opacity="1" stroke-dasharray="none" xmlns:xlink="http://www.w3.org/1999/xlink" fill="#bc945c" d="M149.392,50.874L149.392,41.269L147.043,38.879C116.846,10.15,52.174,47.854,30.197,66.056L19.335,82.874L32.839,79.519C12.121,105.522,19.502,122.592,20.383,124.353C22.564,130.477,27.555,135.384,35.607,138.613C41.731,141.046,48.693,141.381,54.648,141.088C80.4,139.871,110.849,123.808,130.519,106.738L130.98,106.361L134.88,86.607L127.247,90.843C100.699,102.502,79.351,108.961,79.351,108.961C65.385,113.323,58.968,114.036,54.397,112.946L53.852,112.778C52.593,112.275,52.384,111.142,52.384,110.849C52.174,102.125,67.231,83.336,74.78,75.199C81.826,67.608,92.94,59.304,102.335,55.361C108.626,52.719,112.694,51.671,114.581,51.838C114.078,53.474,113.197,55.487,111.981,57.92C111.981,57.92,101.915,77.758,101.496,78.554L149.392,50.874ZM149.392,50.874"/>
  <path xml:space="preserve" stroke-linejoin="miter" stroke-opacity="1" x="0px" stroke="none" stroke-miterlimit="4" y="0px" stroke-linecap="butt" stroke-width="1px" xmlns:xlink="http://www.w3.org/1999/xlink" stroke-dasharray="none" version="1.1" fill-opacity="1" fill-rule="nonzero" fill="#860038" d="M89.711,49.49C81.071,54.061,71.131,63.246,68.027,66.559C42.695,93.527,24.955,129.596,80.4,112.317C80.4,112.317,101.957,105.774,128.715,94.03C52.971,158.032,-18.538,131.274,51.838,63.959C45.422,65.427,38.963,66.811,32.63,68.573C55.152,49.909,116.972,15.141,144.569,41.395L115.085,59.472C127.751,34.685,104.935,40.514,89.711,49.49"/>
</g>
  <g id="Bold-M" transform="matrix(1.0,0.0,0.0,1.0,2257.3790941220236,1006.8891136532739)">  <path stroke-linejoin="miter" stroke-linecap="butt" version="1.1" stroke-width="1px" xml:space="preserve" stroke-miterlimit="4" stroke-dasharray="none" xmlns:xlink="http://www.w3.org/1999/xlink" y="0px" fill-opacity="1" x="0px" stroke="none" fill="#bc945c" fill-rule="nonzero" stroke-opacity="1" d="M149.392,50.874L149.392,41.269L147.043,38.879C116.846,10.15,52.174,47.854,30.197,66.056L19.335,82.874L32.839,79.519C12.121,105.522,19.502,122.592,20.383,124.353C22.564,130.477,27.555,135.384,35.607,138.613C41.731,141.046,48.693,141.381,54.648,141.088C80.4,139.871,110.849,123.808,130.519,106.738L130.98,106.361L134.88,86.607L127.247,90.843C100.699,102.502,79.351,108.961,79.351,108.961C65.385,113.323,58.968,114.036,54.397,112.946L53.852,112.778C52.593,112.275,52.384,111.142,52.384,110.849C52.174,102.125,67.231,83.336,74.78,75.199C81.826,67.608,92.94,59.304,102.335,55.361C108.626,52.719,112.694,51.671,114.581,51.838C114.078,53.474,113.197,55.487,111.981,57.92C111.981,57.92,101.915,77.758,101.496,78.554L149.392,50.874ZM149.392,50.874"/>
  <path x="0px" xml:space="preserve" stroke-miterlimit="4" stroke-linejoin="miter" version="1.1" fill="#860038" stroke-linecap="butt" y="0px" stroke="none" fill-opacity="1" fill-rule="nonzero" xmlns:xlink="http://www.w3.org/1999/xlink" stroke-opacity="1" stroke-width="1px" stroke-dasharray="none" d="M89.711,49.49C81.071,54.061,71.131,63.246,68.027,66.559C42.695,93.527,24.955,129.596,80.4,112.317C80.4,112.317,101.957,105.774,128.715,94.03C52.971,158.032,-18.538,131.274,51.838,63.959C45.422,65.427,38.963,66.811,32.63,68.573C55.152,49.909,116.972,15.141,144.569,41.395L115.085,59.472C127.751,34.685,104.935,40.514,89.711,49.49"/>
</g>
  <g id="Semibold-M" transform="matrix(1.0,0.0,0.0,1.0,1960.6690941220238,1006.8891136532739)">  <path stroke-miterlimit="4" y="0px" fill-rule="nonzero" x="0px" stroke="none" stroke-width="1px" fill="#bc945c" fill-opacity="1" version="1.1" stroke-linejoin="miter" xmlns:xlink="http://www.w3.org/1999/xlink" stroke-opacity="1" stroke-linecap="butt" stroke-dasharray="none" xml:space="preserve" d="M149.392,50.874L149.392,41.269L147.043,38.879C116.846,10.15,52.174,47.854,30.197,66.056L19.335,82.874L32.839,79.519C12.121,105.522,19.502,122.592,20.383,124.353C22.564,130.477,27.555,135.384,35.607,138.613C41.731,141.046,48.693,141.381,54.648,141.088C80.4,139.871,110.849,123.808,130.519,106.738L130.98,106.361L134.88,86.607L127.247,90.843C100.699,102.502,79.351,108.961,79.351,108.961C65.385,113.323,58.968,114.036,54.397,112.946L53.852,112.778C52.593,112.275,52.384,111.142,52.384,110.849C52.174,102.125,67.231,83.336,74.78,75.199C81.826,67.608,92.94,59.304,102.335,55.361C108.626,52.719,112.694,51.671,114.581,51.838C114.078,53.474,113.197,55.487,111.981,57.92C111.981,57.92,101.915,77.758,101.496,78.554L149.392,50.874ZM149.392,50.874"/>
  <path xml:space="preserve" stroke-linecap="butt" fill="#860038" stroke-dasharray="none" stroke-opacity="1" stroke="none" stroke-miterlimit="4" version="1.1" x="0px" xmlns:xlink="http://www.w3.org/1999/xlink" stroke-width="1px" y="0px" fill-opacity="1" stroke-linejoin="miter" fill-rule="nonzero" d="M89.711,49.49C81.071,54.061,71.131,63.246,68.027,66.559C42.695,93.527,24.955,129.596,80.4,112.317C80.4,112.317,101.957,105.774,128.715,94.03C52.971,158.032,-18.538,131.274,51.838,63.959C45.422,65.427,38.963,66.811,32.63,68.573C55.152,49.909,116.972,15.141,144.569,41.395L115.085,59.472C127.751,34.685,104.935,40.514,89.711,49.49"/>
</g>
  <g id="Medium-M" transform="matrix(1.0,0.0,0.0,1.0,1663.9590941220238,1006.8891136532739)">  <path stroke-opacity="1" stroke-linecap="butt" stroke-width="1px" stroke-linejoin="miter" fill-opacity="1" stroke-dasharray="none" stroke-miterlimit="4" xmlns:xlink="http://www.w3.org/1999/xlink" fill="#bc945c" xml:space="preserve" y="0px" x="0px" version="1.1" stroke="none" fill-rule="nonzero" d="M149.392,50.874L149.392,41.269L147.043,38.879C116.846,10.15,52.174,47.854,30.197,66.056L19.335,82.874L32.839,79.519C12.121,105.522,19.502,122.592,20.383,124.353C22.564,130.477,27.555,135.384,35.607,138.613C41.731,141.046,48.693,141.381,54.648,141.088C80.4,139.871,110.849,123.808,130.519,106.738L130.98,106.361L134.88,86.607L127.247,90.843C100.699,102.502,79.351,108.961,79.351,108.961C65.385,113.323,58.968,114.036,54.397,112.946L53.852,112.778C52.593,112.275,52.384,111.142,52.384,110.849C52.174,102.125,67.231,83.336,74.78,75.199C81.826,67.608,92.94,59.304,102.335,55.361C108.626,52.719,112.694,51.671,114.581,51.838C114.078,53.474,113.197,55.487,111.981,57.92C111.981,57.92,101.915,77.758,101.496,78.554L149.392,50.874ZM149.392,50.874"/>
  <path fill-opacity="1" xml:space="preserve" y="0px" stroke-width="1px" stroke-linecap="butt" x="0px" stroke-dasharray="none" fill-rule="nonzero" stroke="none" xmlns:xlink="http://www.w3.org/1999/xlink" stroke-miterlimit="4" version="1.1" fill="#860038" stroke-linejoin="miter" stroke-opacity="1" d="M89.711,49.49C81.071,54.061,71.131,63.246,68.027,66.559C42.695,93.527,24.955,129.596,80.4,112.317C80.4,112.317,101.957,105.774,128.715,94.03C52.971,158.032,-18.538,131.274,51.838,63.959C45.422,65.427,38.963,66.811,32.63,68.573C55.152,49.909,116.972,15.141,144.569,41.395L115.085,59.472C127.751,34.685,104.935,40.514,89.711,49.49"/>
</g>
  <g id="Regular-M" transform="matrix(1.0,0.0,0.0,1.0,1367.2490941220237,1006.8891136532739)">  <path x="0px" version="1.1" stroke-miterlimit="4" fill-rule="nonzero" xmlns:xlink="http://www.w3.org/1999/xlink" stroke-linejoin="miter" stroke-width="1px" y="0px" stroke-dasharray="none" stroke-opacity="1" fill-opacity="1" fill="#bc945c" stroke="none" stroke-linecap="butt" xml:space="preserve" d="M149.392,50.874L149.392,41.269L147.043,38.879C116.846,10.15,52.174,47.854,30.197,66.056L19.335,82.874L32.839,79.519C12.121,105.522,19.502,122.592,20.383,124.353C22.564,130.477,27.555,135.384,35.607,138.613C41.731,141.046,48.693,141.381,54.648,141.088C80.4,139.871,110.849,123.808,130.519,106.738L130.98,106.361L134.88,86.607L127.247,90.843C100.699,102.502,79.351,108.961,79.351,108.961C65.385,113.323,58.968,114.036,54.397,112.946L53.852,112.778C52.593,112.275,52.384,111.142,52.384,110.849C52.174,102.125,67.231,83.336,74.78,75.199C81.826,67.608,92.94,59.304,102.335,55.361C108.626,52.719,112.694,51.671,114.581,51.838C114.078,53.474,113.197,55.487,111.981,57.92C111.981,57.92,101.915,77.758,101.496,78.554L149.392,50.874ZM149.392,50.874"/>
  <path stroke="none" stroke-linecap="butt" stroke-linejoin="miter" x="0px" fill-rule="nonzero" xml:space="preserve" fill-opacity="1" stroke-opacity="1" stroke-width="1px" version="1.1" stroke-dasharray="none" stroke-miterlimit="4" y="0px" xmlns:xlink="http://www.w3.org/1999/xlink" fill="#860038" d="M89.711,49.49C81.071,54.061,71.131,63.246,68.027,66.559C42.695,93.527,24.955,129.596,80.4,112.317C80.4,112.317,101.957,105.774,128.715,94.03C52.971,158.032,-18.538,131.274,51.838,63.959C45.422,65.427,38.963,66.811,32.63,68.573C55.152,49.909,116.972,15.141,144.569,41.395L115.085,59.472C127.751,34.685,104.935,40.514,89.711,49.49"/>
</g>
  <g id="Light-M" transform="matrix(1.0,0.0,0.0,1.0,1070.539094122024,1006.8891136532739)">  <path stroke-linejoin="miter" x="0px" stroke-miterlimit="4" y="0px" fill="#bc945c" stroke-width="1px" fill-opacity="1" xml:space="preserve" xmlns:xlink="http://www.w3.org/1999/xlink" stroke-dasharray="none" fill-rule="nonzero" stroke="none" stroke-linecap="butt" version="1.1" stroke-opacity="1" d="M149.392,50.874L149.392,41.269L147.043,38.879C116.846,10.15,52.174,47.854,30.197,66.056L19.335,82.874L32.839,79.519C12.121,105.522,19.502,122.592,20.383,124.353C22.564,130.477,27.555,135.384,35.607,138.613C41.731,141.046,48.693,141.381,54.648,141.088C80.4,139.871,110.849,123.808,130.519,106.738L130.98,106.361L134.88,86.607L127.247,90.843C100.699,102.502,79.351,108.961,79.351,108.961C65.385,113.323,58.968,114.036,54.397,112.946L53.852,112.778C52.593,112.275,52.384,111.142,52.384,110.849C52.174,102.125,67.231,83.336,74.78,75.199C81.826,67.608,92.94,59.304,102.335,55.361C108.626,52.719,112.694,51.671,114.581,51.838C114.078,53.474,113.197,55.487,111.981,57.92C111.981,57.92,101.915,77.758,101.496,78.554L149.392,50.874ZM149.392,50.874"/>
  <path fill-opacity="1" x="0px" fill-rule="nonzero" fill="#860038" stroke-dasharray="none" stroke-miterlimit="4" stroke-linejoin="miter" xml:space="preserve" stroke-width="1px" y="0px" stroke-opacity="1" xmlns:xlink="http://www.w3.org/1999/xlink" stroke="none" stroke-linecap="butt" version="1.1" d="M89.711,49.49C81.071,54.061,71.131,63.246,68.027,66.559C42.695,93.527,24.955,129.596,80.4,112.317C80.4,112.317,101.957,105.774,128.715,94.03C52.971,158.032,-18.538,131.274,51.838,63.959C45.422,65.427,38.963,66.811,32.63,68.573C55.152,49.909,116.972,15.141,144.569,41.395L115.085,59.472C127.751,34.685,104.935,40.514,89.711,49.49"/>
</g>
  <g id="Thin-M" transform="matrix(1.0,0.0,0.0,1.0,773.8290941220239,1006.8891136532739)">  <path xmlns:xlink="http://www.w3.org/1999/xlink" y="0px" stroke-linecap="butt" fill-opacity="1" fill-rule="nonzero" x="0px" stroke-linejoin="miter" fill="#bc945c" xml:space="preserve" stroke-dasharray="none" stroke-opacity="1" stroke="none" stroke-miterlimit="4" version="1.1" stroke-width="1px" d="M149.392,50.874L149.392,41.269L147.043,38.879C116.846,10.15,52.174,47.854,30.197,66.056L19.335,82.874L32.839,79.519C12.121,105.522,19.502,122.592,20.383,124.353C22.564,130.477,27.555,135.384,35.607,138.613C41.731,141.046,48.693,141.381,54.648,141.088C80.4,139.871,110.849,123.808,130.519,106.738L130.98,106.361L134.88,86.607L127.247,90.843C100.699,102.502,79.351,108.961,79.351,108.961C65.385,113.323,58.968,114.036,54.397,112.946L53.852,112.778C52.593,112.275,52.384,111.142,52.384,110.849C52.174,102.125,67.231,83.336,74.78,75.199C81.826,67.608,92.94,59.304,102.335,55.361C108.626,52.719,112.694,51.671,114.581,51.838C114.078,53.474,113.197,55.487,111.981,57.92C111.981,57.92,101.915,77.758,101.496,78.554L149.392,50.874ZM149.392,50.874"/>
  <path stroke-miterlimit="4" xmlns:xlink="http://www.w3.org/1999/xlink" stroke="none" xml:space="preserve" fill-opacity="1" stroke-width="1px" fill="#860038" stroke-opacity="1" stroke-dasharray="none" stroke-linecap="butt" x="0px" version="1.1" y="0px" fill-rule="nonzero" stroke-linejoin="miter" d="M89.711,49.49C81.071,54.061,71.131,63.246,68.027,66.559C42.695,93.527,24.955,129.596,80.4,112.317C80.4,112.317,101.957,105.774,128.715,94.03C52.971,158.032,-18.538,131.274,51.838,63.959C45.422,65.427,38.963,66.811,32.63,68.573C55.152,49.909,116.972,15.141,144.569,41.395L115.085,59.472C127.751,34.685,104.935,40.514,89.711,49.49"/>
</g>
  <g id="Ultralight-M" transform="matrix(1.0,0.0,0.0,1.0,477.1190941220238,1006.8891136532739)">  <path stroke-linejoin="miter" stroke="none" fill-rule="nonzero" x="0px" stroke-opacity="1" stroke-dasharray="none" fill="#bc945c" xml:space="preserve" stroke-width="1px" y="0px" stroke-linecap="butt" version="1.1" stroke-miterlimit="4" xmlns:xlink="http://www.w3.org/1999/xlink" fill-opacity="1" d="M149.392,50.874L149.392,41.269L147.043,38.879C116.846,10.15,52.174,47.854,30.197,66.056L19.335,82.874L32.839,79.519C12.121,105.522,19.502,122.592,20.383,124.353C22.564,130.477,27.555,135.384,35.607,138.613C41.731,141.046,48.693,141.381,54.648,141.088C80.4,139.871,110.849,123.808,130.519,106.738L130.98,106.361L134.88,86.607L127.247,90.843C100.699,102.502,79.351,108.961,79.351,108.961C65.385,113.323,58.968,114.036,54.397,112.946L53.852,112.778C52.593,112.275,52.384,111.142,52.384,110.849C52.174,102.125,67.231,83.336,74.78,75.199C81.826,67.608,92.94,59.304,102.335,55.361C108.626,52.719,112.694,51.671,114.581,51.838C114.078,53.474,113.197,55.487,111.981,57.92C111.981,57.92,101.915,77.758,101.496,78.554L149.392,50.874ZM149.392,50.874"/>
  <path stroke-dasharray="none" stroke-opacity="1" fill="#860038" xml:space="preserve" x="0px" stroke-linecap="butt" version="1.1" stroke="none" stroke-linejoin="miter" y="0px" xmlns:xlink="http://www.w3.org/1999/xlink" stroke-miterlimit="4" stroke-width="1px" fill-rule="nonzero" fill-opacity="1" d="M89.711,49.49C81.071,54.061,71.131,63.246,68.027,66.559C42.695,93.527,24.955,129.596,80.4,112.317C80.4,112.317,101.957,105.774,128.715,94.03C52.971,158.032,-18.538,131.274,51.838,63.959C45.422,65.427,38.963,66.811,32.63,68.573C55.152,49.909,116.972,15.141,144.569,41.395L115.085,59.472C127.751,34.685,104.935,40.514,89.711,49.49"/>
</g>
  <g id="Black-S" transform="matrix(1.0,0.0,0.0,1.0,2869.0012506975445,595.0912702287947)">  <path stroke-linecap="butt" fill-rule="nonzero" xmlns:xlink="http://www.w3.org/1999/xlink" stroke-opacity="1" stroke-miterlimit="4" version="1.1" x="0px" fill="#bc945c" y="0px" stroke-dasharray="none" stroke-width="1px" stroke-linejoin="miter" xml:space="preserve" fill-opacity="1" stroke="none" d="M116.974,39.834L116.974,32.314L115.135,30.442C91.491,7.947,40.852,37.47,23.644,51.722L15.139,64.891L25.713,62.263C9.491,82.624,15.27,95.989,15.96,97.369C17.668,102.163,21.575,106.006,27.881,108.534C32.675,110.439,38.127,110.702,42.79,110.472C62.953,109.519,86.794,96.942,102.196,83.576L102.557,83.281L105.611,67.813L99.635,71.13C78.847,80.259,62.132,85.317,62.132,85.317C51.197,88.732,46.172,89.29,42.593,88.436L42.166,88.305C41.181,87.911,41.016,87.024,41.016,86.794C40.852,79.964,52.642,65.252,58.553,58.881C64.07,52.937,72.772,46.435,80.128,43.348C85.054,41.279,88.239,40.458,89.717,40.589C89.323,41.87,88.633,43.446,87.681,45.351C87.681,45.351,79.8,60.884,79.471,61.508L116.974,39.834ZM116.974,39.834"/>
  <path fill-rule="nonzero" stroke-width="1px" stroke-linejoin="miter" stroke="none" y="0px" stroke-linecap="butt" stroke-dasharray="none" stroke-opacity="1" fill="#860038" xml:space="preserve" x="0px" version="1.1" xmlns:xlink="http://www.w3.org/1999/xlink" fill-opacity="1" stroke-miterlimit="4" d="M70.243,38.75C63.479,42.33,55.696,49.522,53.265,52.116C33.43,73.232,19.539,101.474,62.953,87.944C62.953,87.944,79.833,82.821,100.784,73.626C41.476,123.739,-14.515,102.787,40.589,50.08C35.565,51.229,30.508,52.313,25.549,53.692C43.184,39.079,91.589,11.855,113.197,32.412L90.111,46.566C100.029,27.158,82.164,31.723,70.243,38.75"/>
</g>
  <g id="Heavy-S" transform="matrix(1.0,0.0,0.0,1.0,2572.2912506975445,595.0912702287947)">  <path stroke-linejoin="miter" fill-rule="nonzero" stroke-linecap="butt" fill-opacity="1" stroke-width="1px" stroke-miterlimit="4" stroke="none" xml:space="preserve" version="1.1" x="0px" y="0px" stroke-opacity="1" stroke-dasharray="none" xmlns:xlink="http://www.w3.org/1999/xlink" fill="#bc945c" d="M116.974,39.834L116.974,32.314L115.135,30.442C91.491,7.947,40.852,37.47,23.644,51.722L15.139,64.891L25.713,62.263C9.491,82.624,15.27,95.989,15.96,97.369C17.668,102.163,21.575,106.006,27.881,108.534C32.675,110.439,38.127,110.702,42.79,110.472C62.953,109.519,86.794,96.942,102.196,83.576L102.557,83.281L105.611,67.813L99.635,71.13C78.847,80.259,62.132,85.317,62.132,85.317C51.197,88.732,46.172,89.29,42.593,88.436L42.166,88.305C41.181,87.911,41.016,87.024,41.016,86.794C40.852,79.964,52.642,65.252,58.553,58.881C64.07,52.937,72.772,46.435,80.128,43.348C85.054,41.279,88.239,40.458,89.717,40.589C89.323,41.87,88.633,43.446,87.681,45.351C87.681,45.351,79.8,60.884,79.471,61.508L116.974,39.834ZM116.974,39.834"/>
  <path xml:space="preserve" stroke-linejoin="miter" stroke-opacity="1" x="0px" stroke="none" stroke-miterlimit="4" y="0px" stroke-linecap="butt" stroke-width="1px" xmlns:xlink="http://www.w3.org/1999/xlink" stroke-dasharray="none" version="1.1" fill-opacity="1" fill-rule="nonzero" fill="#860038" d="M70.243,38.75C63.479,42.33,55.696,49.522,53.265,52.116C33.43,73.232,19.539,101.474,62.953,87.944C62.953,87.944,79.833,82.821,100.784,73.626C41.476,123.739,-14.515,102.787,40.589,50.08C35.565,51.229,30.508,52.313,25.549,53.692C43.184,39.079,91.589,11.855,113.197,32.412L90.111,46.566C100.029,27.158,82.164,31.723,70.243,38.75"/>
</g>
  <g id="Bold-S" transform="matrix(1.0,0.0,0.0,1.0,2275.5812506975444,595.0912702287947)">  <path stroke-linejoin="miter" stroke-linecap="butt" version="1.1" stroke-width="1px" xml:space="preserve" stroke-miterlimit="4" stroke-dasharray="none" xmlns:xlink="http://www.w3.org/1999/xlink" y="0px" fill-opacity="1" x="0px" stroke="none" fill="#bc945c" fill-rule="nonzero" stroke-opacity="1" d="M116.974,39.834L116.974,32.314L115.135,30.442C91.491,7.947,40.852,37.47,23.644,51.722L15.139,64.891L25.713,62.263C9.491,82.624,15.27,95.989,15.96,97.369C17.668,102.163,21.575,106.006,27.881,108.534C32.675,110.439,38.127,110.702,42.79,110.472C62.953,109.519,86.794,96.942,102.196,83.576L102.557,83.281L105.611,67.813L99.635,71.13C78.847,80.259,62.132,85.317,62.132,85.317C51.197,88.732,46.172,89.29,42.593,88.436L42.166,88.305C41.181,87.911,41.016,87.024,41.016,86.794C40.852,79.964,52.642,65.252,58.553,58.881C64.07,52.937,72.772,46.435,80.128,43.348C85.054,41.279,88.239,40.458,89.717,40.589C89.323,41.87,88.633,43.446,87.681,45.351C87.681,45.351,79.8,60.884,79.471,61.508L116.974,39.834ZM116.974,39.834"/>
  <path x="0px" xml:space="preserve" stroke-miterlimit="4" stroke-linejoin="miter" version="1.1" fill="#860038" stroke-linecap="butt" y="0px" stroke="none" fill-opacity="1" fill-rule="nonzero" xmlns:xlink="http://www.w3.org/1999/xlink" stroke-opacity="1" stroke-width="1px" stroke-dasharray="none" d="M70.243,38.75C63.479,42.33,55.696,49.522,53.265,52.116C33.43,73.232,19.539,101.474,62.953,87.944C62.953,87.944,79.833,82.821,100.784,73.626C41.476,123.739,-14.515,102.787,40.589,50.08C35.565,51.229,30.508,52.313,25.549,53.692C43.184,39.079,91.589,11.855,113.197,32.412L90.111,46.566C100.029,27.158,82.164,31.723,70.243,38.75"/>
</g>
  <g id="Semibold-S" transform="matrix(1.0,0.0,0.0,1.0,1978.8712506975446,595.0912702287947)">  <path stroke-miterlimit="4" y="0px" fill-rule="nonzero" x="0px" stroke="none" stroke-width="1px" fill="#bc945c" fill-opacity="1" version="1.1" stroke-linejoin="miter" xmlns:xlink="http://www.w3.org/1999/xlink" stroke-opacity="1" stroke-linecap="butt" stroke-dasharray="none" xml:space="preserve" d="M116.974,39.834L116.974,32.314L115.135,30.442C91.491,7.947,40.852,37.47,23.644,51.722L15.139,64.891L25.713,62.263C9.491,82.624,15.27,95.989,15.96,97.369C17.668,102.163,21.575,106.006,27.881,108.534C32.675,110.439,38.127,110.702,42.79,110.472C62.953,109.519,86.794,96.942,102.196,83.576L102.557,83.281L105.611,67.813L99.635,71.13C78.847,80.259,62.132,85.317,62.132,85.317C51.197,88.732,46.172,89.29,42.593,88.436L42.166,88.305C41.181,87.911,41.016,87.024,41.016,86.794C40.852,79.964,52.642,65.252,58.553,58.881C64.07,52.937,72.772,46.435,80.128,43.348C85.054,41.279,88.239,40.458,89.717,40.589C89.323,41.87,88.633,43.446,87.681,45.351C87.681,45.351,79.8,60.884,79.471,61.508L116.974,39.834ZM116.974,39.834"/>
  <path xml:space="preserve" stroke-linecap="butt" fill="#860038" stroke-dasharray="none" stroke-opacity="1" stroke="none" stroke-miterlimit="4" version="1.1" x="0px" xmlns:xlink="http://www.w3.org/1999/xlink" stroke-width="1px" y="0px" fill-opacity="1" stroke-linejoin="miter" fill-rule="nonzero" d="M70.243,38.75C63.479,42.33,55.696,49.522,53.265,52.116C33.43,73.232,19.539,101.474,62.953,87.944C62.953,87.944,79.833,82.821,100.784,73.626C41.476,123.739,-14.515,102.787,40.589,50.08C35.565,51.229,30.508,52.313,25.549,53.692C43.184,39.079,91.589,11.855,113.197,32.412L90.111,46.566C100.029,27.158,82.164,31.723,70.243,38.75"/>
</g>
  <g id="Medium-S" transform="matrix(1.0,0.0,0.0,1.0,1682.1612506975446,595.0912702287947)">  <path stroke-opacity="1" stroke-linecap="butt" stroke-width="1px" stroke-linejoin="miter" fill-opacity="1" stroke-dasharray="none" stroke-miterlimit="4" xmlns:xlink="http://www.w3.org/1999/xlink" fill="#bc945c" xml:space="preserve" y="0px" x="0px" version="1.1" stroke="none" fill-rule="nonzero" d="M116.974,39.834L116.974,32.314L115.135,30.442C91.491,7.947,40.852,37.47,23.644,51.722L15.139,64.891L25.713,62.263C9.491,82.624,15.27,95.989,15.96,97.369C17.668,102.163,21.575,106.006,27.881,108.534C32.675,110.439,38.127,110.702,42.79,110.472C62.953,109.519,86.794,96.942,102.196,83.576L102.557,83.281L105.611,67.813L99.635,71.13C78.847,80.259,62.132,85.317,62.132,85.317C51.197,88.732,46.172,89.29,42.593,88.436L42.166,88.305C41.181,87.911,41.016,87.024,41.016,86.794C40.852,79.964,52.642,65.252,58.553,58.881C64.07,52.937,72.772,46.435,80.128,43.348C85.054,41.279,88.239,40.458,89.717,40.589C89.323,41.87,88.633,43.446,87.681,45.351C87.681,45.351,79.8,60.884,79.471,61.508L116.974,39.834ZM116.974,39.834"/>
  <path fill-opacity="1" xml:space="preserve" y="0px" stroke-width="1px" stroke-linecap="butt" x="0px" stroke-dasharray="none" fill-rule="nonzero" stroke="none" xmlns:xlink="http://www.w3.org/1999/xlink" stroke-miterlimit="4" version="1.1" fill="#860038" stroke-linejoin="miter" stroke-opacity="1" d="M70.243,38.75C63.479,42.33,55.696,49.522,53.265,52.116C33.43,73.232,19.539,101.474,62.953,87.944C62.953,87.944,79.833,82.821,100.784,73.626C41.476,123.739,-14.515,102.787,40.589,50.08C35.565,51.229,30.508,52.313,25.549,53.692C43.184,39.079,91.589,11.855,113.197,32.412L90.111,46.566C100.029,27.158,82.164,31.723,70.243,38.75"/>
</g>
  <g id="Regular-S" transform="matrix(1.0,0.0,0.0,1.0,1385.4512506975445,595.0912702287947)">  <path x="0px" version="1.1" stroke-miterlimit="4" fill-rule="nonzero" xmlns:xlink="http://www.w3.org/1999/xlink" stroke-linejoin="miter" stroke-width="1px" y="0px" stroke-dasharray="none" stroke-opacity="1" fill-opacity="1" fill="#bc945c" stroke="none" stroke-linecap="butt" xml:space="preserve" d="M116.974,39.834L116.974,32.314L115.135,30.442C91.491,7.947,40.852,37.47,23.644,51.722L15.139,64.891L25.713,62.263C9.491,82.624,15.27,95.989,15.96,97.369C17.668,102.163,21.575,106.006,27.881,108.534C32.675,110.439,38.127,110.702,42.79,110.472C62.953,109.519,86.794,96.942,102.196,83.576L102.557,83.281L105.611,67.813L99.635,71.13C78.847,80.259,62.132,85.317,62.132,85.317C51.197,88.732,46.172,89.29,42.593,88.436L42.166,88.305C41.181,87.911,41.016,87.024,41.016,86.794C40.852,79.964,52.642,65.252,58.553,58.881C64.07,52.937,72.772,46.435,80.128,43.348C85.054,41.279,88.239,40.458,89.717,40.589C89.323,41.87,88.633,43.446,87.681,45.351C87.681,45.351,79.8,60.884,79.471,61.508L116.974,39.834ZM116.974,39.834"/>
  <path stroke="none" stroke-linecap="butt" stroke-linejoin="miter" x="0px" fill-rule="nonzero" xml:space="preserve" fill-opacity="1" stroke-opacity="1" stroke-width="1px" version="1.1" stroke-dasharray="none" stroke-miterlimit="4" y="0px" xmlns:xlink="http://www.w3.org/1999/xlink" fill="#860038" d="M70.243,38.75C63.479,42.33,55.696,49.522,53.265,52.116C33.43,73.232,19.539,101.474,62.953,87.944C62.953,87.944,79.833,82.821,100.784,73.626C41.476,123.739,-14.515,102.787,40.589,50.08C35.565,51.229,30.508,52.313,25.549,53.692C43.184,39.079,91.589,11.855,113.197,32.412L90.111,46.566C100.029,27.158,82.164,31.723,70.243,38.75"/>
</g>
  <g id="Light-S" transform="matrix(1.0,0.0,0.0,1.0,1088.7412506975447,595.0912702287947)">  <path stroke-linejoin="miter" x="0px" stroke-miterlimit="4" y="0px" fill="#bc945c" stroke-width="1px" fill-opacity="1" xml:space="preserve" xmlns:xlink="http://www.w3.org/1999/xlink" stroke-dasharray="none" fill-rule="nonzero" stroke="none" stroke-linecap="butt" version="1.1" stroke-opacity="1" d="M116.974,39.834L116.974,32.314L115.135,30.442C91.491,7.947,40.852,37.47,23.644,51.722L15.139,64.891L25.713,62.263C9.491,82.624,15.27,95.989,15.96,97.369C17.668,102.163,21.575,106.006,27.881,108.534C32.675,110.439,38.127,110.702,42.79,110.472C62.953,109.519,86.794,96.942,102.196,83.576L102.557,83.281L105.611,67.813L99.635,71.13C78.847,80.259,62.132,85.317,62.132,85.317C51.197,88.732,46.172,89.29,42.593,88.436L42.166,88.305C41.181,87.911,41.016,87.024,41.016,86.794C40.852,79.964,52.642,65.252,58.553,58.881C64.07,52.937,72.772,46.435,80.128,43.348C85.054,41.279,88.239,40.458,89.717,40.589C89.323,41.87,88.633,43.446,87.681,45.351C87.681,45.351,79.8,60.884,79.471,61.508L116.974,39.834ZM116.974,39.834"/>
  <path fill-opacity="1" x="0px" fill-rule="nonzero" fill="#860038" stroke-dasharray="none" stroke-miterlimit="4" stroke-linejoin="miter" xml:space="preserve" stroke-width="1px" y="0px" stroke-opacity="1" xmlns:xlink="http://www.w3.org/1999/xlink" stroke="none" stroke-linecap="butt" version="1.1" d="M70.243,38.75C63.479,42.33,55.696,49.522,53.265,52.116C33.43,73.232,19.539,101.474,62.953,87.944C62.953,87.944,79.833,82.821,100.784,73.626C41.476,123.739,-14.515,102.787,40.589,50.08C35.565,51.229,30.508,52.313,25.549,53.692C43.184,39.079,91.589,11.855,113.197,32.412L90.111,46.566C100.029,27.158,82.164,31.723,70.243,38.75"/>
</g>
  <g id="Thin-S" transform="matrix(1.0,0.0,0.0,1.0,792.0312506975447,595.0912702287947)">  <path xmlns:xlink="http://www.w3.org/1999/xlink" y="0px" stroke-linecap="butt" fill-opacity="1" fill-rule="nonzero" x="0px" stroke-linejoin="miter" fill="#bc945c" xml:space="preserve" stroke-dasharray="none" stroke-opacity="1" stroke="none" stroke-miterlimit="4" version="1.1" stroke-width="1px" d="M116.974,39.834L116.974,32.314L115.135,30.442C91.491,7.947,40.852,37.47,23.644,51.722L15.139,64.891L25.713,62.263C9.491,82.624,15.27,95.989,15.96,97.369C17.668,102.163,21.575,106.006,27.881,108.534C32.675,110.439,38.127,110.702,42.79,110.472C62.953,109.519,86.794,96.942,102.196,83.576L102.557,83.281L105.611,67.813L99.635,71.13C78.847,80.259,62.132,85.317,62.132,85.317C51.197,88.732,46.172,89.29,42.593,88.436L42.166,88.305C41.181,87.911,41.016,87.024,41.016,86.794C40.852,79.964,52.642,65.252,58.553,58.881C64.07,52.937,72.772,46.435,80.128,43.348C85.054,41.279,88.239,40.458,89.717,40.589C89.323,41.87,88.633,43.446,87.681,45.351C87.681,45.351,79.8,60.884,79.471,61.508L116.974,39.834ZM116.974,39.834"/>
  <path stroke-miterlimit="4" xmlns:xlink="http://www.w3.org/1999/xlink" stroke="none" xml:space="preserve" fill-opacity="1" stroke-width="1px" fill="#860038" stroke-opacity="1" stroke-dasharray="none" stroke-linecap="butt" x="0px" version="1.1" y="0px" fill-rule="nonzero" stroke-linejoin="miter" d="M70.243,38.75C63.479,42.33,55.696,49.522,53.265,52.116C33.43,73.232,19.539,101.474,62.953,87.944C62.953,87.944,79.833,82.821,100.784,73.626C41.476,123.739,-14.515,102.787,40.589,50.08C35.565,51.229,30.508,52.313,25.549,53.692C43.184,39.079,91.589,11.855,113.197,32.412L90.111,46.566C100.029,27.158,82.164,31.723,70.243,38.75"/>
</g>
  <g id="Ultralight-S" transform="matrix(1.0,0.0,0.0,1.0,495.32125069754466,595.0912702287947)">  <path stroke-linejoin="miter" stroke="none" fill-rule="nonzero" x="0px" stroke-opacity="1" stroke-dasharray="none" fill="#bc945c" xml:space="preserve" stroke-width="1px" y="0px" stroke-linecap="butt" version="1.1" stroke-miterlimit="4" xmlns:xlink="http://www.w3.org/1999/xlink" fill-opacity="1" d="M116.974,39.834L116.974,32.314L115.135,30.442C91.491,7.947,40.852,37.47,23.644,51.722L15.139,64.891L25.713,62.263C9.491,82.624,15.27,95.989,15.96,97.369C17.668,102.163,21.575,106.006,27.881,108.534C32.675,110.439,38.127,110.702,42.79,110.472C62.953,109.519,86.794,96.942,102.196,83.576L102.557,83.281L105.611,67.813L99.635,71.13C78.847,80.259,62.132,85.317,62.132,85.317C51.197,88.732,46.172,89.29,42.593,88.436L42.166,88.305C41.181,87.911,41.016,87.024,41.016,86.794C40.852,79.964,52.642,65.252,58.553,58.881C64.07,52.937,72.772,46.435,80.128,43.348C85.054,41.279,88.239,40.458,89.717,40.589C89.323,41.87,88.633,43.446,87.681,45.351C87.681,45.351,79.8,60.884,79.471,61.508L116.974,39.834ZM116.974,39.834"/>
  <path stroke-dasharray="none" stroke-opacity="1" fill="#860038" xml:space="preserve" x="0px" stroke-linecap="butt" version="1.1" stroke="none" stroke-linejoin="miter" y="0px" xmlns:xlink="http://www.w3.org/1999/xlink" stroke-miterlimit="4" stroke-width="1px" fill-rule="nonzero" fill-opacity="1" d="M70.243,38.75C63.479,42.33,55.696,49.522,53.265,52.116C33.43,73.232,19.539,101.474,62.953,87.944C62.953,87.944,79.833,82.821,100.784,73.626C41.476,123.739,-14.515,102.787,40.589,50.08C35.565,51.229,30.508,52.313,25.549,53.692C43.184,39.079,91.589,11.855,113.197,32.412L90.111,46.566C100.029,27.158,82.164,31.723,70.243,38.75"/>
</g>
 </g>
</svg>
